<svg xmlns="http://www.w3.org/2000/svg" width="720" height="360" viewBox="0 0 720 360" role="img" aria-label="yard">
  <defs>
    <linearGradient id="tier-tier-yard" x1="0" y1="0" x2="720" y2="360" gradientUnits="userSpaceOnUse">
      <stop offset="0" stop-color="#fffaf0"/>
      <stop offset="0.5" stop-color="#bfe5d9"/>
      <stop offset="1" stop-color="#4b8aa8"/>
    </linearGradient>
    <radialGradient id="glow-tier-yard" cx="72%" cy="22%" r="62%">
      <stop offset="0" stop-color="#fffaf0" stop-opacity="0.78"/>
      <stop offset="1" stop-color="#fffaf0" stop-opacity="0"/>
    </radialGradient>
  </defs>
  <rect width="720" height="360" rx="42" fill="url(#tier-tier-yard)"/>
  <rect width="720" height="360" rx="42" fill="url(#glow-tier-yard)"/>
  <path d="M0 268 C 96 218, 142 284, 238 230 C 332 177, 397 247, 494 199 C 586 153, 650 186, 720 142 L720 360 L0 360 Z" fill="#ffb23f" opacity="0.28"/>
  <path d="M0 304 C 104 263, 160 322, 250 272 C 340 222, 435 300, 526 252 C 610 208, 662 224, 720 192 L720 360 L0 360 Z" fill="#2f6f88" opacity="0.2"/>
  <g transform="translate(486 122)">
    <ellipse cx="0" cy="52" rx="96" ry="56" fill="#2f6f88" opacity="0.22"/>
    <ellipse cx="0" cy="24" rx="82" ry="58" fill="#2f6f88" opacity="0.62"/>
    <circle cx="-28" cy="6" r="8" fill="#28322d"/>
    <circle cx="30" cy="6" r="8" fill="#28322d"/>
    <ellipse cx="1" cy="28" rx="14" ry="9" fill="#28322d"/>
  </g>
  <g transform="translate(80 70)">
    <text x="0" y="0" font-family="Inter, Arial, sans-serif" font-size="22" font-weight="900" fill="#2f6f88" opacity="0.7">yard</text>
    <path d="M0 24 L260 24" stroke="#2f6f88" stroke-width="7" stroke-linecap="round" opacity="0.22"/>
    <path d="M0 48 L190 48" stroke="#2f6f88" stroke-width="5" stroke-linecap="round" opacity="0.16"/>
  </g>
  <circle cx="274" cy="88" r="3.2" fill="#4b8aa8" opacity="0.12"/>
  <circle cx="41" cy="106" r="2.5" fill="#bfe5d9" opacity="0.15"/>
  <circle cx="85" cy="283" r="1.8" fill="#ffb23f" opacity="0.19"/>
  <circle cx="125" cy="114" r="2.9" fill="#fffaf0" opacity="0.23"/>
  <circle cx="22" cy="198" r="2.2" fill="#4b8aa8" opacity="0.26"/>
  <circle cx="273" cy="267" r="3.3" fill="#bfe5d9" opacity="0.12"/>
  <circle cx="275" cy="186" r="2.6" fill="#ffb23f" opacity="0.15"/>
  <circle cx="152" cy="30" r="1.9" fill="#fffaf0" opacity="0.19"/>
  <circle cx="251" cy="262" r="3.0" fill="#4b8aa8" opacity="0.23"/>
  <circle cx="35" cy="183" r="2.3" fill="#bfe5d9" opacity="0.26"/>
  <circle cx="88" cy="250" r="3.4" fill="#ffb23f" opacity="0.12"/>
  <circle cx="275" cy="26" r="2.7" fill="#fffaf0" opacity="0.15"/>
  <circle cx="103" cy="82" r="2.0" fill="#4b8aa8" opacity="0.19"/>
  <circle cx="35" cy="279" r="3.1" fill="#bfe5d9" opacity="0.23"/>
  <circle cx="224" cy="262" r="2.4" fill="#ffb23f" opacity="0.26"/>
  <circle cx="275" cy="280" r="3.5" fill="#fffaf0" opacity="0.12"/>
  <circle cx="35" cy="173" r="2.8" fill="#4b8aa8" opacity="0.15"/>
  <circle cx="75" cy="288" r="2.1" fill="#bfe5d9" opacity="0.19"/>
  <circle cx="256" cy="88" r="3.2" fill="#ffb23f" opacity="0.23"/>
  <circle cx="223" cy="157" r="2.5" fill="#fffaf0" opacity="0.26"/>
  <circle cx="225" cy="76" r="1.8" fill="#4b8aa8" opacity="0.12"/>
  <circle cx="102" cy="204" r="2.9" fill="#bfe5d9" opacity="0.15"/>
  <circle cx="201" cy="152" r="2.2" fill="#ffb23f" opacity="0.19"/>
  <circle cx="269" cy="73" r="3.3" fill="#fffaf0" opacity="0.23"/>
  <circle cx="38" cy="140" r="2.6" fill="#4b8aa8" opacity="0.26"/>
  <circle cx="225" cy="200" r="1.9" fill="#bfe5d9" opacity="0.12"/>
  <circle cx="53" cy="256" r="3.0" fill="#ffb23f" opacity="0.15"/>
  <circle cx="269" cy="169" r="2.3" fill="#fffaf0" opacity="0.19"/>
  <circle cx="174" cy="152" r="3.4" fill="#4b8aa8" opacity="0.23"/>
  <circle cx="225" cy="170" r="2.7" fill="#bfe5d9" opacity="0.26"/>
  <circle cx="269" cy="63" r="2.0" fill="#ffb23f" opacity="0.12"/>
  <circle cx="25" cy="178" r="3.1" fill="#fffaf0" opacity="0.15"/>
  <circle cx="206" cy="262" r="2.4" fill="#4b8aa8" opacity="0.19"/>
  <circle cx="173" cy="47" r="3.5" fill="#bfe5d9" opacity="0.23"/>
  <circle cx="175" cy="250" r="2.8" fill="#ffb23f" opacity="0.26"/>
  <circle cx="52" cy="94" r="2.1" fill="#fffaf0" opacity="0.12"/>
  <circle cx="151" cy="42" r="3.2" fill="#4b8aa8" opacity="0.15"/>
  <circle cx="219" cy="247" r="2.5" fill="#bfe5d9" opacity="0.19"/>
  <circle cx="272" cy="30" r="1.8" fill="#ffb23f" opacity="0.23"/>
  <circle cx="175" cy="90" r="2.9" fill="#fffaf0" opacity="0.26"/>
  <circle cx="287" cy="146" r="2.2" fill="#4b8aa8" opacity="0.12"/>
  <circle cx="219" cy="59" r="3.3" fill="#bfe5d9" opacity="0.15"/>
  <circle cx="124" cy="42" r="2.6" fill="#ffb23f" opacity="0.19"/>
  <circle cx="175" cy="60" r="1.9" fill="#fffaf0" opacity="0.23"/>
  <circle cx="219" cy="237" r="3.0" fill="#4b8aa8" opacity="0.26"/>
  <circle cx="259" cy="68" r="2.3" fill="#bfe5d9" opacity="0.12"/>
  <circle cx="156" cy="152" r="3.4" fill="#ffb23f" opacity="0.15"/>
  <circle cx="123" cy="221" r="2.7" fill="#fffaf0" opacity="0.19"/>
  <circle cx="125" cy="140" r="2.0" fill="#4b8aa8" opacity="0.23"/>
  <circle cx="286" cy="268" r="3.1" fill="#bfe5d9" opacity="0.26"/>
  <circle cx="101" cy="216" r="2.4" fill="#ffb23f" opacity="0.12"/>
  <circle cx="169" cy="137" r="3.5" fill="#fffaf0" opacity="0.15"/>
  <circle cx="222" cy="204" r="2.8" fill="#4b8aa8" opacity="0.19"/>
  <circle cx="125" cy="264" r="2.1" fill="#bfe5d9" opacity="0.23"/>
  <circle cx="237" cy="36" r="3.2" fill="#ffb23f" opacity="0.26"/>
  <circle cx="169" cy="233" r="2.5" fill="#fffaf0" opacity="0.12"/>
  <circle cx="74" cy="216" r="1.8" fill="#4b8aa8" opacity="0.15"/>
  <circle cx="125" cy="234" r="2.9" fill="#bfe5d9" opacity="0.19"/>
  <circle cx="169" cy="127" r="2.2" fill="#ffb23f" opacity="0.23"/>
  <circle cx="209" cy="242" r="3.3" fill="#fffaf0" opacity="0.26"/>
  <circle cx="106" cy="42" r="2.6" fill="#4b8aa8" opacity="0.12"/>
  <circle cx="73" cy="111" r="1.9" fill="#bfe5d9" opacity="0.15"/>
  <circle cx="75" cy="30" r="3.0" fill="#ffb23f" opacity="0.19"/>
  <circle cx="236" cy="158" r="2.3" fill="#fffaf0" opacity="0.23"/>
  <circle cx="51" cy="106" r="3.4" fill="#4b8aa8" opacity="0.26"/>
  <circle cx="119" cy="27" r="2.7" fill="#bfe5d9" opacity="0.12"/>
  <circle cx="172" cy="94" r="2.0" fill="#ffb23f" opacity="0.15"/>
  <circle cx="75" cy="154" r="3.1" fill="#fffaf0" opacity="0.19"/>
  <circle cx="187" cy="210" r="2.4" fill="#4b8aa8" opacity="0.23"/>
  <circle cx="119" cy="123" r="3.5" fill="#bfe5d9" opacity="0.26"/>
  <circle cx="24" cy="106" r="2.8" fill="#ffb23f" opacity="0.12"/>
  <circle cx="75" cy="124" r="2.1" fill="#fffaf0" opacity="0.15"/>
  <circle cx="119" cy="301" r="3.2" fill="#4b8aa8" opacity="0.19"/>
  <circle cx="159" cy="132" r="2.5" fill="#bfe5d9" opacity="0.23"/>
  <circle cx="56" cy="216" r="1.8" fill="#ffb23f" opacity="0.26"/>
  <circle cx="23" cy="285" r="2.9" fill="#fffaf0" opacity="0.12"/>
  <circle cx="25" cy="204" r="2.2" fill="#4b8aa8" opacity="0.15"/>
  <circle cx="186" cy="48" r="3.3" fill="#bfe5d9" opacity="0.19"/>
  <circle cx="285" cy="280" r="2.6" fill="#ffb23f" opacity="0.23"/>
  <circle cx="69" cy="201" r="1.9" fill="#fffaf0" opacity="0.26"/>
  <circle cx="122" cy="268" r="3.0" fill="#4b8aa8" opacity="0.12"/>
  <circle cx="25" cy="44" r="2.3" fill="#bfe5d9" opacity="0.15"/>
  <circle cx="137" cy="100" r="3.4" fill="#ffb23f" opacity="0.19"/>
  <circle cx="69" cy="297" r="2.7" fill="#fffaf0" opacity="0.23"/>
  <circle cx="258" cy="280" r="2.0" fill="#4b8aa8" opacity="0.26"/>
  <circle cx="25" cy="298" r="3.1" fill="#bfe5d9" opacity="0.12"/>
  <circle cx="69" cy="191" r="2.4" fill="#ffb23f" opacity="0.15"/>
  <circle cx="109" cy="22" r="3.5" fill="#fffaf0" opacity="0.19"/>
  <circle cx="290" cy="106" r="2.8" fill="#4b8aa8" opacity="0.23"/>
  <circle cx="257" cy="175" r="2.1" fill="#bfe5d9" opacity="0.26"/>
  <circle cx="259" cy="94" r="3.2" fill="#ffb23f" opacity="0.12"/>
  <circle cx="136" cy="222" r="2.5" fill="#fffaf0" opacity="0.15"/>
  <circle cx="235" cy="170" r="1.8" fill="#4b8aa8" opacity="0.19"/>
  <circle cx="19" cy="91" r="2.9" fill="#bfe5d9" opacity="0.23"/>
  <circle cx="72" cy="158" r="2.2" fill="#ffb23f" opacity="0.26"/>
  <circle cx="259" cy="218" r="3.3" fill="#fffaf0" opacity="0.12"/>
  <circle cx="87" cy="274" r="2.6" fill="#4b8aa8" opacity="0.15"/>
  <circle cx="19" cy="187" r="1.9" fill="#bfe5d9" opacity="0.19"/>
  <circle cx="208" cy="170" r="3.0" fill="#ffb23f" opacity="0.23"/>
  <circle cx="259" cy="188" r="2.3" fill="#fffaf0" opacity="0.26"/>
  <circle cx="19" cy="81" r="3.4" fill="#4b8aa8" opacity="0.12"/>
  <circle cx="59" cy="196" r="2.7" fill="#bfe5d9" opacity="0.15"/>
  <circle cx="240" cy="280" r="2.0" fill="#ffb23f" opacity="0.19"/>
  <circle cx="207" cy="65" r="3.1" fill="#fffaf0" opacity="0.23"/>
  <circle cx="209" cy="268" r="2.4" fill="#4b8aa8" opacity="0.26"/>
  <circle cx="86" cy="112" r="3.5" fill="#bfe5d9" opacity="0.12"/>
  <circle cx="185" cy="60" r="2.8" fill="#ffb23f" opacity="0.15"/>
  <circle cx="253" cy="265" r="2.1" fill="#fffaf0" opacity="0.19"/>
  <circle cx="22" cy="48" r="3.2" fill="#4b8aa8" opacity="0.23"/>
  <circle cx="209" cy="108" r="2.5" fill="#bfe5d9" opacity="0.26"/>
  <circle cx="37" cy="164" r="1.8" fill="#ffb23f" opacity="0.12"/>
  <circle cx="253" cy="77" r="2.9" fill="#fffaf0" opacity="0.15"/>
  <circle cx="158" cy="60" r="2.2" fill="#4b8aa8" opacity="0.19"/>
  <circle cx="209" cy="78" r="3.3" fill="#bfe5d9" opacity="0.23"/>
  <circle cx="253" cy="255" r="2.6" fill="#ffb23f" opacity="0.26"/>
  <circle cx="293" cy="86" r="1.9" fill="#fffaf0" opacity="0.12"/>
  <circle cx="190" cy="170" r="3.0" fill="#4b8aa8" opacity="0.15"/>
  <circle cx="157" cy="239" r="2.3" fill="#bfe5d9" opacity="0.19"/>
  <circle cx="159" cy="158" r="3.4" fill="#ffb23f" opacity="0.23"/>
  <circle cx="36" cy="286" r="2.7" fill="#fffaf0" opacity="0.26"/>
  <circle cx="135" cy="234" r="2.0" fill="#4b8aa8" opacity="0.12"/>
  <circle cx="203" cy="155" r="3.1" fill="#bfe5d9" opacity="0.15"/>
  <circle cx="256" cy="222" r="2.4" fill="#ffb23f" opacity="0.19"/>
  <circle cx="159" cy="282" r="3.5" fill="#fffaf0" opacity="0.23"/>
  <circle cx="271" cy="54" r="2.8" fill="#4b8aa8" opacity="0.26"/>
  <circle cx="203" cy="251" r="2.1" fill="#bfe5d9" opacity="0.12"/>
  <circle cx="108" cy="234" r="3.2" fill="#ffb23f" opacity="0.15"/>
  <circle cx="159" cy="252" r="2.5" fill="#fffaf0" opacity="0.19"/>
  <circle cx="203" cy="145" r="1.8" fill="#4b8aa8" opacity="0.23"/>
  <circle cx="243" cy="260" r="2.9" fill="#bfe5d9" opacity="0.26"/>
  <circle cx="140" cy="60" r="2.2" fill="#ffb23f" opacity="0.12"/>
  <circle cx="107" cy="129" r="3.3" fill="#fffaf0" opacity="0.15"/>
  <circle cx="109" cy="48" r="2.6" fill="#4b8aa8" opacity="0.19"/>
  <circle cx="270" cy="176" r="1.9" fill="#bfe5d9" opacity="0.23"/>
  <circle cx="85" cy="124" r="3.0" fill="#ffb23f" opacity="0.26"/>
  <circle cx="153" cy="45" r="2.3" fill="#fffaf0" opacity="0.12"/>
  <circle cx="206" cy="112" r="3.4" fill="#4b8aa8" opacity="0.15"/>
  <circle cx="109" cy="172" r="2.7" fill="#bfe5d9" opacity="0.19"/>
  <circle cx="221" cy="228" r="2.0" fill="#ffb23f" opacity="0.23"/>
  <circle cx="153" cy="141" r="3.1" fill="#fffaf0" opacity="0.26"/>
  <circle cx="58" cy="124" r="2.4" fill="#4b8aa8" opacity="0.12"/>
  <circle cx="109" cy="142" r="3.5" fill="#bfe5d9" opacity="0.15"/>
  <circle cx="153" cy="35" r="2.8" fill="#ffb23f" opacity="0.19"/>
  <circle cx="193" cy="150" r="2.1" fill="#fffaf0" opacity="0.23"/>
  <circle cx="90" cy="234" r="3.2" fill="#4b8aa8" opacity="0.26"/>
  <circle cx="57" cy="19" r="2.5" fill="#bfe5d9" opacity="0.12"/>
  <circle cx="59" cy="222" r="1.8" fill="#ffb23f" opacity="0.15"/>
  <circle cx="220" cy="66" r="2.9" fill="#fffaf0" opacity="0.19"/>
  <circle cx="35" cy="298" r="2.2" fill="#4b8aa8" opacity="0.23"/>
  <circle cx="103" cy="219" r="3.3" fill="#bfe5d9" opacity="0.26"/>
  <circle cx="156" cy="286" r="2.6" fill="#ffb23f" opacity="0.12"/>
  <circle cx="59" cy="62" r="1.9" fill="#fffaf0" opacity="0.15"/>
  <circle cx="171" cy="118" r="3.0" fill="#4b8aa8" opacity="0.19"/>
  <circle cx="103" cy="31" r="2.3" fill="#bfe5d9" opacity="0.23"/>
  <circle cx="292" cy="298" r="3.4" fill="#ffb23f" opacity="0.26"/>
  <circle cx="59" cy="32" r="2.7" fill="#fffaf0" opacity="0.12"/>
  <circle cx="103" cy="209" r="2.0" fill="#4b8aa8" opacity="0.15"/>
  <circle cx="143" cy="40" r="3.1" fill="#bfe5d9" opacity="0.19"/>
  <circle cx="40" cy="124" r="2.4" fill="#ffb23f" opacity="0.23"/>
  <circle cx="291" cy="193" r="3.5" fill="#fffaf0" opacity="0.26"/>
  <circle cx="293" cy="112" r="2.8" fill="#4b8aa8" opacity="0.12"/>
  <circle cx="170" cy="240" r="2.1" fill="#bfe5d9" opacity="0.15"/>
  <circle cx="269" cy="188" r="3.2" fill="#ffb23f" opacity="0.19"/>
  <circle cx="53" cy="109" r="2.5" fill="#fffaf0" opacity="0.23"/>
  <circle cx="106" cy="176" r="1.8" fill="#4b8aa8" opacity="0.26"/>
  <circle cx="293" cy="236" r="2.9" fill="#bfe5d9" opacity="0.12"/>
  <circle cx="121" cy="292" r="2.2" fill="#ffb23f" opacity="0.15"/>
  <circle cx="53" cy="205" r="3.3" fill="#fffaf0" opacity="0.19"/>
  <path d="M44 42 C 106 24, 174 60, 276 42" fill="none" stroke="#2f6f88" stroke-width="1.4" stroke-linecap="round" opacity="0.11"/>
  <path d="M33 50 C 95 32, 185 68, 287 50" fill="none" stroke="#ffb23f" stroke-width="1.4" stroke-linecap="round" opacity="0.11"/>
  <path d="M50 58 C 112 40, 168 76, 270 58" fill="none" stroke="#2f6f88" stroke-width="1.4" stroke-linecap="round" opacity="0.11"/>
  <path d="M39 66 C 101 48, 179 84, 281 66" fill="none" stroke="#ffb23f" stroke-width="1.4" stroke-linecap="round" opacity="0.11"/>
  <path d="M28 74 C 90 56, 190 92, 292 74" fill="none" stroke="#2f6f88" stroke-width="1.4" stroke-linecap="round" opacity="0.11"/>
  <path d="M45 82 C 107 64, 173 100, 275 82" fill="none" stroke="#ffb23f" stroke-width="1.4" stroke-linecap="round" opacity="0.11"/>
  <path d="M34 90 C 96 72, 184 108, 286 90" fill="none" stroke="#2f6f88" stroke-width="1.4" stroke-linecap="round" opacity="0.11"/>
  <path d="M51 98 C 113 80, 167 116, 269 98" fill="none" stroke="#ffb23f" stroke-width="1.4" stroke-linecap="round" opacity="0.11"/>
  <path d="M40 106 C 102 88, 178 124, 280 106" fill="none" stroke="#2f6f88" stroke-width="1.4" stroke-linecap="round" opacity="0.11"/>
  <path d="M29 114 C 91 96, 189 132, 291 114" fill="none" stroke="#ffb23f" stroke-width="1.4" stroke-linecap="round" opacity="0.11"/>
  <path d="M46 122 C 108 104, 172 140, 274 122" fill="none" stroke="#2f6f88" stroke-width="1.4" stroke-linecap="round" opacity="0.11"/>
  <path d="M35 130 C 97 112, 183 148, 285 130" fill="none" stroke="#ffb23f" stroke-width="1.4" stroke-linecap="round" opacity="0.11"/>
  <path d="M52 138 C 114 120, 166 156, 268 138" fill="none" stroke="#2f6f88" stroke-width="1.4" stroke-linecap="round" opacity="0.11"/>
  <path d="M41 146 C 103 128, 177 164, 279 146" fill="none" stroke="#ffb23f" stroke-width="1.4" stroke-linecap="round" opacity="0.11"/>
  <path d="M30 154 C 92 136, 188 172, 290 154" fill="none" stroke="#2f6f88" stroke-width="1.4" stroke-linecap="round" opacity="0.11"/>
  <path d="M47 162 C 109 144, 171 180, 273 162" fill="none" stroke="#ffb23f" stroke-width="1.4" stroke-linecap="round" opacity="0.11"/>
  <path d="M36 170 C 98 152, 182 188, 284 170" fill="none" stroke="#2f6f88" stroke-width="1.4" stroke-linecap="round" opacity="0.11"/>
  <path d="M53 178 C 115 160, 165 196, 267 178" fill="none" stroke="#ffb23f" stroke-width="1.4" stroke-linecap="round" opacity="0.11"/>
  <path d="M42 186 C 104 168, 176 204, 278 186" fill="none" stroke="#2f6f88" stroke-width="1.4" stroke-linecap="round" opacity="0.11"/>
  <path d="M31 194 C 93 176, 187 212, 289 194" fill="none" stroke="#ffb23f" stroke-width="1.4" stroke-linecap="round" opacity="0.11"/>
  <path d="M48 202 C 110 184, 170 220, 272 202" fill="none" stroke="#2f6f88" stroke-width="1.4" stroke-linecap="round" opacity="0.11"/>
  <path d="M37 210 C 99 192, 181 228, 283 210" fill="none" stroke="#ffb23f" stroke-width="1.4" stroke-linecap="round" opacity="0.11"/>
  <path d="M54 218 C 116 200, 164 236, 266 218" fill="none" stroke="#2f6f88" stroke-width="1.4" stroke-linecap="round" opacity="0.11"/>
  <path d="M43 226 C 105 208, 175 244, 277 226" fill="none" stroke="#ffb23f" stroke-width="1.4" stroke-linecap="round" opacity="0.11"/>
  <path d="M32 234 C 94 216, 186 252, 288 234" fill="none" stroke="#2f6f88" stroke-width="1.4" stroke-linecap="round" opacity="0.11"/>
  <path d="M49 242 C 111 224, 169 260, 271 242" fill="none" stroke="#ffb23f" stroke-width="1.4" stroke-linecap="round" opacity="0.11"/>
  <path d="M38 250 C 100 232, 180 268, 282 250" fill="none" stroke="#2f6f88" stroke-width="1.4" stroke-linecap="round" opacity="0.11"/>
  <path d="M55 258 C 117 240, 163 276, 265 258" fill="none" stroke="#ffb23f" stroke-width="1.4" stroke-linecap="round" opacity="0.11"/>
  <path d="M44 266 C 106 248, 174 284, 276 266" fill="none" stroke="#2f6f88" stroke-width="1.4" stroke-linecap="round" opacity="0.11"/>
  <path d="M33 274 C 95 256, 185 292, 287 274" fill="none" stroke="#ffb23f" stroke-width="1.4" stroke-linecap="round" opacity="0.11"/>
  <path d="M50 282 C 112 264, 168 300, 270 282" fill="none" stroke="#2f6f88" stroke-width="1.4" stroke-linecap="round" opacity="0.11"/>
  <path d="M39 290 C 101 272, 179 308, 281 290" fill="none" stroke="#ffb23f" stroke-width="1.4" stroke-linecap="round" opacity="0.11"/>
  <path d="M28 298 C 90 280, 190 316, 292 298" fill="none" stroke="#2f6f88" stroke-width="1.4" stroke-linecap="round" opacity="0.11"/>
  <path d="M45 306 C 107 288, 173 324, 275 306" fill="none" stroke="#ffb23f" stroke-width="1.4" stroke-linecap="round" opacity="0.11"/>
  <path d="M34 314 C 96 296, 184 332, 286 314" fill="none" stroke="#2f6f88" stroke-width="1.4" stroke-linecap="round" opacity="0.11"/>
  <path d="M51 322 C 113 304, 167 340, 269 322" fill="none" stroke="#ffb23f" stroke-width="1.4" stroke-linecap="round" opacity="0.11"/>
  <path d="M40 330 C 102 312, 178 348, 280 330" fill="none" stroke="#2f6f88" stroke-width="1.4" stroke-linecap="round" opacity="0.11"/>
  <path d="M29 338 C 91 320, 189 356, 291 338" fill="none" stroke="#ffb23f" stroke-width="1.4" stroke-linecap="round" opacity="0.11"/>
  <path d="M46 346 C 108 328, 172 364, 274 346" fill="none" stroke="#2f6f88" stroke-width="1.4" stroke-linecap="round" opacity="0.11"/>
  <path d="M35 354 C 97 336, 183 372, 285 354" fill="none" stroke="#ffb23f" stroke-width="1.4" stroke-linecap="round" opacity="0.11"/>
  <path d="M52 362 C 114 344, 166 380, 268 362" fill="none" stroke="#2f6f88" stroke-width="1.4" stroke-linecap="round" opacity="0.11"/>
  <path d="M41 370 C 103 352, 177 388, 279 370" fill="none" stroke="#ffb23f" stroke-width="1.4" stroke-linecap="round" opacity="0.11"/>
  <path d="M30 378 C 92 360, 188 396, 290 378" fill="none" stroke="#2f6f88" stroke-width="1.4" stroke-linecap="round" opacity="0.11"/>
  <path d="M47 386 C 109 368, 171 404, 273 386" fill="none" stroke="#ffb23f" stroke-width="1.4" stroke-linecap="round" opacity="0.11"/>
  <path d="M36 394 C 98 376, 182 412, 284 394" fill="none" stroke="#2f6f88" stroke-width="1.4" stroke-linecap="round" opacity="0.11"/>
  <path d="M53 402 C 115 384, 165 420, 267 402" fill="none" stroke="#ffb23f" stroke-width="1.4" stroke-linecap="round" opacity="0.11"/>
  <path d="M42 410 C 104 392, 176 428, 278 410" fill="none" stroke="#2f6f88" stroke-width="1.4" stroke-linecap="round" opacity="0.11"/>
  <path d="M31 418 C 93 400, 187 436, 289 418" fill="none" stroke="#ffb23f" stroke-width="1.4" stroke-linecap="round" opacity="0.11"/>
  <path d="M48 426 C 110 408, 170 444, 272 426" fill="none" stroke="#2f6f88" stroke-width="1.4" stroke-linecap="round" opacity="0.11"/>
  <path d="M37 434 C 99 416, 181 452, 283 434" fill="none" stroke="#ffb23f" stroke-width="1.4" stroke-linecap="round" opacity="0.11"/>
  <path d="M54 442 C 116 424, 164 460, 266 442" fill="none" stroke="#2f6f88" stroke-width="1.4" stroke-linecap="round" opacity="0.11"/>
  <path d="M43 450 C 105 432, 175 468, 277 450" fill="none" stroke="#ffb23f" stroke-width="1.4" stroke-linecap="round" opacity="0.11"/>
  <path d="M32 458 C 94 440, 186 476, 288 458" fill="none" stroke="#2f6f88" stroke-width="1.4" stroke-linecap="round" opacity="0.11"/>
  <path d="M49 466 C 111 448, 169 484, 271 466" fill="none" stroke="#ffb23f" stroke-width="1.4" stroke-linecap="round" opacity="0.11"/>
  <path d="M38 474 C 100 456, 180 492, 282 474" fill="none" stroke="#2f6f88" stroke-width="1.4" stroke-linecap="round" opacity="0.11"/>
  <path d="M55 482 C 117 464, 163 500, 265 482" fill="none" stroke="#ffb23f" stroke-width="1.4" stroke-linecap="round" opacity="0.11"/>
  <path d="M44 490 C 106 472, 174 508, 276 490" fill="none" stroke="#2f6f88" stroke-width="1.4" stroke-linecap="round" opacity="0.11"/>
  <path d="M33 498 C 95 480, 185 516, 287 498" fill="none" stroke="#ffb23f" stroke-width="1.4" stroke-linecap="round" opacity="0.11"/>
  <path d="M50 506 C 112 488, 168 524, 270 506" fill="none" stroke="#2f6f88" stroke-width="1.4" stroke-linecap="round" opacity="0.11"/>
  <path d="M39 514 C 101 496, 179 532, 281 514" fill="none" stroke="#ffb23f" stroke-width="1.4" stroke-linecap="round" opacity="0.11"/>
  <path d="M28 522 C 90 504, 190 540, 292 522" fill="none" stroke="#2f6f88" stroke-width="1.4" stroke-linecap="round" opacity="0.11"/>
  <path d="M45 530 C 107 512, 173 548, 275 530" fill="none" stroke="#ffb23f" stroke-width="1.4" stroke-linecap="round" opacity="0.11"/>
  <path d="M34 538 C 96 520, 184 556, 286 538" fill="none" stroke="#2f6f88" stroke-width="1.4" stroke-linecap="round" opacity="0.11"/>
  <path d="M51 546 C 113 528, 167 564, 269 546" fill="none" stroke="#ffb23f" stroke-width="1.4" stroke-linecap="round" opacity="0.11"/>
  <path d="M40 554 C 102 536, 178 572, 280 554" fill="none" stroke="#2f6f88" stroke-width="1.4" stroke-linecap="round" opacity="0.11"/>
  <path d="M29 562 C 91 544, 189 580, 291 562" fill="none" stroke="#ffb23f" stroke-width="1.4" stroke-linecap="round" opacity="0.11"/>
  <path d="M46 570 C 108 552, 172 588, 274 570" fill="none" stroke="#2f6f88" stroke-width="1.4" stroke-linecap="round" opacity="0.11"/>
  <path d="M35 578 C 97 560, 183 596, 285 578" fill="none" stroke="#ffb23f" stroke-width="1.4" stroke-linecap="round" opacity="0.11"/>
  <path d="M52 586 C 114 568, 166 604, 268 586" fill="none" stroke="#2f6f88" stroke-width="1.4" stroke-linecap="round" opacity="0.11"/>
  <path d="M41 594 C 103 576, 177 612, 279 594" fill="none" stroke="#ffb23f" stroke-width="1.4" stroke-linecap="round" opacity="0.11"/>
  <path d="M30 602 C 92 584, 188 620, 290 602" fill="none" stroke="#2f6f88" stroke-width="1.4" stroke-linecap="round" opacity="0.11"/>
  <path d="M47 610 C 109 592, 171 628, 273 610" fill="none" stroke="#ffb23f" stroke-width="1.4" stroke-linecap="round" opacity="0.11"/>
  <path d="M36 618 C 98 600, 182 636, 284 618" fill="none" stroke="#2f6f88" stroke-width="1.4" stroke-linecap="round" opacity="0.11"/>
  <path d="M53 626 C 115 608, 165 644, 267 626" fill="none" stroke="#ffb23f" stroke-width="1.4" stroke-linecap="round" opacity="0.11"/>
  <path d="M42 634 C 104 616, 176 652, 278 634" fill="none" stroke="#2f6f88" stroke-width="1.4" stroke-linecap="round" opacity="0.11"/>
  <path d="M31 642 C 93 624, 187 660, 289 642" fill="none" stroke="#ffb23f" stroke-width="1.4" stroke-linecap="round" opacity="0.11"/>
  <path d="M48 650 C 110 632, 170 668, 272 650" fill="none" stroke="#2f6f88" stroke-width="1.4" stroke-linecap="round" opacity="0.11"/>
  <path d="M37 658 C 99 640, 181 676, 283 658" fill="none" stroke="#ffb23f" stroke-width="1.4" stroke-linecap="round" opacity="0.11"/>
  <path d="M54 666 C 116 648, 164 684, 266 666" fill="none" stroke="#2f6f88" stroke-width="1.4" stroke-linecap="round" opacity="0.11"/>
  <path d="M43 674 C 105 656, 175 692, 277 674" fill="none" stroke="#ffb23f" stroke-width="1.4" stroke-linecap="round" opacity="0.11"/>
  <path d="M32 682 C 94 664, 186 700, 288 682" fill="none" stroke="#2f6f88" stroke-width="1.4" stroke-linecap="round" opacity="0.11"/>
  <path d="M49 690 C 111 672, 169 708, 271 690" fill="none" stroke="#ffb23f" stroke-width="1.4" stroke-linecap="round" opacity="0.11"/>
  <path d="M38 698 C 100 680, 180 716, 282 698" fill="none" stroke="#2f6f88" stroke-width="1.4" stroke-linecap="round" opacity="0.11"/>
  <path d="M55 706 C 117 688, 163 724, 265 706" fill="none" stroke="#ffb23f" stroke-width="1.4" stroke-linecap="round" opacity="0.11"/>
</svg>
