<svg xmlns="http://www.w3.org/2000/svg" width="320" height="320" viewBox="0 0 320 320" role="img" aria-label="festival clap">
  <defs>
    <linearGradient id="bg-festival_clap" x1="36" y1="18" x2="284" y2="302" gradientUnits="userSpaceOnUse">
      <stop offset="0" stop-color="#fff3dc"/>
      <stop offset="0.42" stop-color="#ffd166"/>
      <stop offset="1" stop-color="#ff8a2a"/>
    </linearGradient>
    <linearGradient id="ink-festival_clap" x1="88" y1="66" x2="232" y2="248" gradientUnits="userSpaceOnUse">
      <stop offset="0" stop-color="#ff8a2a"/>
      <stop offset="1" stop-color="#7d583b"/>
    </linearGradient>
    <filter id="shadow-festival_clap" x="-20%" y="-20%" width="140%" height="140%">
      <feDropShadow dx="0" dy="12" stdDeviation="10" flood-color="#28322d" flood-opacity="0.18"/>
    </filter>
    <pattern id="grain-festival_clap" width="28" height="28" patternUnits="userSpaceOnUse">
      <path d="M0 20 C 9 12, 18 28, 28 16" fill="none" stroke="#7d583b" stroke-width="1" opacity="0.08"/>
      <circle cx="8" cy="8" r="1.5" fill="#ff8a2a" opacity="0.12"/>
      <circle cx="22" cy="21" r="1.2" fill="#3c8f72" opacity="0.12"/>
    </pattern>
  </defs>
  <rect x="16" y="16" width="288" height="288" rx="54" fill="url(#bg-festival_clap)" filter="url(#shadow-festival_clap)"/>
  <rect x="28" y="28" width="264" height="264" rx="44" fill="url(#grain-festival_clap)" opacity="0.9"/>
  <path d="M58 232 C 92 210, 130 220, 160 199 C 194 176, 238 178, 264 148 L264 262 L58 262 Z" fill="#3c8f72" opacity="0.16"/>
  <path d="M52 92 C 89 62, 137 68, 160 96 C 186 65, 237 62, 268 96" fill="none" stroke="#fff3dc" stroke-width="10" stroke-linecap="round" opacity="0.62"/>
  <g opacity="0.98">
    <ellipse cx="160" cy="168" rx="78" ry="58" fill="#7d583b" opacity="0.22"/>
    <ellipse cx="160" cy="156" rx="70" ry="52" fill="url(#ink-festival_clap)"/>
    <circle cx="122" cy="122" r="23" fill="#7d583b" opacity="0.28"/>
    <circle cx="198" cy="122" r="23" fill="#7d583b" opacity="0.28"/>
    <ellipse cx="160" cy="166" rx="44" ry="30" fill="#fff3dc" opacity="0.32"/>
    <circle cx="136" cy="152" r="7" fill="#28322d"/>
    <circle cx="184" cy="152" r="7" fill="#28322d"/>
    <ellipse cx="160" cy="174" rx="12" ry="8" fill="#28322d"/>
    <path d="M146 188 C 154 196, 166 196, 174 188" fill="none" stroke="#28322d" stroke-width="5" stroke-linecap="round"/>
  </g>
  <g transform="translate(214 200)">
    <circle cx="0" cy="0" r="34" fill="#ff8a2a"/>
    <path d="M-10 -25 C 0 -42, 22 -38, 22 -19 C 9 -22, -2 -15, -10 -25 Z" fill="#3c8f72"/>
    <circle cx="-8" cy="-6" r="4" fill="#fffaf0" opacity="0.72"/>
    <path d="M-20 8 C -2 18, 16 14, 24 -4" fill="none" stroke="#7d583b" stroke-width="4" stroke-linecap="round" opacity="0.24"/>
  </g>
  <g transform="translate(64 204)">
    <path d="M0 24 L32 0 L64 24 L52 24 L52 56 L12 56 L12 24 Z" fill="#fff3dc" opacity="0.86"/>
    <rect x="24" y="30" width="16" height="26" rx="5" fill="#7d583b" opacity="0.34"/>
  </g>
  <g transform="translate(58 54)">
    <rect x="0" y="0" width="204" height="42" rx="21" fill="#fffaf0" opacity="0.78"/>
    <circle cx="24" cy="21" r="11" fill="#ff8a2a" opacity="0.82"/>
    <path d="M42 18 L178 18" stroke="#7d583b" stroke-width="4" stroke-linecap="round" opacity="0.24"/>
    <path d="M42 28 L132 28" stroke="#7d583b" stroke-width="3" stroke-linecap="round" opacity="0.16"/>
  </g>
  <g transform="translate(252 48)">
    <circle cx="0" cy="0" r="26" fill="#fff3dc" opacity="0.9"/>
    <text x="0" y="8" text-anchor="middle" font-family="Inter, Arial, sans-serif" font-size="22" font-weight="900" fill="#7d583b">7</text>
  </g>
  <circle cx="122" cy="252" r="2.4" fill="#ff8a2a" opacity="0.12"/>
  <circle cx="107" cy="46" r="3.5" fill="#ffd166" opacity="0.15"/>
  <circle cx="260" cy="253" r="2.8" fill="#3c8f72" opacity="0.19"/>
  <circle cx="213" cy="241" r="2.1" fill="#fff3dc" opacity="0.23"/>
  <circle cx="66" cy="262" r="3.2" fill="#ff8a2a" opacity="0.26"/>
  <circle cx="153" cy="157" r="2.5" fill="#ffd166" opacity="0.12"/>
  <circle cx="215" cy="131" r="1.8" fill="#3c8f72" opacity="0.15"/>
  <circle cx="122" cy="286" r="2.9" fill="#fff3dc" opacity="0.19"/>
  <circle cx="94" cy="248" r="2.2" fill="#ff8a2a" opacity="0.23"/>
  <circle cx="99" cy="31" r="3.3" fill="#ffd166" opacity="0.26"/>
  <circle cx="262" cy="32" r="2.6" fill="#3c8f72" opacity="0.12"/>
  <circle cx="220" cy="201" r="1.9" fill="#fff3dc" opacity="0.15"/>
  <circle cx="75" cy="170" r="3.0" fill="#ff8a2a" opacity="0.19"/>
  <circle cx="21" cy="39" r="2.3" fill="#ffd166" opacity="0.23"/>
  <circle cx="72" cy="142" r="3.4" fill="#3c8f72" opacity="0.26"/>
  <circle cx="57" cy="220" r="2.7" fill="#fff3dc" opacity="0.12"/>
  <circle cx="210" cy="143" r="2.0" fill="#ff8a2a" opacity="0.15"/>
  <circle cx="163" cy="131" r="3.1" fill="#ffd166" opacity="0.19"/>
  <circle cx="300" cy="152" r="2.4" fill="#3c8f72" opacity="0.23"/>
  <circle cx="103" cy="47" r="3.5" fill="#fff3dc" opacity="0.26"/>
  <circle cx="165" cy="21" r="2.8" fill="#ff8a2a" opacity="0.12"/>
  <circle cx="72" cy="176" r="2.1" fill="#ffd166" opacity="0.15"/>
  <circle cx="44" cy="138" r="3.2" fill="#3c8f72" opacity="0.19"/>
  <circle cx="49" cy="205" r="2.5" fill="#fff3dc" opacity="0.23"/>
  <circle cx="212" cy="206" r="1.8" fill="#ff8a2a" opacity="0.26"/>
  <circle cx="170" cy="91" r="2.9" fill="#ffd166" opacity="0.12"/>
  <circle cx="25" cy="60" r="2.2" fill="#3c8f72" opacity="0.15"/>
  <circle cx="255" cy="213" r="3.3" fill="#fff3dc" opacity="0.19"/>
  <circle cx="22" cy="32" r="2.6" fill="#ff8a2a" opacity="0.23"/>
  <circle cx="291" cy="110" r="1.9" fill="#ffd166" opacity="0.26"/>
  <circle cx="160" cy="33" r="3.0" fill="#3c8f72" opacity="0.12"/>
  <circle cx="113" cy="21" r="2.3" fill="#fff3dc" opacity="0.15"/>
  <circle cx="250" cy="42" r="3.4" fill="#ff8a2a" opacity="0.19"/>
  <circle cx="53" cy="221" r="2.7" fill="#ffd166" opacity="0.23"/>
  <circle cx="115" cy="195" r="2.0" fill="#3c8f72" opacity="0.26"/>
  <circle cx="22" cy="66" r="3.1" fill="#fff3dc" opacity="0.12"/>
  <circle cx="278" cy="28" r="2.4" fill="#ff8a2a" opacity="0.15"/>
  <circle cx="283" cy="95" r="3.5" fill="#ffd166" opacity="0.19"/>
  <circle cx="162" cy="96" r="2.8" fill="#3c8f72" opacity="0.23"/>
  <circle cx="120" cy="265" r="2.1" fill="#fff3dc" opacity="0.26"/>
  <circle cx="259" cy="234" r="3.2" fill="#ff8a2a" opacity="0.12"/>
  <circle cx="205" cy="103" r="2.5" fill="#ffd166" opacity="0.15"/>
  <circle cx="256" cy="206" r="1.8" fill="#3c8f72" opacity="0.19"/>
  <circle cx="241" cy="284" r="2.9" fill="#fff3dc" opacity="0.23"/>
  <circle cx="110" cy="207" r="2.2" fill="#ff8a2a" opacity="0.26"/>
  <circle cx="63" cy="195" r="3.3" fill="#ffd166" opacity="0.12"/>
  <circle cx="200" cy="216" r="2.6" fill="#3c8f72" opacity="0.15"/>
  <circle cx="287" cy="111" r="1.9" fill="#fff3dc" opacity="0.19"/>
  <circle cx="65" cy="85" r="3.0" fill="#ff8a2a" opacity="0.23"/>
  <circle cx="256" cy="240" r="2.3" fill="#ffd166" opacity="0.26"/>
  <circle cx="228" cy="202" r="3.4" fill="#3c8f72" opacity="0.12"/>
  <circle cx="233" cy="269" r="2.7" fill="#fff3dc" opacity="0.15"/>
  <circle cx="112" cy="270" r="2.0" fill="#ff8a2a" opacity="0.19"/>
  <circle cx="70" cy="155" r="3.1" fill="#ffd166" opacity="0.23"/>
  <circle cx="209" cy="124" r="2.4" fill="#3c8f72" opacity="0.26"/>
  <circle cx="155" cy="277" r="3.5" fill="#fff3dc" opacity="0.12"/>
  <circle cx="206" cy="96" r="2.8" fill="#ff8a2a" opacity="0.15"/>
  <circle cx="191" cy="174" r="2.1" fill="#ffd166" opacity="0.19"/>
  <circle cx="60" cy="97" r="3.2" fill="#3c8f72" opacity="0.23"/>
  <circle cx="297" cy="85" r="2.5" fill="#fff3dc" opacity="0.26"/>
  <circle cx="150" cy="106" r="1.8" fill="#ff8a2a" opacity="0.12"/>
  <circle cx="237" cy="285" r="2.9" fill="#ffd166" opacity="0.15"/>
  <circle cx="299" cy="259" r="2.2" fill="#3c8f72" opacity="0.19"/>
  <circle cx="206" cy="130" r="3.3" fill="#fff3dc" opacity="0.23"/>
  <circle cx="178" cy="92" r="2.6" fill="#ff8a2a" opacity="0.26"/>
  <circle cx="183" cy="159" r="1.9" fill="#ffd166" opacity="0.12"/>
  <circle cx="62" cy="160" r="3.0" fill="#3c8f72" opacity="0.15"/>
  <circle cx="20" cy="45" r="2.3" fill="#fff3dc" opacity="0.19"/>
  <circle cx="159" cy="298" r="3.4" fill="#ff8a2a" opacity="0.23"/>
  <circle cx="105" cy="167" r="2.7" fill="#ffd166" opacity="0.26"/>
  <circle cx="156" cy="270" r="2.0" fill="#3c8f72" opacity="0.12"/>
  <circle cx="141" cy="64" r="3.1" fill="#fff3dc" opacity="0.15"/>
  <circle cx="294" cy="271" r="2.4" fill="#ff8a2a" opacity="0.19"/>
  <circle cx="247" cy="259" r="3.5" fill="#ffd166" opacity="0.23"/>
  <circle cx="100" cy="280" r="2.8" fill="#3c8f72" opacity="0.26"/>
  <circle cx="187" cy="175" r="2.1" fill="#fff3dc" opacity="0.12"/>
  <path d="M48 42 C 110 24, 170 60, 272 42" fill="none" stroke="#7d583b" stroke-width="1.4" stroke-linecap="round" opacity="0.11"/>
  <path d="M37 50 C 99 32, 181 68, 283 50" fill="none" stroke="#3c8f72" stroke-width="1.4" stroke-linecap="round" opacity="0.11"/>
  <path d="M54 58 C 116 40, 164 76, 266 58" fill="none" stroke="#7d583b" stroke-width="1.4" stroke-linecap="round" opacity="0.11"/>
  <path d="M43 66 C 105 48, 175 84, 277 66" fill="none" stroke="#3c8f72" stroke-width="1.4" stroke-linecap="round" opacity="0.11"/>
  <path d="M32 74 C 94 56, 186 92, 288 74" fill="none" stroke="#7d583b" stroke-width="1.4" stroke-linecap="round" opacity="0.11"/>
  <path d="M49 82 C 111 64, 169 100, 271 82" fill="none" stroke="#3c8f72" stroke-width="1.4" stroke-linecap="round" opacity="0.11"/>
  <path d="M38 90 C 100 72, 180 108, 282 90" fill="none" stroke="#7d583b" stroke-width="1.4" stroke-linecap="round" opacity="0.11"/>
  <path d="M55 98 C 117 80, 163 116, 265 98" fill="none" stroke="#3c8f72" stroke-width="1.4" stroke-linecap="round" opacity="0.11"/>
  <path d="M44 106 C 106 88, 174 124, 276 106" fill="none" stroke="#7d583b" stroke-width="1.4" stroke-linecap="round" opacity="0.11"/>
  <path d="M33 114 C 95 96, 185 132, 287 114" fill="none" stroke="#3c8f72" stroke-width="1.4" stroke-linecap="round" opacity="0.11"/>
  <path d="M50 122 C 112 104, 168 140, 270 122" fill="none" stroke="#7d583b" stroke-width="1.4" stroke-linecap="round" opacity="0.11"/>
  <path d="M39 130 C 101 112, 179 148, 281 130" fill="none" stroke="#3c8f72" stroke-width="1.4" stroke-linecap="round" opacity="0.11"/>
  <path d="M28 138 C 90 120, 190 156, 292 138" fill="none" stroke="#7d583b" stroke-width="1.4" stroke-linecap="round" opacity="0.11"/>
  <path d="M45 146 C 107 128, 173 164, 275 146" fill="none" stroke="#3c8f72" stroke-width="1.4" stroke-linecap="round" opacity="0.11"/>
  <path d="M34 154 C 96 136, 184 172, 286 154" fill="none" stroke="#7d583b" stroke-width="1.4" stroke-linecap="round" opacity="0.11"/>
  <path d="M51 162 C 113 144, 167 180, 269 162" fill="none" stroke="#3c8f72" stroke-width="1.4" stroke-linecap="round" opacity="0.11"/>
  <path d="M40 170 C 102 152, 178 188, 280 170" fill="none" stroke="#7d583b" stroke-width="1.4" stroke-linecap="round" opacity="0.11"/>
  <path d="M29 178 C 91 160, 189 196, 291 178" fill="none" stroke="#3c8f72" stroke-width="1.4" stroke-linecap="round" opacity="0.11"/>
  <path d="M46 186 C 108 168, 172 204, 274 186" fill="none" stroke="#7d583b" stroke-width="1.4" stroke-linecap="round" opacity="0.11"/>
  <path d="M35 194 C 97 176, 183 212, 285 194" fill="none" stroke="#3c8f72" stroke-width="1.4" stroke-linecap="round" opacity="0.11"/>
  <path d="M52 202 C 114 184, 166 220, 268 202" fill="none" stroke="#7d583b" stroke-width="1.4" stroke-linecap="round" opacity="0.11"/>
  <path d="M41 210 C 103 192, 177 228, 279 210" fill="none" stroke="#3c8f72" stroke-width="1.4" stroke-linecap="round" opacity="0.11"/>
  <path d="M30 218 C 92 200, 188 236, 290 218" fill="none" stroke="#7d583b" stroke-width="1.4" stroke-linecap="round" opacity="0.11"/>
  <path d="M47 226 C 109 208, 171 244, 273 226" fill="none" stroke="#3c8f72" stroke-width="1.4" stroke-linecap="round" opacity="0.11"/>
  <path d="M36 234 C 98 216, 182 252, 284 234" fill="none" stroke="#7d583b" stroke-width="1.4" stroke-linecap="round" opacity="0.11"/>
  <path d="M53 242 C 115 224, 165 260, 267 242" fill="none" stroke="#3c8f72" stroke-width="1.4" stroke-linecap="round" opacity="0.11"/>
  <path d="M42 250 C 104 232, 176 268, 278 250" fill="none" stroke="#7d583b" stroke-width="1.4" stroke-linecap="round" opacity="0.11"/>
  <path d="M31 258 C 93 240, 187 276, 289 258" fill="none" stroke="#3c8f72" stroke-width="1.4" stroke-linecap="round" opacity="0.11"/>
  <path d="M48 266 C 110 248, 170 284, 272 266" fill="none" stroke="#7d583b" stroke-width="1.4" stroke-linecap="round" opacity="0.11"/>
  <path d="M37 274 C 99 256, 181 292, 283 274" fill="none" stroke="#3c8f72" stroke-width="1.4" stroke-linecap="round" opacity="0.11"/>
  <path d="M54 282 C 116 264, 164 300, 266 282" fill="none" stroke="#7d583b" stroke-width="1.4" stroke-linecap="round" opacity="0.11"/>
  <path d="M43 290 C 105 272, 175 308, 277 290" fill="none" stroke="#3c8f72" stroke-width="1.4" stroke-linecap="round" opacity="0.11"/>
  <path d="M32 298 C 94 280, 186 316, 288 298" fill="none" stroke="#7d583b" stroke-width="1.4" stroke-linecap="round" opacity="0.11"/>
  <path d="M49 306 C 111 288, 169 324, 271 306" fill="none" stroke="#3c8f72" stroke-width="1.4" stroke-linecap="round" opacity="0.11"/>
  <path d="M38 314 C 100 296, 180 332, 282 314" fill="none" stroke="#7d583b" stroke-width="1.4" stroke-linecap="round" opacity="0.11"/>
  <path d="M55 322 C 117 304, 163 340, 265 322" fill="none" stroke="#3c8f72" stroke-width="1.4" stroke-linecap="round" opacity="0.11"/>
  <path d="M44 330 C 106 312, 174 348, 276 330" fill="none" stroke="#7d583b" stroke-width="1.4" stroke-linecap="round" opacity="0.11"/>
  <path d="M33 338 C 95 320, 185 356, 287 338" fill="none" stroke="#3c8f72" stroke-width="1.4" stroke-linecap="round" opacity="0.11"/>
  <g transform="translate(40 258)">
    <rect x="0" y="0" width="240" height="34" rx="17" fill="#fffaf0" opacity="0.78"/>
    <text x="120" y="23" text-anchor="middle" font-family="Inter, Arial, sans-serif" font-size="16" font-weight="900" fill="#7d583b">festival c</text>
  </g>
</svg>
