<svg xmlns="http://www.w3.org/2000/svg" width="320" height="320" viewBox="0 0 320 320" role="img" aria-label="generator suite 20">
  <defs>
    <linearGradient id="bg-generator_suite_20" x1="36" y1="18" x2="284" y2="302" gradientUnits="userSpaceOnUse">
      <stop offset="0" stop-color="#fff3dc"/>
      <stop offset="0.42" stop-color="#ffd166"/>
      <stop offset="1" stop-color="#ff8a2a"/>
    </linearGradient>
    <linearGradient id="ink-generator_suite_20" x1="88" y1="66" x2="232" y2="248" gradientUnits="userSpaceOnUse">
      <stop offset="0" stop-color="#ff8a2a"/>
      <stop offset="1" stop-color="#7d583b"/>
    </linearGradient>
    <filter id="shadow-generator_suite_20" x="-20%" y="-20%" width="140%" height="140%">
      <feDropShadow dx="0" dy="12" stdDeviation="10" flood-color="#28322d" flood-opacity="0.18"/>
    </filter>
    <pattern id="grain-generator_suite_20" width="28" height="28" patternUnits="userSpaceOnUse">
      <path d="M0 20 C 9 12, 18 28, 28 16" fill="none" stroke="#7d583b" stroke-width="1" opacity="0.08"/>
      <circle cx="8" cy="8" r="1.5" fill="#ff8a2a" opacity="0.12"/>
      <circle cx="22" cy="21" r="1.2" fill="#3c8f72" opacity="0.12"/>
    </pattern>
  </defs>
  <rect x="16" y="16" width="288" height="288" rx="54" fill="url(#bg-generator_suite_20)" filter="url(#shadow-generator_suite_20)"/>
  <rect x="28" y="28" width="264" height="264" rx="44" fill="url(#grain-generator_suite_20)" opacity="0.9"/>
  <path d="M58 232 C 92 210, 130 220, 160 199 C 194 176, 238 178, 264 148 L264 262 L58 262 Z" fill="#3c8f72" opacity="0.16"/>
  <path d="M52 92 C 89 62, 137 68, 160 96 C 186 65, 237 62, 268 96" fill="none" stroke="#fff3dc" stroke-width="10" stroke-linecap="round" opacity="0.62"/>
  <g opacity="0.98">
    <ellipse cx="160" cy="168" rx="78" ry="58" fill="#7d583b" opacity="0.22"/>
    <ellipse cx="160" cy="156" rx="70" ry="52" fill="url(#ink-generator_suite_20)"/>
    <circle cx="122" cy="122" r="23" fill="#7d583b" opacity="0.28"/>
    <circle cx="198" cy="122" r="23" fill="#7d583b" opacity="0.28"/>
    <ellipse cx="160" cy="166" rx="44" ry="30" fill="#fff3dc" opacity="0.32"/>
    <circle cx="136" cy="152" r="7" fill="#28322d"/>
    <circle cx="184" cy="152" r="7" fill="#28322d"/>
    <ellipse cx="160" cy="174" rx="12" ry="8" fill="#28322d"/>
    <path d="M146 188 C 154 196, 166 196, 174 188" fill="none" stroke="#28322d" stroke-width="5" stroke-linecap="round"/>
  </g>
  <g transform="translate(214 200)">
    <circle cx="0" cy="0" r="34" fill="#ff8a2a"/>
    <path d="M-10 -25 C 0 -42, 22 -38, 22 -19 C 9 -22, -2 -15, -10 -25 Z" fill="#3c8f72"/>
    <circle cx="-8" cy="-6" r="4" fill="#fffaf0" opacity="0.72"/>
    <path d="M-20 8 C -2 18, 16 14, 24 -4" fill="none" stroke="#7d583b" stroke-width="4" stroke-linecap="round" opacity="0.24"/>
  </g>
  <g transform="translate(64 204)">
    <path d="M0 24 L32 0 L64 24 L52 24 L52 56 L12 56 L12 24 Z" fill="#fff3dc" opacity="0.86"/>
    <rect x="24" y="30" width="16" height="26" rx="5" fill="#7d583b" opacity="0.34"/>
  </g>
  <g transform="translate(58 54)">
    <rect x="0" y="0" width="204" height="42" rx="21" fill="#fffaf0" opacity="0.78"/>
    <circle cx="24" cy="21" r="11" fill="#ff8a2a" opacity="0.82"/>
    <path d="M42 18 L178 18" stroke="#7d583b" stroke-width="4" stroke-linecap="round" opacity="0.24"/>
    <path d="M42 28 L132 28" stroke="#7d583b" stroke-width="3" stroke-linecap="round" opacity="0.16"/>
  </g>
  <g transform="translate(252 48)">
    <circle cx="0" cy="0" r="26" fill="#fff3dc" opacity="0.9"/>
    <text x="0" y="8" text-anchor="middle" font-family="Inter, Arial, sans-serif" font-size="22" font-weight="900" fill="#7d583b">6</text>
  </g>
  <circle cx="178" cy="236" r="3.2" fill="#ff8a2a" opacity="0.12"/>
  <circle cx="135" cy="38" r="2.5" fill="#ffd166" opacity="0.15"/>
  <circle cx="132" cy="107" r="1.8" fill="#3c8f72" opacity="0.19"/>
  <circle cx="149" cy="26" r="2.9" fill="#fff3dc" opacity="0.23"/>
  <circle cx="34" cy="296" r="2.2" fill="#ff8a2a" opacity="0.26"/>
  <circle cx="137" cy="32" r="3.3" fill="#ffd166" opacity="0.12"/>
  <circle cx="207" cy="68" r="2.6" fill="#3c8f72" opacity="0.15"/>
  <circle cx="260" cy="255" r="1.9" fill="#fff3dc" opacity="0.19"/>
  <circle cx="163" cy="91" r="3.0" fill="#ff8a2a" opacity="0.23"/>
  <circle cx="133" cy="87" r="2.3" fill="#ffd166" opacity="0.26"/>
  <circle cx="137" cy="60" r="3.4" fill="#3c8f72" opacity="0.12"/>
  <circle cx="157" cy="73" r="2.7" fill="#fff3dc" opacity="0.15"/>
  <circle cx="44" cy="106" r="2.0" fill="#ff8a2a" opacity="0.19"/>
  <circle cx="148" cy="291" r="3.1" fill="#ffd166" opacity="0.23"/>
  <circle cx="128" cy="126" r="2.4" fill="#3c8f72" opacity="0.26"/>
  <circle cx="85" cy="212" r="3.5" fill="#fff3dc" opacity="0.12"/>
  <circle cx="82" cy="281" r="2.8" fill="#ff8a2a" opacity="0.15"/>
  <circle cx="99" cy="200" r="2.1" fill="#ffd166" opacity="0.19"/>
  <circle cx="268" cy="186" r="3.2" fill="#3c8f72" opacity="0.23"/>
  <circle cx="87" cy="206" r="2.5" fill="#fff3dc" opacity="0.26"/>
  <circle cx="157" cy="242" r="1.8" fill="#ff8a2a" opacity="0.12"/>
  <circle cx="210" cy="145" r="2.9" fill="#ffd166" opacity="0.15"/>
  <circle cx="113" cy="265" r="2.2" fill="#3c8f72" opacity="0.19"/>
  <circle cx="83" cy="261" r="3.3" fill="#fff3dc" opacity="0.23"/>
  <circle cx="87" cy="234" r="2.6" fill="#ff8a2a" opacity="0.26"/>
  <circle cx="107" cy="247" r="1.9" fill="#ffd166" opacity="0.12"/>
  <circle cx="278" cy="280" r="3.0" fill="#3c8f72" opacity="0.15"/>
  <circle cx="98" cy="181" r="2.3" fill="#fff3dc" opacity="0.19"/>
  <circle cx="78" cy="300" r="3.4" fill="#ff8a2a" opacity="0.23"/>
  <circle cx="35" cy="102" r="2.7" fill="#ffd166" opacity="0.26"/>
  <circle cx="32" cy="171" r="2.0" fill="#3c8f72" opacity="0.12"/>
  <circle cx="49" cy="90" r="3.1" fill="#fff3dc" opacity="0.15"/>
  <circle cx="218" cy="76" r="2.4" fill="#ff8a2a" opacity="0.19"/>
  <circle cx="37" cy="96" r="3.5" fill="#ffd166" opacity="0.23"/>
  <circle cx="107" cy="132" r="2.8" fill="#3c8f72" opacity="0.26"/>
  <circle cx="160" cy="35" r="2.1" fill="#fff3dc" opacity="0.12"/>
  <circle cx="63" cy="155" r="3.2" fill="#ff8a2a" opacity="0.15"/>
  <circle cx="33" cy="151" r="2.5" fill="#ffd166" opacity="0.19"/>
  <circle cx="37" cy="124" r="1.8" fill="#3c8f72" opacity="0.23"/>
  <circle cx="57" cy="137" r="2.9" fill="#fff3dc" opacity="0.26"/>
  <circle cx="228" cy="170" r="2.2" fill="#ff8a2a" opacity="0.12"/>
  <circle cx="48" cy="71" r="3.3" fill="#ffd166" opacity="0.15"/>
  <circle cx="28" cy="190" r="2.6" fill="#3c8f72" opacity="0.19"/>
  <circle cx="269" cy="276" r="1.9" fill="#fff3dc" opacity="0.23"/>
  <circle cx="266" cy="61" r="3.0" fill="#ff8a2a" opacity="0.26"/>
  <circle cx="283" cy="264" r="2.3" fill="#ffd166" opacity="0.12"/>
  <circle cx="168" cy="250" r="3.4" fill="#3c8f72" opacity="0.15"/>
  <circle cx="271" cy="270" r="2.7" fill="#fff3dc" opacity="0.19"/>
  <circle cx="57" cy="22" r="2.0" fill="#ff8a2a" opacity="0.23"/>
  <circle cx="110" cy="209" r="3.1" fill="#ffd166" opacity="0.26"/>
  <circle cx="297" cy="45" r="2.4" fill="#3c8f72" opacity="0.12"/>
  <circle cx="267" cy="41" r="3.5" fill="#fff3dc" opacity="0.15"/>
  <circle cx="271" cy="298" r="2.8" fill="#ff8a2a" opacity="0.19"/>
  <circle cx="291" cy="27" r="2.1" fill="#ffd166" opacity="0.23"/>
  <circle cx="178" cy="60" r="3.2" fill="#3c8f72" opacity="0.26"/>
  <circle cx="282" cy="245" r="2.5" fill="#fff3dc" opacity="0.12"/>
  <circle cx="262" cy="80" r="1.8" fill="#ff8a2a" opacity="0.15"/>
  <circle cx="219" cy="166" r="2.9" fill="#ffd166" opacity="0.19"/>
  <circle cx="216" cy="235" r="2.2" fill="#3c8f72" opacity="0.23"/>
  <circle cx="233" cy="154" r="3.3" fill="#fff3dc" opacity="0.26"/>
  <circle cx="118" cy="140" r="2.6" fill="#ff8a2a" opacity="0.12"/>
  <circle cx="221" cy="160" r="1.9" fill="#ffd166" opacity="0.15"/>
  <circle cx="291" cy="196" r="3.0" fill="#3c8f72" opacity="0.19"/>
  <circle cx="60" cy="99" r="2.3" fill="#fff3dc" opacity="0.23"/>
  <circle cx="247" cy="219" r="3.4" fill="#ff8a2a" opacity="0.26"/>
  <circle cx="217" cy="215" r="2.7" fill="#ffd166" opacity="0.12"/>
  <circle cx="221" cy="188" r="2.0" fill="#3c8f72" opacity="0.15"/>
  <circle cx="241" cy="201" r="3.1" fill="#fff3dc" opacity="0.19"/>
  <circle cx="128" cy="234" r="2.4" fill="#ff8a2a" opacity="0.23"/>
  <circle cx="232" cy="135" r="3.5" fill="#ffd166" opacity="0.26"/>
  <circle cx="212" cy="254" r="2.8" fill="#3c8f72" opacity="0.12"/>
  <circle cx="169" cy="56" r="2.1" fill="#fff3dc" opacity="0.15"/>
  <circle cx="166" cy="125" r="3.2" fill="#ff8a2a" opacity="0.19"/>
  <circle cx="183" cy="44" r="2.5" fill="#ffd166" opacity="0.23"/>
  <circle cx="68" cy="30" r="1.8" fill="#3c8f72" opacity="0.26"/>
  <circle cx="171" cy="50" r="2.9" fill="#fff3dc" opacity="0.12"/>
  <path d="M36 42 C 98 24, 182 60, 284 42" fill="none" stroke="#7d583b" stroke-width="1.4" stroke-linecap="round" opacity="0.11"/>
  <path d="M53 50 C 115 32, 165 68, 267 50" fill="none" stroke="#3c8f72" stroke-width="1.4" stroke-linecap="round" opacity="0.11"/>
  <path d="M42 58 C 104 40, 176 76, 278 58" fill="none" stroke="#7d583b" stroke-width="1.4" stroke-linecap="round" opacity="0.11"/>
  <path d="M31 66 C 93 48, 187 84, 289 66" fill="none" stroke="#3c8f72" stroke-width="1.4" stroke-linecap="round" opacity="0.11"/>
  <path d="M48 74 C 110 56, 170 92, 272 74" fill="none" stroke="#7d583b" stroke-width="1.4" stroke-linecap="round" opacity="0.11"/>
  <path d="M37 82 C 99 64, 181 100, 283 82" fill="none" stroke="#3c8f72" stroke-width="1.4" stroke-linecap="round" opacity="0.11"/>
  <path d="M54 90 C 116 72, 164 108, 266 90" fill="none" stroke="#7d583b" stroke-width="1.4" stroke-linecap="round" opacity="0.11"/>
  <path d="M43 98 C 105 80, 175 116, 277 98" fill="none" stroke="#3c8f72" stroke-width="1.4" stroke-linecap="round" opacity="0.11"/>
  <path d="M32 106 C 94 88, 186 124, 288 106" fill="none" stroke="#7d583b" stroke-width="1.4" stroke-linecap="round" opacity="0.11"/>
  <path d="M49 114 C 111 96, 169 132, 271 114" fill="none" stroke="#3c8f72" stroke-width="1.4" stroke-linecap="round" opacity="0.11"/>
  <path d="M38 122 C 100 104, 180 140, 282 122" fill="none" stroke="#7d583b" stroke-width="1.4" stroke-linecap="round" opacity="0.11"/>
  <path d="M55 130 C 117 112, 163 148, 265 130" fill="none" stroke="#3c8f72" stroke-width="1.4" stroke-linecap="round" opacity="0.11"/>
  <path d="M44 138 C 106 120, 174 156, 276 138" fill="none" stroke="#7d583b" stroke-width="1.4" stroke-linecap="round" opacity="0.11"/>
  <path d="M33 146 C 95 128, 185 164, 287 146" fill="none" stroke="#3c8f72" stroke-width="1.4" stroke-linecap="round" opacity="0.11"/>
  <path d="M50 154 C 112 136, 168 172, 270 154" fill="none" stroke="#7d583b" stroke-width="1.4" stroke-linecap="round" opacity="0.11"/>
  <path d="M39 162 C 101 144, 179 180, 281 162" fill="none" stroke="#3c8f72" stroke-width="1.4" stroke-linecap="round" opacity="0.11"/>
  <path d="M28 170 C 90 152, 190 188, 292 170" fill="none" stroke="#7d583b" stroke-width="1.4" stroke-linecap="round" opacity="0.11"/>
  <path d="M45 178 C 107 160, 173 196, 275 178" fill="none" stroke="#3c8f72" stroke-width="1.4" stroke-linecap="round" opacity="0.11"/>
  <path d="M34 186 C 96 168, 184 204, 286 186" fill="none" stroke="#7d583b" stroke-width="1.4" stroke-linecap="round" opacity="0.11"/>
  <path d="M51 194 C 113 176, 167 212, 269 194" fill="none" stroke="#3c8f72" stroke-width="1.4" stroke-linecap="round" opacity="0.11"/>
  <path d="M40 202 C 102 184, 178 220, 280 202" fill="none" stroke="#7d583b" stroke-width="1.4" stroke-linecap="round" opacity="0.11"/>
  <path d="M29 210 C 91 192, 189 228, 291 210" fill="none" stroke="#3c8f72" stroke-width="1.4" stroke-linecap="round" opacity="0.11"/>
  <path d="M46 218 C 108 200, 172 236, 274 218" fill="none" stroke="#7d583b" stroke-width="1.4" stroke-linecap="round" opacity="0.11"/>
  <path d="M35 226 C 97 208, 183 244, 285 226" fill="none" stroke="#3c8f72" stroke-width="1.4" stroke-linecap="round" opacity="0.11"/>
  <path d="M52 234 C 114 216, 166 252, 268 234" fill="none" stroke="#7d583b" stroke-width="1.4" stroke-linecap="round" opacity="0.11"/>
  <path d="M41 242 C 103 224, 177 260, 279 242" fill="none" stroke="#3c8f72" stroke-width="1.4" stroke-linecap="round" opacity="0.11"/>
  <path d="M30 250 C 92 232, 188 268, 290 250" fill="none" stroke="#7d583b" stroke-width="1.4" stroke-linecap="round" opacity="0.11"/>
  <path d="M47 258 C 109 240, 171 276, 273 258" fill="none" stroke="#3c8f72" stroke-width="1.4" stroke-linecap="round" opacity="0.11"/>
  <path d="M36 266 C 98 248, 182 284, 284 266" fill="none" stroke="#7d583b" stroke-width="1.4" stroke-linecap="round" opacity="0.11"/>
  <path d="M53 274 C 115 256, 165 292, 267 274" fill="none" stroke="#3c8f72" stroke-width="1.4" stroke-linecap="round" opacity="0.11"/>
  <path d="M42 282 C 104 264, 176 300, 278 282" fill="none" stroke="#7d583b" stroke-width="1.4" stroke-linecap="round" opacity="0.11"/>
  <path d="M31 290 C 93 272, 187 308, 289 290" fill="none" stroke="#3c8f72" stroke-width="1.4" stroke-linecap="round" opacity="0.11"/>
  <path d="M48 298 C 110 280, 170 316, 272 298" fill="none" stroke="#7d583b" stroke-width="1.4" stroke-linecap="round" opacity="0.11"/>
  <path d="M37 306 C 99 288, 181 324, 283 306" fill="none" stroke="#3c8f72" stroke-width="1.4" stroke-linecap="round" opacity="0.11"/>
  <path d="M54 314 C 116 296, 164 332, 266 314" fill="none" stroke="#7d583b" stroke-width="1.4" stroke-linecap="round" opacity="0.11"/>
  <path d="M43 322 C 105 304, 175 340, 277 322" fill="none" stroke="#3c8f72" stroke-width="1.4" stroke-linecap="round" opacity="0.11"/>
  <path d="M32 330 C 94 312, 186 348, 288 330" fill="none" stroke="#7d583b" stroke-width="1.4" stroke-linecap="round" opacity="0.11"/>
  <path d="M49 338 C 111 320, 169 356, 271 338" fill="none" stroke="#3c8f72" stroke-width="1.4" stroke-linecap="round" opacity="0.11"/>
  <g transform="translate(40 258)">
    <rect x="0" y="0" width="240" height="34" rx="17" fill="#fffaf0" opacity="0.78"/>
    <text x="120" y="23" text-anchor="middle" font-family="Inter, Arial, sans-serif" font-size="16" font-weight="900" fill="#7d583b">generator </text>
  </g>
</svg>
