<svg xmlns="http://www.w3.org/2000/svg" width="320" height="320" viewBox="0 0 320 320" role="img" aria-label="hundred taps">
  <defs>
    <linearGradient id="bg-hundred_taps" x1="36" y1="18" x2="284" y2="302" gradientUnits="userSpaceOnUse">
      <stop offset="0" stop-color="#fff3dc"/>
      <stop offset="0.42" stop-color="#ffd166"/>
      <stop offset="1" stop-color="#ff8a2a"/>
    </linearGradient>
    <linearGradient id="ink-hundred_taps" x1="88" y1="66" x2="232" y2="248" gradientUnits="userSpaceOnUse">
      <stop offset="0" stop-color="#ff8a2a"/>
      <stop offset="1" stop-color="#7d583b"/>
    </linearGradient>
    <filter id="shadow-hundred_taps" x="-20%" y="-20%" width="140%" height="140%">
      <feDropShadow dx="0" dy="12" stdDeviation="10" flood-color="#28322d" flood-opacity="0.18"/>
    </filter>
    <pattern id="grain-hundred_taps" width="28" height="28" patternUnits="userSpaceOnUse">
      <path d="M0 20 C 9 12, 18 28, 28 16" fill="none" stroke="#7d583b" stroke-width="1" opacity="0.08"/>
      <circle cx="8" cy="8" r="1.5" fill="#ff8a2a" opacity="0.12"/>
      <circle cx="22" cy="21" r="1.2" fill="#3c8f72" opacity="0.12"/>
    </pattern>
  </defs>
  <rect x="16" y="16" width="288" height="288" rx="54" fill="url(#bg-hundred_taps)" filter="url(#shadow-hundred_taps)"/>
  <rect x="28" y="28" width="264" height="264" rx="44" fill="url(#grain-hundred_taps)" opacity="0.9"/>
  <path d="M58 232 C 92 210, 130 220, 160 199 C 194 176, 238 178, 264 148 L264 262 L58 262 Z" fill="#3c8f72" opacity="0.16"/>
  <path d="M52 92 C 89 62, 137 68, 160 96 C 186 65, 237 62, 268 96" fill="none" stroke="#fff3dc" stroke-width="10" stroke-linecap="round" opacity="0.62"/>
  <g opacity="0.98">
    <ellipse cx="160" cy="168" rx="78" ry="58" fill="#7d583b" opacity="0.22"/>
    <ellipse cx="160" cy="156" rx="70" ry="52" fill="url(#ink-hundred_taps)"/>
    <circle cx="122" cy="122" r="23" fill="#7d583b" opacity="0.28"/>
    <circle cx="198" cy="122" r="23" fill="#7d583b" opacity="0.28"/>
    <ellipse cx="160" cy="166" rx="44" ry="30" fill="#fff3dc" opacity="0.32"/>
    <circle cx="136" cy="152" r="7" fill="#28322d"/>
    <circle cx="184" cy="152" r="7" fill="#28322d"/>
    <ellipse cx="160" cy="174" rx="12" ry="8" fill="#28322d"/>
    <path d="M146 188 C 154 196, 166 196, 174 188" fill="none" stroke="#28322d" stroke-width="5" stroke-linecap="round"/>
  </g>
  <g transform="translate(214 200)">
    <circle cx="0" cy="0" r="34" fill="#ff8a2a"/>
    <path d="M-10 -25 C 0 -42, 22 -38, 22 -19 C 9 -22, -2 -15, -10 -25 Z" fill="#3c8f72"/>
    <circle cx="-8" cy="-6" r="4" fill="#fffaf0" opacity="0.72"/>
    <path d="M-20 8 C -2 18, 16 14, 24 -4" fill="none" stroke="#7d583b" stroke-width="4" stroke-linecap="round" opacity="0.24"/>
  </g>
  <g transform="translate(64 204)">
    <path d="M0 24 L32 0 L64 24 L52 24 L52 56 L12 56 L12 24 Z" fill="#fff3dc" opacity="0.86"/>
    <rect x="24" y="30" width="16" height="26" rx="5" fill="#7d583b" opacity="0.34"/>
  </g>
  <g transform="translate(58 54)">
    <rect x="0" y="0" width="204" height="42" rx="21" fill="#fffaf0" opacity="0.78"/>
    <circle cx="24" cy="21" r="11" fill="#ff8a2a" opacity="0.82"/>
    <path d="M42 18 L178 18" stroke="#7d583b" stroke-width="4" stroke-linecap="round" opacity="0.24"/>
    <path d="M42 28 L132 28" stroke="#7d583b" stroke-width="3" stroke-linecap="round" opacity="0.16"/>
  </g>
  <g transform="translate(252 48)">
    <circle cx="0" cy="0" r="26" fill="#fff3dc" opacity="0.9"/>
    <text x="0" y="8" text-anchor="middle" font-family="Inter, Arial, sans-serif" font-size="22" font-weight="900" fill="#7d583b">7</text>
  </g>
  <circle cx="80" cy="19" r="2.4" fill="#ff8a2a" opacity="0.12"/>
  <circle cx="86" cy="71" r="3.5" fill="#ffd166" opacity="0.15"/>
  <circle cx="107" cy="124" r="2.8" fill="#3c8f72" opacity="0.19"/>
  <circle cx="136" cy="177" r="2.1" fill="#fff3dc" opacity="0.23"/>
  <circle cx="169" cy="88" r="3.2" fill="#ff8a2a" opacity="0.26"/>
  <circle cx="204" cy="212" r="2.5" fill="#ffd166" opacity="0.12"/>
  <circle cx="240" cy="300" r="1.8" fill="#3c8f72" opacity="0.15"/>
  <circle cx="277" cy="229" r="2.9" fill="#fff3dc" opacity="0.19"/>
  <circle cx="30" cy="78" r="2.2" fill="#ff8a2a" opacity="0.23"/>
  <circle cx="209" cy="273" r="3.3" fill="#ffd166" opacity="0.26"/>
  <circle cx="33" cy="295" r="2.6" fill="#3c8f72" opacity="0.12"/>
  <circle cx="105" cy="48" r="1.9" fill="#fff3dc" opacity="0.15"/>
  <circle cx="18" cy="93" r="3.0" fill="#ff8a2a" opacity="0.19"/>
  <circle cx="135" cy="142" r="2.3" fill="#ffd166" opacity="0.23"/>
  <circle cx="30" cy="193" r="3.4" fill="#3c8f72" opacity="0.26"/>
  <circle cx="36" cy="245" r="2.7" fill="#fff3dc" opacity="0.12"/>
  <circle cx="57" cy="298" r="2.0" fill="#ff8a2a" opacity="0.15"/>
  <circle cx="86" cy="67" r="3.1" fill="#ffd166" opacity="0.19"/>
  <circle cx="119" cy="262" r="2.4" fill="#3c8f72" opacity="0.23"/>
  <circle cx="154" cy="102" r="3.5" fill="#fff3dc" opacity="0.26"/>
  <circle cx="190" cy="190" r="2.8" fill="#ff8a2a" opacity="0.12"/>
  <circle cx="227" cy="119" r="2.1" fill="#ffd166" opacity="0.15"/>
  <circle cx="264" cy="252" r="3.2" fill="#3c8f72" opacity="0.19"/>
  <circle cx="159" cy="163" r="2.5" fill="#fff3dc" opacity="0.23"/>
  <circle cx="267" cy="185" r="1.8" fill="#ff8a2a" opacity="0.26"/>
  <circle cx="55" cy="222" r="2.9" fill="#ffd166" opacity="0.12"/>
  <circle cx="252" cy="267" r="2.2" fill="#3c8f72" opacity="0.15"/>
  <circle cx="85" cy="32" r="3.3" fill="#fff3dc" opacity="0.19"/>
  <circle cx="264" cy="83" r="2.6" fill="#ff8a2a" opacity="0.23"/>
  <circle cx="270" cy="135" r="1.9" fill="#ffd166" opacity="0.26"/>
  <circle cx="291" cy="188" r="3.0" fill="#3c8f72" opacity="0.12"/>
  <circle cx="36" cy="241" r="2.3" fill="#fff3dc" opacity="0.15"/>
  <circle cx="69" cy="152" r="3.4" fill="#ff8a2a" opacity="0.19"/>
  <circle cx="104" cy="276" r="2.7" fill="#ffd166" opacity="0.23"/>
  <circle cx="140" cy="80" r="2.0" fill="#3c8f72" opacity="0.26"/>
  <circle cx="177" cy="293" r="3.1" fill="#fff3dc" opacity="0.12"/>
  <circle cx="214" cy="142" r="2.4" fill="#ff8a2a" opacity="0.15"/>
  <circle cx="109" cy="53" r="3.5" fill="#ffd166" opacity="0.19"/>
  <circle cx="217" cy="75" r="2.8" fill="#3c8f72" opacity="0.23"/>
  <circle cx="289" cy="112" r="2.1" fill="#fff3dc" opacity="0.26"/>
  <circle cx="202" cy="157" r="3.2" fill="#ff8a2a" opacity="0.12"/>
  <circle cx="35" cy="206" r="2.5" fill="#ffd166" opacity="0.15"/>
  <circle cx="214" cy="257" r="1.8" fill="#3c8f72" opacity="0.19"/>
  <circle cx="220" cy="25" r="2.9" fill="#fff3dc" opacity="0.23"/>
  <circle cx="241" cy="78" r="2.2" fill="#ff8a2a" opacity="0.26"/>
  <circle cx="270" cy="131" r="3.3" fill="#ffd166" opacity="0.12"/>
  <circle cx="19" cy="42" r="2.6" fill="#3c8f72" opacity="0.15"/>
  <circle cx="54" cy="166" r="1.9" fill="#fff3dc" opacity="0.19"/>
  <circle cx="90" cy="254" r="3.0" fill="#ff8a2a" opacity="0.23"/>
  <circle cx="127" cy="183" r="2.3" fill="#ffd166" opacity="0.26"/>
  <circle cx="164" cy="32" r="3.4" fill="#3c8f72" opacity="0.12"/>
  <circle cx="59" cy="227" r="2.7" fill="#fff3dc" opacity="0.15"/>
  <circle cx="167" cy="249" r="2.0" fill="#ff8a2a" opacity="0.19"/>
  <circle cx="239" cy="286" r="3.1" fill="#ffd166" opacity="0.23"/>
  <circle cx="152" cy="47" r="2.4" fill="#3c8f72" opacity="0.26"/>
  <circle cx="269" cy="96" r="3.5" fill="#fff3dc" opacity="0.12"/>
  <circle cx="164" cy="147" r="2.8" fill="#ff8a2a" opacity="0.15"/>
  <circle cx="170" cy="199" r="2.1" fill="#ffd166" opacity="0.19"/>
  <circle cx="191" cy="252" r="3.2" fill="#3c8f72" opacity="0.23"/>
  <circle cx="220" cy="21" r="2.5" fill="#fff3dc" opacity="0.26"/>
  <circle cx="253" cy="216" r="1.8" fill="#ff8a2a" opacity="0.12"/>
  <circle cx="288" cy="56" r="2.9" fill="#ffd166" opacity="0.15"/>
  <circle cx="40" cy="144" r="2.2" fill="#3c8f72" opacity="0.19"/>
  <circle cx="77" cy="73" r="3.3" fill="#fff3dc" opacity="0.23"/>
  <circle cx="114" cy="206" r="2.6" fill="#ff8a2a" opacity="0.26"/>
  <circle cx="293" cy="117" r="1.9" fill="#ffd166" opacity="0.12"/>
  <circle cx="117" cy="139" r="3.0" fill="#3c8f72" opacity="0.15"/>
  <circle cx="189" cy="176" r="2.3" fill="#fff3dc" opacity="0.19"/>
  <circle cx="102" cy="221" r="3.4" fill="#ff8a2a" opacity="0.23"/>
  <circle cx="219" cy="270" r="2.7" fill="#ffd166" opacity="0.26"/>
  <circle cx="114" cy="37" r="2.0" fill="#3c8f72" opacity="0.12"/>
  <circle cx="120" cy="89" r="3.1" fill="#fff3dc" opacity="0.15"/>
  <circle cx="141" cy="142" r="2.4" fill="#ff8a2a" opacity="0.19"/>
  <circle cx="170" cy="195" r="3.5" fill="#ffd166" opacity="0.23"/>
  <circle cx="203" cy="106" r="2.8" fill="#3c8f72" opacity="0.26"/>
  <circle cx="238" cy="230" r="2.1" fill="#fff3dc" opacity="0.12"/>
  <path d="M46 42 C 108 24, 172 60, 274 42" fill="none" stroke="#7d583b" stroke-width="1.4" stroke-linecap="round" opacity="0.11"/>
  <path d="M35 50 C 97 32, 183 68, 285 50" fill="none" stroke="#3c8f72" stroke-width="1.4" stroke-linecap="round" opacity="0.11"/>
  <path d="M52 58 C 114 40, 166 76, 268 58" fill="none" stroke="#7d583b" stroke-width="1.4" stroke-linecap="round" opacity="0.11"/>
  <path d="M41 66 C 103 48, 177 84, 279 66" fill="none" stroke="#3c8f72" stroke-width="1.4" stroke-linecap="round" opacity="0.11"/>
  <path d="M30 74 C 92 56, 188 92, 290 74" fill="none" stroke="#7d583b" stroke-width="1.4" stroke-linecap="round" opacity="0.11"/>
  <path d="M47 82 C 109 64, 171 100, 273 82" fill="none" stroke="#3c8f72" stroke-width="1.4" stroke-linecap="round" opacity="0.11"/>
  <path d="M36 90 C 98 72, 182 108, 284 90" fill="none" stroke="#7d583b" stroke-width="1.4" stroke-linecap="round" opacity="0.11"/>
  <path d="M53 98 C 115 80, 165 116, 267 98" fill="none" stroke="#3c8f72" stroke-width="1.4" stroke-linecap="round" opacity="0.11"/>
  <path d="M42 106 C 104 88, 176 124, 278 106" fill="none" stroke="#7d583b" stroke-width="1.4" stroke-linecap="round" opacity="0.11"/>
  <path d="M31 114 C 93 96, 187 132, 289 114" fill="none" stroke="#3c8f72" stroke-width="1.4" stroke-linecap="round" opacity="0.11"/>
  <path d="M48 122 C 110 104, 170 140, 272 122" fill="none" stroke="#7d583b" stroke-width="1.4" stroke-linecap="round" opacity="0.11"/>
  <path d="M37 130 C 99 112, 181 148, 283 130" fill="none" stroke="#3c8f72" stroke-width="1.4" stroke-linecap="round" opacity="0.11"/>
  <path d="M54 138 C 116 120, 164 156, 266 138" fill="none" stroke="#7d583b" stroke-width="1.4" stroke-linecap="round" opacity="0.11"/>
  <path d="M43 146 C 105 128, 175 164, 277 146" fill="none" stroke="#3c8f72" stroke-width="1.4" stroke-linecap="round" opacity="0.11"/>
  <path d="M32 154 C 94 136, 186 172, 288 154" fill="none" stroke="#7d583b" stroke-width="1.4" stroke-linecap="round" opacity="0.11"/>
  <path d="M49 162 C 111 144, 169 180, 271 162" fill="none" stroke="#3c8f72" stroke-width="1.4" stroke-linecap="round" opacity="0.11"/>
  <path d="M38 170 C 100 152, 180 188, 282 170" fill="none" stroke="#7d583b" stroke-width="1.4" stroke-linecap="round" opacity="0.11"/>
  <path d="M55 178 C 117 160, 163 196, 265 178" fill="none" stroke="#3c8f72" stroke-width="1.4" stroke-linecap="round" opacity="0.11"/>
  <path d="M44 186 C 106 168, 174 204, 276 186" fill="none" stroke="#7d583b" stroke-width="1.4" stroke-linecap="round" opacity="0.11"/>
  <path d="M33 194 C 95 176, 185 212, 287 194" fill="none" stroke="#3c8f72" stroke-width="1.4" stroke-linecap="round" opacity="0.11"/>
  <path d="M50 202 C 112 184, 168 220, 270 202" fill="none" stroke="#7d583b" stroke-width="1.4" stroke-linecap="round" opacity="0.11"/>
  <path d="M39 210 C 101 192, 179 228, 281 210" fill="none" stroke="#3c8f72" stroke-width="1.4" stroke-linecap="round" opacity="0.11"/>
  <path d="M28 218 C 90 200, 190 236, 292 218" fill="none" stroke="#7d583b" stroke-width="1.4" stroke-linecap="round" opacity="0.11"/>
  <path d="M45 226 C 107 208, 173 244, 275 226" fill="none" stroke="#3c8f72" stroke-width="1.4" stroke-linecap="round" opacity="0.11"/>
  <path d="M34 234 C 96 216, 184 252, 286 234" fill="none" stroke="#7d583b" stroke-width="1.4" stroke-linecap="round" opacity="0.11"/>
  <path d="M51 242 C 113 224, 167 260, 269 242" fill="none" stroke="#3c8f72" stroke-width="1.4" stroke-linecap="round" opacity="0.11"/>
  <path d="M40 250 C 102 232, 178 268, 280 250" fill="none" stroke="#7d583b" stroke-width="1.4" stroke-linecap="round" opacity="0.11"/>
  <path d="M29 258 C 91 240, 189 276, 291 258" fill="none" stroke="#3c8f72" stroke-width="1.4" stroke-linecap="round" opacity="0.11"/>
  <path d="M46 266 C 108 248, 172 284, 274 266" fill="none" stroke="#7d583b" stroke-width="1.4" stroke-linecap="round" opacity="0.11"/>
  <path d="M35 274 C 97 256, 183 292, 285 274" fill="none" stroke="#3c8f72" stroke-width="1.4" stroke-linecap="round" opacity="0.11"/>
  <path d="M52 282 C 114 264, 166 300, 268 282" fill="none" stroke="#7d583b" stroke-width="1.4" stroke-linecap="round" opacity="0.11"/>
  <path d="M41 290 C 103 272, 177 308, 279 290" fill="none" stroke="#3c8f72" stroke-width="1.4" stroke-linecap="round" opacity="0.11"/>
  <path d="M30 298 C 92 280, 188 316, 290 298" fill="none" stroke="#7d583b" stroke-width="1.4" stroke-linecap="round" opacity="0.11"/>
  <path d="M47 306 C 109 288, 171 324, 273 306" fill="none" stroke="#3c8f72" stroke-width="1.4" stroke-linecap="round" opacity="0.11"/>
  <path d="M36 314 C 98 296, 182 332, 284 314" fill="none" stroke="#7d583b" stroke-width="1.4" stroke-linecap="round" opacity="0.11"/>
  <path d="M53 322 C 115 304, 165 340, 267 322" fill="none" stroke="#3c8f72" stroke-width="1.4" stroke-linecap="round" opacity="0.11"/>
  <path d="M42 330 C 104 312, 176 348, 278 330" fill="none" stroke="#7d583b" stroke-width="1.4" stroke-linecap="round" opacity="0.11"/>
  <path d="M31 338 C 93 320, 187 356, 289 338" fill="none" stroke="#3c8f72" stroke-width="1.4" stroke-linecap="round" opacity="0.11"/>
  <g transform="translate(40 258)">
    <rect x="0" y="0" width="240" height="34" rx="17" fill="#fffaf0" opacity="0.78"/>
    <text x="120" y="23" text-anchor="middle" font-family="Inter, Arial, sans-serif" font-size="16" font-weight="900" fill="#7d583b">hundred ta</text>
  </g>
</svg>
