<svg xmlns="http://www.w3.org/2000/svg" width="320" height="320" viewBox="0 0 320 320" role="img" aria-label="settings">
  <defs>
    <linearGradient id="bg-settings" x1="36" y1="18" x2="284" y2="302" gradientUnits="userSpaceOnUse">
      <stop offset="0" stop-color="#fffaf0"/>
      <stop offset="0.42" stop-color="#bfe5d9"/>
      <stop offset="1" stop-color="#4b8aa8"/>
    </linearGradient>
    <linearGradient id="ink-settings" x1="88" y1="66" x2="232" y2="248" gradientUnits="userSpaceOnUse">
      <stop offset="0" stop-color="#4b8aa8"/>
      <stop offset="1" stop-color="#2f6f88"/>
    </linearGradient>
    <filter id="shadow-settings" x="-20%" y="-20%" width="140%" height="140%">
      <feDropShadow dx="0" dy="12" stdDeviation="10" flood-color="#28322d" flood-opacity="0.18"/>
    </filter>
    <pattern id="grain-settings" width="28" height="28" patternUnits="userSpaceOnUse">
      <path d="M0 20 C 9 12, 18 28, 28 16" fill="none" stroke="#2f6f88" stroke-width="1" opacity="0.08"/>
      <circle cx="8" cy="8" r="1.5" fill="#4b8aa8" opacity="0.12"/>
      <circle cx="22" cy="21" r="1.2" fill="#ffb23f" opacity="0.12"/>
    </pattern>
  </defs>
  <rect x="16" y="16" width="288" height="288" rx="54" fill="url(#bg-settings)" filter="url(#shadow-settings)"/>
  <rect x="28" y="28" width="264" height="264" rx="44" fill="url(#grain-settings)" opacity="0.9"/>
  <path d="M58 232 C 92 210, 130 220, 160 199 C 194 176, 238 178, 264 148 L264 262 L58 262 Z" fill="#ffb23f" opacity="0.16"/>
  <path d="M52 92 C 89 62, 137 68, 160 96 C 186 65, 237 62, 268 96" fill="none" stroke="#fffaf0" stroke-width="10" stroke-linecap="round" opacity="0.62"/>
  <g opacity="0.98">
    <ellipse cx="160" cy="168" rx="78" ry="58" fill="#2f6f88" opacity="0.22"/>
    <ellipse cx="160" cy="156" rx="70" ry="52" fill="url(#ink-settings)"/>
    <circle cx="122" cy="122" r="23" fill="#2f6f88" opacity="0.28"/>
    <circle cx="198" cy="122" r="23" fill="#2f6f88" opacity="0.28"/>
    <ellipse cx="160" cy="166" rx="44" ry="30" fill="#fffaf0" opacity="0.32"/>
    <circle cx="136" cy="152" r="7" fill="#28322d"/>
    <circle cx="184" cy="152" r="7" fill="#28322d"/>
    <ellipse cx="160" cy="174" rx="12" ry="8" fill="#28322d"/>
    <path d="M146 188 C 154 196, 166 196, 174 188" fill="none" stroke="#28322d" stroke-width="5" stroke-linecap="round"/>
  </g>
  <g transform="translate(214 200)">
    <circle cx="0" cy="0" r="34" fill="#4b8aa8"/>
    <path d="M-10 -25 C 0 -42, 22 -38, 22 -19 C 9 -22, -2 -15, -10 -25 Z" fill="#ffb23f"/>
    <circle cx="-8" cy="-6" r="4" fill="#fffaf0" opacity="0.72"/>
    <path d="M-20 8 C -2 18, 16 14, 24 -4" fill="none" stroke="#2f6f88" stroke-width="4" stroke-linecap="round" opacity="0.24"/>
  </g>
  <g transform="translate(64 204)">
    <path d="M0 24 L32 0 L64 24 L52 24 L52 56 L12 56 L12 24 Z" fill="#fffaf0" opacity="0.86"/>
    <rect x="24" y="30" width="16" height="26" rx="5" fill="#2f6f88" opacity="0.34"/>
  </g>
  <g transform="translate(58 54)">
    <rect x="0" y="0" width="204" height="42" rx="21" fill="#fffaf0" opacity="0.78"/>
    <circle cx="24" cy="21" r="11" fill="#4b8aa8" opacity="0.82"/>
    <path d="M42 18 L178 18" stroke="#2f6f88" stroke-width="4" stroke-linecap="round" opacity="0.24"/>
    <path d="M42 28 L132 28" stroke="#2f6f88" stroke-width="3" stroke-linecap="round" opacity="0.16"/>
  </g>
  <g transform="translate(252 48)">
    <circle cx="0" cy="0" r="26" fill="#fffaf0" opacity="0.9"/>
    <text x="0" y="8" text-anchor="middle" font-family="Inter, Arial, sans-serif" font-size="22" font-weight="900" fill="#2f6f88">8</text>
  </g>
  <circle cx="218" cy="166" r="3.4" fill="#4b8aa8" opacity="0.12"/>
  <circle cx="155" cy="287" r="2.7" fill="#bfe5d9" opacity="0.15"/>
  <circle cx="142" cy="90" r="2.0" fill="#ffb23f" opacity="0.19"/>
  <circle cx="154" cy="160" r="3.1" fill="#fffaf0" opacity="0.23"/>
  <circle cx="178" cy="79" r="2.4" fill="#4b8aa8" opacity="0.26"/>
  <circle cx="67" cy="65" r="3.5" fill="#bfe5d9" opacity="0.12"/>
  <circle cx="172" cy="227" r="2.8" fill="#ffb23f" opacity="0.15"/>
  <circle cx="243" cy="192" r="2.1" fill="#fffaf0" opacity="0.19"/>
  <circle cx="297" cy="201" r="3.2" fill="#4b8aa8" opacity="0.23"/>
  <circle cx="200" cy="127" r="2.5" fill="#bfe5d9" opacity="0.26"/>
  <circle cx="170" cy="80" r="1.8" fill="#ffb23f" opacity="0.12"/>
  <circle cx="32" cy="83" r="2.9" fill="#fffaf0" opacity="0.15"/>
  <circle cx="265" cy="111" r="2.2" fill="#4b8aa8" opacity="0.19"/>
  <circle cx="258" cy="151" r="3.3" fill="#bfe5d9" opacity="0.23"/>
  <circle cx="168" cy="56" r="2.6" fill="#ffb23f" opacity="0.26"/>
  <circle cx="105" cy="177" r="1.9" fill="#fffaf0" opacity="0.12"/>
  <circle cx="92" cy="264" r="3.0" fill="#4b8aa8" opacity="0.15"/>
  <circle cx="104" cy="50" r="2.3" fill="#bfe5d9" opacity="0.19"/>
  <circle cx="128" cy="253" r="3.4" fill="#ffb23f" opacity="0.23"/>
  <circle cx="301" cy="239" r="2.7" fill="#fffaf0" opacity="0.26"/>
  <circle cx="122" cy="117" r="2.0" fill="#4b8aa8" opacity="0.12"/>
  <circle cx="193" cy="82" r="3.1" fill="#bfe5d9" opacity="0.15"/>
  <circle cx="247" cy="91" r="2.4" fill="#ffb23f" opacity="0.19"/>
  <circle cx="150" cy="301" r="3.5" fill="#fffaf0" opacity="0.23"/>
  <circle cx="120" cy="254" r="2.8" fill="#4b8aa8" opacity="0.26"/>
  <circle cx="266" cy="257" r="2.1" fill="#bfe5d9" opacity="0.12"/>
  <circle cx="215" cy="285" r="3.2" fill="#ffb23f" opacity="0.15"/>
  <circle cx="208" cy="41" r="2.5" fill="#fffaf0" opacity="0.19"/>
  <circle cx="118" cy="230" r="1.8" fill="#4b8aa8" opacity="0.23"/>
  <circle cx="55" cy="67" r="2.9" fill="#bfe5d9" opacity="0.26"/>
  <circle cx="42" cy="154" r="2.2" fill="#ffb23f" opacity="0.12"/>
  <circle cx="54" cy="224" r="3.3" fill="#fffaf0" opacity="0.15"/>
  <circle cx="78" cy="143" r="2.6" fill="#4b8aa8" opacity="0.19"/>
  <circle cx="251" cy="129" r="1.9" fill="#bfe5d9" opacity="0.23"/>
  <circle cx="72" cy="291" r="3.0" fill="#ffb23f" opacity="0.26"/>
  <circle cx="143" cy="256" r="2.3" fill="#fffaf0" opacity="0.12"/>
  <circle cx="197" cy="265" r="3.4" fill="#4b8aa8" opacity="0.15"/>
  <circle cx="100" cy="191" r="2.7" fill="#bfe5d9" opacity="0.19"/>
  <circle cx="70" cy="144" r="2.0" fill="#ffb23f" opacity="0.23"/>
  <circle cx="216" cy="147" r="3.1" fill="#fffaf0" opacity="0.26"/>
  <circle cx="165" cy="175" r="2.4" fill="#4b8aa8" opacity="0.12"/>
  <circle cx="158" cy="215" r="3.5" fill="#bfe5d9" opacity="0.15"/>
  <circle cx="68" cy="120" r="2.8" fill="#ffb23f" opacity="0.19"/>
  <circle cx="289" cy="241" r="2.1" fill="#fffaf0" opacity="0.23"/>
  <circle cx="276" cy="44" r="3.2" fill="#4b8aa8" opacity="0.26"/>
  <circle cx="288" cy="114" r="2.5" fill="#bfe5d9" opacity="0.12"/>
  <circle cx="28" cy="33" r="1.8" fill="#ffb23f" opacity="0.15"/>
  <circle cx="201" cy="19" r="2.9" fill="#fffaf0" opacity="0.19"/>
  <circle cx="22" cy="181" r="2.2" fill="#4b8aa8" opacity="0.23"/>
  <circle cx="93" cy="146" r="3.3" fill="#bfe5d9" opacity="0.26"/>
  <circle cx="147" cy="155" r="2.6" fill="#ffb23f" opacity="0.12"/>
  <circle cx="50" cy="81" r="1.9" fill="#fffaf0" opacity="0.15"/>
  <circle cx="20" cy="34" r="3.0" fill="#4b8aa8" opacity="0.19"/>
  <circle cx="166" cy="37" r="2.3" fill="#bfe5d9" opacity="0.23"/>
  <circle cx="115" cy="65" r="3.4" fill="#ffb23f" opacity="0.26"/>
  <circle cx="108" cy="105" r="2.7" fill="#fffaf0" opacity="0.12"/>
  <circle cx="18" cy="294" r="2.0" fill="#4b8aa8" opacity="0.15"/>
  <circle cx="239" cy="131" r="3.1" fill="#bfe5d9" opacity="0.19"/>
  <circle cx="226" cy="218" r="2.4" fill="#ffb23f" opacity="0.23"/>
  <circle cx="238" cy="288" r="3.5" fill="#fffaf0" opacity="0.26"/>
  <circle cx="262" cy="207" r="2.8" fill="#4b8aa8" opacity="0.12"/>
  <circle cx="151" cy="193" r="2.1" fill="#bfe5d9" opacity="0.15"/>
  <circle cx="256" cy="71" r="3.2" fill="#ffb23f" opacity="0.19"/>
  <circle cx="43" cy="36" r="2.5" fill="#fffaf0" opacity="0.23"/>
  <circle cx="97" cy="45" r="1.8" fill="#4b8aa8" opacity="0.26"/>
  <circle cx="284" cy="255" r="2.9" fill="#bfe5d9" opacity="0.12"/>
  <circle cx="254" cy="208" r="2.2" fill="#ffb23f" opacity="0.15"/>
  <circle cx="116" cy="211" r="3.3" fill="#fffaf0" opacity="0.19"/>
  <circle cx="65" cy="239" r="2.6" fill="#4b8aa8" opacity="0.23"/>
  <circle cx="58" cy="279" r="1.9" fill="#bfe5d9" opacity="0.26"/>
  <circle cx="252" cy="184" r="3.0" fill="#ffb23f" opacity="0.12"/>
  <circle cx="189" cy="21" r="2.3" fill="#fffaf0" opacity="0.15"/>
  <circle cx="176" cy="108" r="3.4" fill="#4b8aa8" opacity="0.19"/>
  <circle cx="188" cy="178" r="2.7" fill="#bfe5d9" opacity="0.23"/>
  <circle cx="212" cy="97" r="2.0" fill="#ffb23f" opacity="0.26"/>
  <circle cx="101" cy="83" r="3.1" fill="#fffaf0" opacity="0.12"/>
  <path d="M28 42 C 90 24, 190 60, 292 42" fill="none" stroke="#2f6f88" stroke-width="1.4" stroke-linecap="round" opacity="0.11"/>
  <path d="M45 50 C 107 32, 173 68, 275 50" fill="none" stroke="#ffb23f" stroke-width="1.4" stroke-linecap="round" opacity="0.11"/>
  <path d="M34 58 C 96 40, 184 76, 286 58" fill="none" stroke="#2f6f88" stroke-width="1.4" stroke-linecap="round" opacity="0.11"/>
  <path d="M51 66 C 113 48, 167 84, 269 66" fill="none" stroke="#ffb23f" stroke-width="1.4" stroke-linecap="round" opacity="0.11"/>
  <path d="M40 74 C 102 56, 178 92, 280 74" fill="none" stroke="#2f6f88" stroke-width="1.4" stroke-linecap="round" opacity="0.11"/>
  <path d="M29 82 C 91 64, 189 100, 291 82" fill="none" stroke="#ffb23f" stroke-width="1.4" stroke-linecap="round" opacity="0.11"/>
  <path d="M46 90 C 108 72, 172 108, 274 90" fill="none" stroke="#2f6f88" stroke-width="1.4" stroke-linecap="round" opacity="0.11"/>
  <path d="M35 98 C 97 80, 183 116, 285 98" fill="none" stroke="#ffb23f" stroke-width="1.4" stroke-linecap="round" opacity="0.11"/>
  <path d="M52 106 C 114 88, 166 124, 268 106" fill="none" stroke="#2f6f88" stroke-width="1.4" stroke-linecap="round" opacity="0.11"/>
  <path d="M41 114 C 103 96, 177 132, 279 114" fill="none" stroke="#ffb23f" stroke-width="1.4" stroke-linecap="round" opacity="0.11"/>
  <path d="M30 122 C 92 104, 188 140, 290 122" fill="none" stroke="#2f6f88" stroke-width="1.4" stroke-linecap="round" opacity="0.11"/>
  <path d="M47 130 C 109 112, 171 148, 273 130" fill="none" stroke="#ffb23f" stroke-width="1.4" stroke-linecap="round" opacity="0.11"/>
  <path d="M36 138 C 98 120, 182 156, 284 138" fill="none" stroke="#2f6f88" stroke-width="1.4" stroke-linecap="round" opacity="0.11"/>
  <path d="M53 146 C 115 128, 165 164, 267 146" fill="none" stroke="#ffb23f" stroke-width="1.4" stroke-linecap="round" opacity="0.11"/>
  <path d="M42 154 C 104 136, 176 172, 278 154" fill="none" stroke="#2f6f88" stroke-width="1.4" stroke-linecap="round" opacity="0.11"/>
  <path d="M31 162 C 93 144, 187 180, 289 162" fill="none" stroke="#ffb23f" stroke-width="1.4" stroke-linecap="round" opacity="0.11"/>
  <path d="M48 170 C 110 152, 170 188, 272 170" fill="none" stroke="#2f6f88" stroke-width="1.4" stroke-linecap="round" opacity="0.11"/>
  <path d="M37 178 C 99 160, 181 196, 283 178" fill="none" stroke="#ffb23f" stroke-width="1.4" stroke-linecap="round" opacity="0.11"/>
  <path d="M54 186 C 116 168, 164 204, 266 186" fill="none" stroke="#2f6f88" stroke-width="1.4" stroke-linecap="round" opacity="0.11"/>
  <path d="M43 194 C 105 176, 175 212, 277 194" fill="none" stroke="#ffb23f" stroke-width="1.4" stroke-linecap="round" opacity="0.11"/>
  <path d="M32 202 C 94 184, 186 220, 288 202" fill="none" stroke="#2f6f88" stroke-width="1.4" stroke-linecap="round" opacity="0.11"/>
  <path d="M49 210 C 111 192, 169 228, 271 210" fill="none" stroke="#ffb23f" stroke-width="1.4" stroke-linecap="round" opacity="0.11"/>
  <path d="M38 218 C 100 200, 180 236, 282 218" fill="none" stroke="#2f6f88" stroke-width="1.4" stroke-linecap="round" opacity="0.11"/>
  <path d="M55 226 C 117 208, 163 244, 265 226" fill="none" stroke="#ffb23f" stroke-width="1.4" stroke-linecap="round" opacity="0.11"/>
  <path d="M44 234 C 106 216, 174 252, 276 234" fill="none" stroke="#2f6f88" stroke-width="1.4" stroke-linecap="round" opacity="0.11"/>
  <path d="M33 242 C 95 224, 185 260, 287 242" fill="none" stroke="#ffb23f" stroke-width="1.4" stroke-linecap="round" opacity="0.11"/>
  <path d="M50 250 C 112 232, 168 268, 270 250" fill="none" stroke="#2f6f88" stroke-width="1.4" stroke-linecap="round" opacity="0.11"/>
  <path d="M39 258 C 101 240, 179 276, 281 258" fill="none" stroke="#ffb23f" stroke-width="1.4" stroke-linecap="round" opacity="0.11"/>
  <path d="M28 266 C 90 248, 190 284, 292 266" fill="none" stroke="#2f6f88" stroke-width="1.4" stroke-linecap="round" opacity="0.11"/>
  <path d="M45 274 C 107 256, 173 292, 275 274" fill="none" stroke="#ffb23f" stroke-width="1.4" stroke-linecap="round" opacity="0.11"/>
  <path d="M34 282 C 96 264, 184 300, 286 282" fill="none" stroke="#2f6f88" stroke-width="1.4" stroke-linecap="round" opacity="0.11"/>
  <path d="M51 290 C 113 272, 167 308, 269 290" fill="none" stroke="#ffb23f" stroke-width="1.4" stroke-linecap="round" opacity="0.11"/>
  <path d="M40 298 C 102 280, 178 316, 280 298" fill="none" stroke="#2f6f88" stroke-width="1.4" stroke-linecap="round" opacity="0.11"/>
  <path d="M29 306 C 91 288, 189 324, 291 306" fill="none" stroke="#ffb23f" stroke-width="1.4" stroke-linecap="round" opacity="0.11"/>
  <path d="M46 314 C 108 296, 172 332, 274 314" fill="none" stroke="#2f6f88" stroke-width="1.4" stroke-linecap="round" opacity="0.11"/>
  <path d="M35 322 C 97 304, 183 340, 285 322" fill="none" stroke="#ffb23f" stroke-width="1.4" stroke-linecap="round" opacity="0.11"/>
  <path d="M52 330 C 114 312, 166 348, 268 330" fill="none" stroke="#2f6f88" stroke-width="1.4" stroke-linecap="round" opacity="0.11"/>
  <path d="M41 338 C 103 320, 177 356, 279 338" fill="none" stroke="#ffb23f" stroke-width="1.4" stroke-linecap="round" opacity="0.11"/>
  <g transform="translate(40 258)">
    <rect x="0" y="0" width="240" height="34" rx="17" fill="#fffaf0" opacity="0.78"/>
    <text x="120" y="23" text-anchor="middle" font-family="Inter, Arial, sans-serif" font-size="16" font-weight="900" fill="#2f6f88">settings</text>
  </g>
</svg>
