<svg xmlns="http://www.w3.org/2000/svg" width="320" height="320" viewBox="0 0 320 320" role="img" aria-label="soft paw">
  <defs>
    <linearGradient id="bg-soft_paw" x1="36" y1="18" x2="284" y2="302" gradientUnits="userSpaceOnUse">
      <stop offset="0" stop-color="#fff3dc"/>
      <stop offset="0.42" stop-color="#b88656"/>
      <stop offset="1" stop-color="#d3843f"/>
    </linearGradient>
    <linearGradient id="ink-soft_paw" x1="88" y1="66" x2="232" y2="248" gradientUnits="userSpaceOnUse">
      <stop offset="0" stop-color="#d3843f"/>
      <stop offset="1" stop-color="#6b4a30"/>
    </linearGradient>
    <filter id="shadow-soft_paw" x="-20%" y="-20%" width="140%" height="140%">
      <feDropShadow dx="0" dy="12" stdDeviation="10" flood-color="#28322d" flood-opacity="0.18"/>
    </filter>
    <pattern id="grain-soft_paw" width="28" height="28" patternUnits="userSpaceOnUse">
      <path d="M0 20 C 9 12, 18 28, 28 16" fill="none" stroke="#6b4a30" stroke-width="1" opacity="0.08"/>
      <circle cx="8" cy="8" r="1.5" fill="#d3843f" opacity="0.12"/>
      <circle cx="22" cy="21" r="1.2" fill="#ffdf9a" opacity="0.12"/>
    </pattern>
  </defs>
  <rect x="16" y="16" width="288" height="288" rx="54" fill="url(#bg-soft_paw)" filter="url(#shadow-soft_paw)"/>
  <rect x="28" y="28" width="264" height="264" rx="44" fill="url(#grain-soft_paw)" opacity="0.9"/>
  <path d="M58 232 C 92 210, 130 220, 160 199 C 194 176, 238 178, 264 148 L264 262 L58 262 Z" fill="#ffdf9a" opacity="0.16"/>
  <path d="M52 92 C 89 62, 137 68, 160 96 C 186 65, 237 62, 268 96" fill="none" stroke="#fff3dc" stroke-width="10" stroke-linecap="round" opacity="0.62"/>
  <g opacity="0.98">
    <ellipse cx="160" cy="168" rx="78" ry="58" fill="#6b4a30" opacity="0.22"/>
    <ellipse cx="160" cy="156" rx="70" ry="52" fill="url(#ink-soft_paw)"/>
    <circle cx="122" cy="122" r="23" fill="#6b4a30" opacity="0.28"/>
    <circle cx="198" cy="122" r="23" fill="#6b4a30" opacity="0.28"/>
    <ellipse cx="160" cy="166" rx="44" ry="30" fill="#fff3dc" opacity="0.32"/>
    <circle cx="136" cy="152" r="7" fill="#28322d"/>
    <circle cx="184" cy="152" r="7" fill="#28322d"/>
    <ellipse cx="160" cy="174" rx="12" ry="8" fill="#28322d"/>
    <path d="M146 188 C 154 196, 166 196, 174 188" fill="none" stroke="#28322d" stroke-width="5" stroke-linecap="round"/>
  </g>
  <g transform="translate(214 200)">
    <circle cx="0" cy="0" r="34" fill="#d3843f"/>
    <path d="M-10 -25 C 0 -42, 22 -38, 22 -19 C 9 -22, -2 -15, -10 -25 Z" fill="#ffdf9a"/>
    <circle cx="-8" cy="-6" r="4" fill="#fffaf0" opacity="0.72"/>
    <path d="M-20 8 C -2 18, 16 14, 24 -4" fill="none" stroke="#6b4a30" stroke-width="4" stroke-linecap="round" opacity="0.24"/>
  </g>
  <g transform="translate(64 204)">
    <path d="M0 24 L32 0 L64 24 L52 24 L52 56 L12 56 L12 24 Z" fill="#fff3dc" opacity="0.86"/>
    <rect x="24" y="30" width="16" height="26" rx="5" fill="#6b4a30" opacity="0.34"/>
  </g>
  <g transform="translate(58 54)">
    <rect x="0" y="0" width="204" height="42" rx="21" fill="#fffaf0" opacity="0.78"/>
    <circle cx="24" cy="21" r="11" fill="#d3843f" opacity="0.82"/>
    <path d="M42 18 L178 18" stroke="#6b4a30" stroke-width="4" stroke-linecap="round" opacity="0.24"/>
    <path d="M42 28 L132 28" stroke="#6b4a30" stroke-width="3" stroke-linecap="round" opacity="0.16"/>
  </g>
  <g transform="translate(252 48)">
    <circle cx="0" cy="0" r="26" fill="#fff3dc" opacity="0.9"/>
    <text x="0" y="8" text-anchor="middle" font-family="Inter, Arial, sans-serif" font-size="22" font-weight="900" fill="#6b4a30">6</text>
  </g>
  <circle cx="144" cy="48" r="3.2" fill="#d3843f" opacity="0.12"/>
  <circle cx="260" cy="86" r="2.5" fill="#b88656" opacity="0.15"/>
  <circle cx="52" cy="273" r="1.8" fill="#ffdf9a" opacity="0.19"/>
  <circle cx="251" cy="251" r="2.9" fill="#fff3dc" opacity="0.23"/>
  <circle cx="227" cy="267" r="2.2" fill="#d3843f" opacity="0.26"/>
  <circle cx="233" cy="301" r="3.3" fill="#b88656" opacity="0.12"/>
  <circle cx="255" cy="203" r="2.6" fill="#ffdf9a" opacity="0.15"/>
  <circle cx="142" cy="38" r="1.9" fill="#fff3dc" opacity="0.19"/>
  <circle cx="104" cy="124" r="3.0" fill="#d3843f" opacity="0.23"/>
  <circle cx="104" cy="53" r="2.3" fill="#b88656" opacity="0.26"/>
  <circle cx="122" cy="185" r="3.4" fill="#ffdf9a" opacity="0.12"/>
  <circle cx="292" cy="277" r="2.7" fill="#fff3dc" opacity="0.15"/>
  <circle cx="111" cy="208" r="2.0" fill="#d3843f" opacity="0.19"/>
  <circle cx="181" cy="200" r="3.1" fill="#b88656" opacity="0.23"/>
  <circle cx="94" cy="222" r="2.4" fill="#ffdf9a" opacity="0.26"/>
  <circle cx="210" cy="260" r="3.5" fill="#fff3dc" opacity="0.12"/>
  <circle cx="286" cy="163" r="2.8" fill="#d3843f" opacity="0.15"/>
  <circle cx="201" cy="141" r="2.1" fill="#b88656" opacity="0.19"/>
  <circle cx="177" cy="157" r="3.2" fill="#ffdf9a" opacity="0.23"/>
  <circle cx="183" cy="191" r="2.5" fill="#fff3dc" opacity="0.26"/>
  <circle cx="205" cy="93" r="1.8" fill="#d3843f" opacity="0.12"/>
  <circle cx="92" cy="212" r="2.9" fill="#b88656" opacity="0.15"/>
  <circle cx="54" cy="298" r="2.2" fill="#ffdf9a" opacity="0.19"/>
  <circle cx="54" cy="227" r="3.3" fill="#fff3dc" opacity="0.23"/>
  <circle cx="72" cy="75" r="2.6" fill="#d3843f" opacity="0.26"/>
  <circle cx="242" cy="167" r="1.9" fill="#b88656" opacity="0.12"/>
  <circle cx="61" cy="98" r="3.0" fill="#ffdf9a" opacity="0.15"/>
  <circle cx="131" cy="90" r="2.3" fill="#fff3dc" opacity="0.19"/>
  <circle cx="44" cy="112" r="3.4" fill="#d3843f" opacity="0.23"/>
  <circle cx="160" cy="150" r="2.7" fill="#b88656" opacity="0.26"/>
  <circle cx="236" cy="53" r="2.0" fill="#ffdf9a" opacity="0.12"/>
  <circle cx="151" cy="31" r="3.1" fill="#fff3dc" opacity="0.15"/>
  <circle cx="127" cy="47" r="2.4" fill="#d3843f" opacity="0.19"/>
  <circle cx="133" cy="81" r="3.5" fill="#b88656" opacity="0.23"/>
  <circle cx="155" cy="267" r="2.8" fill="#ffdf9a" opacity="0.26"/>
  <circle cx="42" cy="102" r="2.1" fill="#fff3dc" opacity="0.12"/>
  <circle cx="288" cy="188" r="3.2" fill="#d3843f" opacity="0.15"/>
  <circle cx="288" cy="117" r="2.5" fill="#b88656" opacity="0.19"/>
  <circle cx="22" cy="249" r="1.8" fill="#ffdf9a" opacity="0.23"/>
  <circle cx="192" cy="57" r="2.9" fill="#fff3dc" opacity="0.26"/>
  <circle cx="295" cy="272" r="2.2" fill="#d3843f" opacity="0.12"/>
  <circle cx="81" cy="264" r="3.3" fill="#b88656" opacity="0.15"/>
  <circle cx="278" cy="286" r="2.6" fill="#ffdf9a" opacity="0.19"/>
  <circle cx="110" cy="40" r="1.9" fill="#fff3dc" opacity="0.23"/>
  <circle cx="186" cy="227" r="3.0" fill="#d3843f" opacity="0.26"/>
  <circle cx="101" cy="205" r="2.3" fill="#b88656" opacity="0.12"/>
  <circle cx="77" cy="221" r="3.4" fill="#ffdf9a" opacity="0.15"/>
  <circle cx="83" cy="255" r="2.7" fill="#fff3dc" opacity="0.19"/>
  <circle cx="105" cy="157" r="2.0" fill="#d3843f" opacity="0.23"/>
  <circle cx="276" cy="276" r="3.1" fill="#b88656" opacity="0.26"/>
  <circle cx="238" cy="78" r="2.4" fill="#ffdf9a" opacity="0.12"/>
  <circle cx="238" cy="291" r="3.5" fill="#fff3dc" opacity="0.15"/>
  <circle cx="256" cy="139" r="2.8" fill="#d3843f" opacity="0.19"/>
  <circle cx="142" cy="231" r="2.1" fill="#b88656" opacity="0.23"/>
  <circle cx="245" cy="162" r="3.2" fill="#ffdf9a" opacity="0.26"/>
  <circle cx="31" cy="154" r="2.5" fill="#fff3dc" opacity="0.12"/>
  <circle cx="228" cy="176" r="1.8" fill="#d3843f" opacity="0.15"/>
  <circle cx="60" cy="214" r="2.9" fill="#b88656" opacity="0.19"/>
  <circle cx="136" cy="117" r="2.2" fill="#ffdf9a" opacity="0.23"/>
  <circle cx="51" cy="95" r="3.3" fill="#fff3dc" opacity="0.26"/>
  <circle cx="27" cy="111" r="2.6" fill="#d3843f" opacity="0.12"/>
  <circle cx="33" cy="145" r="1.9" fill="#b88656" opacity="0.15"/>
  <circle cx="55" cy="47" r="3.0" fill="#ffdf9a" opacity="0.19"/>
  <circle cx="226" cy="166" r="2.3" fill="#fff3dc" opacity="0.23"/>
  <circle cx="188" cy="252" r="3.4" fill="#d3843f" opacity="0.26"/>
  <circle cx="188" cy="181" r="2.7" fill="#b88656" opacity="0.12"/>
  <circle cx="206" cy="29" r="2.0" fill="#ffdf9a" opacity="0.15"/>
  <circle cx="92" cy="121" r="3.1" fill="#fff3dc" opacity="0.19"/>
  <circle cx="195" cy="52" r="2.4" fill="#d3843f" opacity="0.23"/>
  <circle cx="265" cy="44" r="3.5" fill="#b88656" opacity="0.26"/>
  <circle cx="178" cy="66" r="2.8" fill="#ffdf9a" opacity="0.12"/>
  <circle cx="294" cy="104" r="2.1" fill="#fff3dc" opacity="0.15"/>
  <circle cx="86" cy="291" r="3.2" fill="#d3843f" opacity="0.19"/>
  <circle cx="285" cy="269" r="2.5" fill="#b88656" opacity="0.23"/>
  <circle cx="261" cy="285" r="1.8" fill="#ffdf9a" opacity="0.26"/>
  <circle cx="267" cy="35" r="2.9" fill="#fff3dc" opacity="0.12"/>
  <path d="M54 42 C 116 24, 164 60, 266 42" fill="none" stroke="#6b4a30" stroke-width="1.4" stroke-linecap="round" opacity="0.11"/>
  <path d="M43 50 C 105 32, 175 68, 277 50" fill="none" stroke="#ffdf9a" stroke-width="1.4" stroke-linecap="round" opacity="0.11"/>
  <path d="M32 58 C 94 40, 186 76, 288 58" fill="none" stroke="#6b4a30" stroke-width="1.4" stroke-linecap="round" opacity="0.11"/>
  <path d="M49 66 C 111 48, 169 84, 271 66" fill="none" stroke="#ffdf9a" stroke-width="1.4" stroke-linecap="round" opacity="0.11"/>
  <path d="M38 74 C 100 56, 180 92, 282 74" fill="none" stroke="#6b4a30" stroke-width="1.4" stroke-linecap="round" opacity="0.11"/>
  <path d="M55 82 C 117 64, 163 100, 265 82" fill="none" stroke="#ffdf9a" stroke-width="1.4" stroke-linecap="round" opacity="0.11"/>
  <path d="M44 90 C 106 72, 174 108, 276 90" fill="none" stroke="#6b4a30" stroke-width="1.4" stroke-linecap="round" opacity="0.11"/>
  <path d="M33 98 C 95 80, 185 116, 287 98" fill="none" stroke="#ffdf9a" stroke-width="1.4" stroke-linecap="round" opacity="0.11"/>
  <path d="M50 106 C 112 88, 168 124, 270 106" fill="none" stroke="#6b4a30" stroke-width="1.4" stroke-linecap="round" opacity="0.11"/>
  <path d="M39 114 C 101 96, 179 132, 281 114" fill="none" stroke="#ffdf9a" stroke-width="1.4" stroke-linecap="round" opacity="0.11"/>
  <path d="M28 122 C 90 104, 190 140, 292 122" fill="none" stroke="#6b4a30" stroke-width="1.4" stroke-linecap="round" opacity="0.11"/>
  <path d="M45 130 C 107 112, 173 148, 275 130" fill="none" stroke="#ffdf9a" stroke-width="1.4" stroke-linecap="round" opacity="0.11"/>
  <path d="M34 138 C 96 120, 184 156, 286 138" fill="none" stroke="#6b4a30" stroke-width="1.4" stroke-linecap="round" opacity="0.11"/>
  <path d="M51 146 C 113 128, 167 164, 269 146" fill="none" stroke="#ffdf9a" stroke-width="1.4" stroke-linecap="round" opacity="0.11"/>
  <path d="M40 154 C 102 136, 178 172, 280 154" fill="none" stroke="#6b4a30" stroke-width="1.4" stroke-linecap="round" opacity="0.11"/>
  <path d="M29 162 C 91 144, 189 180, 291 162" fill="none" stroke="#ffdf9a" stroke-width="1.4" stroke-linecap="round" opacity="0.11"/>
  <path d="M46 170 C 108 152, 172 188, 274 170" fill="none" stroke="#6b4a30" stroke-width="1.4" stroke-linecap="round" opacity="0.11"/>
  <path d="M35 178 C 97 160, 183 196, 285 178" fill="none" stroke="#ffdf9a" stroke-width="1.4" stroke-linecap="round" opacity="0.11"/>
  <path d="M52 186 C 114 168, 166 204, 268 186" fill="none" stroke="#6b4a30" stroke-width="1.4" stroke-linecap="round" opacity="0.11"/>
  <path d="M41 194 C 103 176, 177 212, 279 194" fill="none" stroke="#ffdf9a" stroke-width="1.4" stroke-linecap="round" opacity="0.11"/>
  <path d="M30 202 C 92 184, 188 220, 290 202" fill="none" stroke="#6b4a30" stroke-width="1.4" stroke-linecap="round" opacity="0.11"/>
  <path d="M47 210 C 109 192, 171 228, 273 210" fill="none" stroke="#ffdf9a" stroke-width="1.4" stroke-linecap="round" opacity="0.11"/>
  <path d="M36 218 C 98 200, 182 236, 284 218" fill="none" stroke="#6b4a30" stroke-width="1.4" stroke-linecap="round" opacity="0.11"/>
  <path d="M53 226 C 115 208, 165 244, 267 226" fill="none" stroke="#ffdf9a" stroke-width="1.4" stroke-linecap="round" opacity="0.11"/>
  <path d="M42 234 C 104 216, 176 252, 278 234" fill="none" stroke="#6b4a30" stroke-width="1.4" stroke-linecap="round" opacity="0.11"/>
  <path d="M31 242 C 93 224, 187 260, 289 242" fill="none" stroke="#ffdf9a" stroke-width="1.4" stroke-linecap="round" opacity="0.11"/>
  <path d="M48 250 C 110 232, 170 268, 272 250" fill="none" stroke="#6b4a30" stroke-width="1.4" stroke-linecap="round" opacity="0.11"/>
  <path d="M37 258 C 99 240, 181 276, 283 258" fill="none" stroke="#ffdf9a" stroke-width="1.4" stroke-linecap="round" opacity="0.11"/>
  <path d="M54 266 C 116 248, 164 284, 266 266" fill="none" stroke="#6b4a30" stroke-width="1.4" stroke-linecap="round" opacity="0.11"/>
  <path d="M43 274 C 105 256, 175 292, 277 274" fill="none" stroke="#ffdf9a" stroke-width="1.4" stroke-linecap="round" opacity="0.11"/>
  <path d="M32 282 C 94 264, 186 300, 288 282" fill="none" stroke="#6b4a30" stroke-width="1.4" stroke-linecap="round" opacity="0.11"/>
  <path d="M49 290 C 111 272, 169 308, 271 290" fill="none" stroke="#ffdf9a" stroke-width="1.4" stroke-linecap="round" opacity="0.11"/>
  <path d="M38 298 C 100 280, 180 316, 282 298" fill="none" stroke="#6b4a30" stroke-width="1.4" stroke-linecap="round" opacity="0.11"/>
  <path d="M55 306 C 117 288, 163 324, 265 306" fill="none" stroke="#ffdf9a" stroke-width="1.4" stroke-linecap="round" opacity="0.11"/>
  <path d="M44 314 C 106 296, 174 332, 276 314" fill="none" stroke="#6b4a30" stroke-width="1.4" stroke-linecap="round" opacity="0.11"/>
  <path d="M33 322 C 95 304, 185 340, 287 322" fill="none" stroke="#ffdf9a" stroke-width="1.4" stroke-linecap="round" opacity="0.11"/>
  <path d="M50 330 C 112 312, 168 348, 270 330" fill="none" stroke="#6b4a30" stroke-width="1.4" stroke-linecap="round" opacity="0.11"/>
  <path d="M39 338 C 101 320, 179 356, 281 338" fill="none" stroke="#ffdf9a" stroke-width="1.4" stroke-linecap="round" opacity="0.11"/>
  <g transform="translate(40 258)">
    <rect x="0" y="0" width="240" height="34" rx="17" fill="#fffaf0" opacity="0.78"/>
    <text x="120" y="23" text-anchor="middle" font-family="Inter, Arial, sans-serif" font-size="16" font-weight="900" fill="#6b4a30">soft paw</text>
  </g>
</svg>
