<svg xmlns="http://www.w3.org/2000/svg" width="320" height="320" viewBox="0 0 320 320" role="img" aria-label="yard parasol">
  <defs>
    <linearGradient id="bg-yard_parasol" x1="32" y1="18" x2="288" y2="304" gradientUnits="userSpaceOnUse">
      <stop offset="0" stop-color="#fff1bd"/>
      <stop offset="0.56" stop-color="#d8f1dc"/>
      <stop offset="1" stop-color="#ffd568"/>
    </linearGradient>
    <linearGradient id="grass-yard_parasol" x1="0" y1="168" x2="320" y2="304" gradientUnits="userSpaceOnUse">
      <stop offset="0" stop-color="#54a86f"/>
      <stop offset="1" stop-color="#2f865d"/>
    </linearGradient>
    <filter id="shadow-yard_parasol" x="-25%" y="-25%" width="150%" height="150%">
      <feDropShadow dx="0" dy="12" stdDeviation="9" flood-color="#1f2c24" flood-opacity="0.18"/>
    </filter>
    <filter id="soft-yard_parasol" x="-25%" y="-25%" width="150%" height="150%">
      <feDropShadow dx="0" dy="5" stdDeviation="4" flood-color="#1f2c24" flood-opacity="0.14"/>
    </filter>
  </defs>
  <rect x="18" y="18" width="284" height="284" rx="64" fill="url(#bg-yard_parasol)"/>
  <path d="M18 221 C 62 198, 94 225, 134 202 C 178 176, 214 207, 302 154 L302 302 L18 302 Z" fill="url(#grass-yard_parasol)" opacity="0.34"/>
  <path d="M44 66 C 79 39, 124 48, 148 75 C 181 43, 236 45, 276 86" fill="none" stroke="#fffdf2" stroke-width="10" stroke-linecap="round" opacity="0.56"/>
  <circle cx="141" cy="121" r="3" fill="#fffdf2" opacity="0.26"/>
    <circle cx="122" cy="118" r="4" fill="#ff982a" opacity="0.18"/>
    <circle cx="128" cy="135" r="5" fill="#fffdf2" opacity="0.26"/>
    <circle cx="265" cy="162" r="6" fill="#ff982a" opacity="0.18"/>
    <circle cx="113" cy="194" r="7" fill="#fffdf2" opacity="0.26"/>
    <circle cx="52" cy="124" r="8" fill="#ff982a" opacity="0.18"/>
    <circle cx="155" cy="107" r="3" fill="#fffdf2" opacity="0.26"/>
  <g filter="url(#shadow-yard_parasol)">
    <g transform="translate(160 164)">
    <path d="M-88 54 V-20 L0 -78 L90 -20 V54 Z" fill="#8d5d39"/>
    <path d="M-102 -18 L0 -90 L104 -18" fill="none" stroke="#ff982a" stroke-width="16" stroke-linecap="round" stroke-linejoin="round"/>
    <rect x="-28" y="6" width="56" height="48" rx="10" fill="#5f3924"/>
    <circle cx="-66" cy="-68" r="25" fill="#278866"/>
    <circle cx="-57" cy="-71" r="8" fill="#ff982a"/>
    <circle cx="72" cy="-46" r="23" fill="#278866"/>
    <circle cx="79" cy="-48" r="8" fill="#ff982a"/>
  </g>
  </g>
  <path d="M65 273 C 106 286, 213 287, 255 270" fill="none" stroke="#1f2c24" stroke-width="8" stroke-linecap="round" opacity="0.08"/>
</svg>
