<svg xmlns="http://www.w3.org/2000/svg" width="320" height="320" viewBox="0 0 320 320" role="img" aria-label="qa screenshot frame">
  <defs>
    <linearGradient id="bg-qa-screenshot-frame" x1="36" y1="18" x2="284" y2="302" gradientUnits="userSpaceOnUse">
      <stop offset="0" stop-color="#fff3dc"/>
      <stop offset="0.42" stop-color="#b88656"/>
      <stop offset="1" stop-color="#d3843f"/>
    </linearGradient>
    <linearGradient id="ink-qa-screenshot-frame" x1="88" y1="66" x2="232" y2="248" gradientUnits="userSpaceOnUse">
      <stop offset="0" stop-color="#d3843f"/>
      <stop offset="1" stop-color="#6b4a30"/>
    </linearGradient>
    <filter id="shadow-qa-screenshot-frame" x="-20%" y="-20%" width="140%" height="140%">
      <feDropShadow dx="0" dy="12" stdDeviation="10" flood-color="#28322d" flood-opacity="0.18"/>
    </filter>
    <pattern id="grain-qa-screenshot-frame" width="28" height="28" patternUnits="userSpaceOnUse">
      <path d="M0 20 C 9 12, 18 28, 28 16" fill="none" stroke="#6b4a30" stroke-width="1" opacity="0.08"/>
      <circle cx="8" cy="8" r="1.5" fill="#d3843f" opacity="0.12"/>
      <circle cx="22" cy="21" r="1.2" fill="#ffdf9a" opacity="0.12"/>
    </pattern>
  </defs>
  <rect x="16" y="16" width="288" height="288" rx="54" fill="url(#bg-qa-screenshot-frame)" filter="url(#shadow-qa-screenshot-frame)"/>
  <rect x="28" y="28" width="264" height="264" rx="44" fill="url(#grain-qa-screenshot-frame)" opacity="0.9"/>
  <path d="M58 232 C 92 210, 130 220, 160 199 C 194 176, 238 178, 264 148 L264 262 L58 262 Z" fill="#ffdf9a" opacity="0.16"/>
  <path d="M52 92 C 89 62, 137 68, 160 96 C 186 65, 237 62, 268 96" fill="none" stroke="#fff3dc" stroke-width="10" stroke-linecap="round" opacity="0.62"/>
  <g opacity="0.98">
    <ellipse cx="160" cy="168" rx="78" ry="58" fill="#6b4a30" opacity="0.22"/>
    <ellipse cx="160" cy="156" rx="70" ry="52" fill="url(#ink-qa-screenshot-frame)"/>
    <circle cx="122" cy="122" r="23" fill="#6b4a30" opacity="0.28"/>
    <circle cx="198" cy="122" r="23" fill="#6b4a30" opacity="0.28"/>
    <ellipse cx="160" cy="166" rx="44" ry="30" fill="#fff3dc" opacity="0.32"/>
    <circle cx="136" cy="152" r="7" fill="#28322d"/>
    <circle cx="184" cy="152" r="7" fill="#28322d"/>
    <ellipse cx="160" cy="174" rx="12" ry="8" fill="#28322d"/>
    <path d="M146 188 C 154 196, 166 196, 174 188" fill="none" stroke="#28322d" stroke-width="5" stroke-linecap="round"/>
  </g>
  <g transform="translate(214 200)">
    <circle cx="0" cy="0" r="34" fill="#d3843f"/>
    <path d="M-10 -25 C 0 -42, 22 -38, 22 -19 C 9 -22, -2 -15, -10 -25 Z" fill="#ffdf9a"/>
    <circle cx="-8" cy="-6" r="4" fill="#fffaf0" opacity="0.72"/>
    <path d="M-20 8 C -2 18, 16 14, 24 -4" fill="none" stroke="#6b4a30" stroke-width="4" stroke-linecap="round" opacity="0.24"/>
  </g>
  <g transform="translate(64 204)">
    <path d="M0 24 L32 0 L64 24 L52 24 L52 56 L12 56 L12 24 Z" fill="#fff3dc" opacity="0.86"/>
    <rect x="24" y="30" width="16" height="26" rx="5" fill="#6b4a30" opacity="0.34"/>
  </g>
  <g transform="translate(58 54)">
    <rect x="0" y="0" width="204" height="42" rx="21" fill="#fffaf0" opacity="0.78"/>
    <circle cx="24" cy="21" r="11" fill="#d3843f" opacity="0.82"/>
    <path d="M42 18 L178 18" stroke="#6b4a30" stroke-width="4" stroke-linecap="round" opacity="0.24"/>
    <path d="M42 28 L132 28" stroke="#6b4a30" stroke-width="3" stroke-linecap="round" opacity="0.16"/>
  </g>
  <g transform="translate(252 48)">
    <circle cx="0" cy="0" r="26" fill="#fff3dc" opacity="0.9"/>
    <text x="0" y="8" text-anchor="middle" font-family="Inter, Arial, sans-serif" font-size="22" font-weight="900" fill="#6b4a30">7</text>
  </g>
  <circle cx="232" cy="237" r="2.4" fill="#d3843f" opacity="0.12"/>
  <circle cx="162" cy="38" r="3.5" fill="#b88656" opacity="0.15"/>
  <circle cx="145" cy="249" r="2.8" fill="#ffdf9a" opacity="0.19"/>
  <circle cx="155" cy="97" r="2.1" fill="#fff3dc" opacity="0.23"/>
  <circle cx="37" cy="48" r="3.2" fill="#d3843f" opacity="0.26"/>
  <circle cx="138" cy="192" r="2.5" fill="#b88656" opacity="0.12"/>
  <circle cx="207" cy="290" r="1.8" fill="#ffdf9a" opacity="0.15"/>
  <circle cx="118" cy="224" r="2.9" fill="#fff3dc" opacity="0.19"/>
  <circle cx="234" cy="75" r="2.2" fill="#d3843f" opacity="0.23"/>
  <circle cx="169" cy="141" r="3.3" fill="#b88656" opacity="0.26"/>
  <circle cx="297" cy="87" r="2.6" fill="#ffdf9a" opacity="0.12"/>
  <circle cx="95" cy="86" r="1.9" fill="#fff3dc" opacity="0.15"/>
  <circle cx="297" cy="112" r="3.0" fill="#d3843f" opacity="0.19"/>
  <circle cx="132" cy="294" r="2.3" fill="#b88656" opacity="0.23"/>
  <circle cx="182" cy="127" r="3.4" fill="#ffdf9a" opacity="0.26"/>
  <circle cx="112" cy="212" r="2.7" fill="#fff3dc" opacity="0.12"/>
  <circle cx="95" cy="139" r="2.0" fill="#d3843f" opacity="0.15"/>
  <circle cx="105" cy="271" r="3.1" fill="#b88656" opacity="0.19"/>
  <circle cx="271" cy="222" r="2.4" fill="#ffdf9a" opacity="0.23"/>
  <circle cx="88" cy="82" r="3.5" fill="#fff3dc" opacity="0.26"/>
  <circle cx="157" cy="180" r="2.8" fill="#d3843f" opacity="0.12"/>
  <circle cx="68" cy="114" r="2.1" fill="#b88656" opacity="0.15"/>
  <circle cx="184" cy="249" r="3.2" fill="#ffdf9a" opacity="0.19"/>
  <circle cx="119" cy="31" r="2.5" fill="#fff3dc" opacity="0.23"/>
  <circle cx="247" cy="261" r="1.8" fill="#d3843f" opacity="0.26"/>
  <circle cx="45" cy="260" r="2.9" fill="#b88656" opacity="0.12"/>
  <circle cx="247" cy="286" r="2.2" fill="#ffdf9a" opacity="0.15"/>
  <circle cx="82" cy="184" r="3.3" fill="#fff3dc" opacity="0.19"/>
  <circle cx="132" cy="301" r="2.6" fill="#d3843f" opacity="0.23"/>
  <circle cx="62" cy="102" r="1.9" fill="#b88656" opacity="0.26"/>
  <circle cx="45" cy="29" r="3.0" fill="#ffdf9a" opacity="0.12"/>
  <circle cx="55" cy="161" r="2.3" fill="#fff3dc" opacity="0.15"/>
  <circle cx="221" cy="112" r="3.4" fill="#d3843f" opacity="0.19"/>
  <circle cx="38" cy="256" r="2.7" fill="#b88656" opacity="0.23"/>
  <circle cx="107" cy="70" r="2.0" fill="#ffdf9a" opacity="0.26"/>
  <circle cx="18" cy="288" r="3.1" fill="#fff3dc" opacity="0.12"/>
  <circle cx="134" cy="139" r="2.4" fill="#d3843f" opacity="0.15"/>
  <circle cx="69" cy="205" r="3.5" fill="#b88656" opacity="0.19"/>
  <circle cx="197" cy="151" r="2.8" fill="#ffdf9a" opacity="0.23"/>
  <circle cx="279" cy="150" r="2.1" fill="#fff3dc" opacity="0.26"/>
  <circle cx="197" cy="176" r="3.2" fill="#d3843f" opacity="0.12"/>
  <circle cx="32" cy="74" r="2.5" fill="#b88656" opacity="0.15"/>
  <circle cx="82" cy="191" r="1.8" fill="#ffdf9a" opacity="0.19"/>
  <circle cx="296" cy="276" r="2.9" fill="#fff3dc" opacity="0.23"/>
  <circle cx="279" cy="203" r="2.2" fill="#d3843f" opacity="0.26"/>
  <circle cx="289" cy="51" r="3.3" fill="#b88656" opacity="0.12"/>
  <circle cx="171" cy="286" r="2.6" fill="#ffdf9a" opacity="0.15"/>
  <circle cx="272" cy="146" r="1.9" fill="#fff3dc" opacity="0.19"/>
  <circle cx="57" cy="244" r="3.0" fill="#d3843f" opacity="0.23"/>
  <circle cx="252" cy="178" r="2.3" fill="#b88656" opacity="0.26"/>
  <circle cx="84" cy="29" r="3.4" fill="#ffdf9a" opacity="0.12"/>
  <circle cx="19" cy="95" r="2.7" fill="#fff3dc" opacity="0.15"/>
  <circle cx="147" cy="41" r="2.0" fill="#d3843f" opacity="0.19"/>
  <circle cx="229" cy="40" r="3.1" fill="#b88656" opacity="0.23"/>
  <circle cx="147" cy="66" r="2.4" fill="#ffdf9a" opacity="0.26"/>
  <circle cx="266" cy="248" r="3.5" fill="#fff3dc" opacity="0.12"/>
  <circle cx="32" cy="81" r="2.8" fill="#d3843f" opacity="0.15"/>
  <circle cx="246" cy="166" r="2.1" fill="#b88656" opacity="0.19"/>
  <circle cx="229" cy="93" r="3.2" fill="#ffdf9a" opacity="0.23"/>
  <circle cx="239" cy="225" r="2.5" fill="#fff3dc" opacity="0.26"/>
  <circle cx="121" cy="176" r="1.8" fill="#d3843f" opacity="0.12"/>
  <circle cx="222" cy="36" r="2.9" fill="#b88656" opacity="0.15"/>
  <circle cx="291" cy="134" r="2.2" fill="#ffdf9a" opacity="0.19"/>
  <circle cx="202" cy="68" r="3.3" fill="#fff3dc" opacity="0.23"/>
  <circle cx="34" cy="203" r="2.6" fill="#d3843f" opacity="0.26"/>
  <circle cx="253" cy="269" r="1.9" fill="#b88656" opacity="0.12"/>
  <circle cx="97" cy="215" r="3.0" fill="#ffdf9a" opacity="0.15"/>
  <circle cx="179" cy="214" r="2.3" fill="#fff3dc" opacity="0.19"/>
  <circle cx="97" cy="240" r="3.4" fill="#d3843f" opacity="0.23"/>
  <circle cx="216" cy="138" r="2.7" fill="#b88656" opacity="0.26"/>
  <circle cx="266" cy="255" r="2.0" fill="#ffdf9a" opacity="0.12"/>
  <circle cx="196" cy="56" r="3.1" fill="#fff3dc" opacity="0.15"/>
  <circle cx="179" cy="267" r="2.4" fill="#d3843f" opacity="0.19"/>
  <circle cx="189" cy="115" r="3.5" fill="#b88656" opacity="0.23"/>
  <circle cx="71" cy="66" r="2.8" fill="#ffdf9a" opacity="0.26"/>
  <circle cx="172" cy="210" r="2.1" fill="#fff3dc" opacity="0.12"/>
  <path d="M50 42 C 112 24, 168 60, 270 42" fill="none" stroke="#6b4a30" stroke-width="1.4" stroke-linecap="round" opacity="0.11"/>
  <path d="M39 50 C 101 32, 179 68, 281 50" fill="none" stroke="#ffdf9a" stroke-width="1.4" stroke-linecap="round" opacity="0.11"/>
  <path d="M28 58 C 90 40, 190 76, 292 58" fill="none" stroke="#6b4a30" stroke-width="1.4" stroke-linecap="round" opacity="0.11"/>
  <path d="M45 66 C 107 48, 173 84, 275 66" fill="none" stroke="#ffdf9a" stroke-width="1.4" stroke-linecap="round" opacity="0.11"/>
  <path d="M34 74 C 96 56, 184 92, 286 74" fill="none" stroke="#6b4a30" stroke-width="1.4" stroke-linecap="round" opacity="0.11"/>
  <path d="M51 82 C 113 64, 167 100, 269 82" fill="none" stroke="#ffdf9a" stroke-width="1.4" stroke-linecap="round" opacity="0.11"/>
  <path d="M40 90 C 102 72, 178 108, 280 90" fill="none" stroke="#6b4a30" stroke-width="1.4" stroke-linecap="round" opacity="0.11"/>
  <path d="M29 98 C 91 80, 189 116, 291 98" fill="none" stroke="#ffdf9a" stroke-width="1.4" stroke-linecap="round" opacity="0.11"/>
  <path d="M46 106 C 108 88, 172 124, 274 106" fill="none" stroke="#6b4a30" stroke-width="1.4" stroke-linecap="round" opacity="0.11"/>
  <path d="M35 114 C 97 96, 183 132, 285 114" fill="none" stroke="#ffdf9a" stroke-width="1.4" stroke-linecap="round" opacity="0.11"/>
  <path d="M52 122 C 114 104, 166 140, 268 122" fill="none" stroke="#6b4a30" stroke-width="1.4" stroke-linecap="round" opacity="0.11"/>
  <path d="M41 130 C 103 112, 177 148, 279 130" fill="none" stroke="#ffdf9a" stroke-width="1.4" stroke-linecap="round" opacity="0.11"/>
  <path d="M30 138 C 92 120, 188 156, 290 138" fill="none" stroke="#6b4a30" stroke-width="1.4" stroke-linecap="round" opacity="0.11"/>
  <path d="M47 146 C 109 128, 171 164, 273 146" fill="none" stroke="#ffdf9a" stroke-width="1.4" stroke-linecap="round" opacity="0.11"/>
  <path d="M36 154 C 98 136, 182 172, 284 154" fill="none" stroke="#6b4a30" stroke-width="1.4" stroke-linecap="round" opacity="0.11"/>
  <path d="M53 162 C 115 144, 165 180, 267 162" fill="none" stroke="#ffdf9a" stroke-width="1.4" stroke-linecap="round" opacity="0.11"/>
  <path d="M42 170 C 104 152, 176 188, 278 170" fill="none" stroke="#6b4a30" stroke-width="1.4" stroke-linecap="round" opacity="0.11"/>
  <path d="M31 178 C 93 160, 187 196, 289 178" fill="none" stroke="#ffdf9a" stroke-width="1.4" stroke-linecap="round" opacity="0.11"/>
  <path d="M48 186 C 110 168, 170 204, 272 186" fill="none" stroke="#6b4a30" stroke-width="1.4" stroke-linecap="round" opacity="0.11"/>
  <path d="M37 194 C 99 176, 181 212, 283 194" fill="none" stroke="#ffdf9a" stroke-width="1.4" stroke-linecap="round" opacity="0.11"/>
  <path d="M54 202 C 116 184, 164 220, 266 202" fill="none" stroke="#6b4a30" stroke-width="1.4" stroke-linecap="round" opacity="0.11"/>
  <path d="M43 210 C 105 192, 175 228, 277 210" fill="none" stroke="#ffdf9a" stroke-width="1.4" stroke-linecap="round" opacity="0.11"/>
  <path d="M32 218 C 94 200, 186 236, 288 218" fill="none" stroke="#6b4a30" stroke-width="1.4" stroke-linecap="round" opacity="0.11"/>
  <path d="M49 226 C 111 208, 169 244, 271 226" fill="none" stroke="#ffdf9a" stroke-width="1.4" stroke-linecap="round" opacity="0.11"/>
  <path d="M38 234 C 100 216, 180 252, 282 234" fill="none" stroke="#6b4a30" stroke-width="1.4" stroke-linecap="round" opacity="0.11"/>
  <path d="M55 242 C 117 224, 163 260, 265 242" fill="none" stroke="#ffdf9a" stroke-width="1.4" stroke-linecap="round" opacity="0.11"/>
  <path d="M44 250 C 106 232, 174 268, 276 250" fill="none" stroke="#6b4a30" stroke-width="1.4" stroke-linecap="round" opacity="0.11"/>
  <path d="M33 258 C 95 240, 185 276, 287 258" fill="none" stroke="#ffdf9a" stroke-width="1.4" stroke-linecap="round" opacity="0.11"/>
  <path d="M50 266 C 112 248, 168 284, 270 266" fill="none" stroke="#6b4a30" stroke-width="1.4" stroke-linecap="round" opacity="0.11"/>
  <path d="M39 274 C 101 256, 179 292, 281 274" fill="none" stroke="#ffdf9a" stroke-width="1.4" stroke-linecap="round" opacity="0.11"/>
  <path d="M28 282 C 90 264, 190 300, 292 282" fill="none" stroke="#6b4a30" stroke-width="1.4" stroke-linecap="round" opacity="0.11"/>
  <path d="M45 290 C 107 272, 173 308, 275 290" fill="none" stroke="#ffdf9a" stroke-width="1.4" stroke-linecap="round" opacity="0.11"/>
  <path d="M34 298 C 96 280, 184 316, 286 298" fill="none" stroke="#6b4a30" stroke-width="1.4" stroke-linecap="round" opacity="0.11"/>
  <path d="M51 306 C 113 288, 167 324, 269 306" fill="none" stroke="#ffdf9a" stroke-width="1.4" stroke-linecap="round" opacity="0.11"/>
  <path d="M40 314 C 102 296, 178 332, 280 314" fill="none" stroke="#6b4a30" stroke-width="1.4" stroke-linecap="round" opacity="0.11"/>
  <path d="M29 322 C 91 304, 189 340, 291 322" fill="none" stroke="#ffdf9a" stroke-width="1.4" stroke-linecap="round" opacity="0.11"/>
  <path d="M46 330 C 108 312, 172 348, 274 330" fill="none" stroke="#6b4a30" stroke-width="1.4" stroke-linecap="round" opacity="0.11"/>
  <path d="M35 338 C 97 320, 183 356, 285 338" fill="none" stroke="#ffdf9a" stroke-width="1.4" stroke-linecap="round" opacity="0.11"/>
  <g transform="translate(40 258)">
    <rect x="0" y="0" width="240" height="34" rx="17" fill="#fffaf0" opacity="0.78"/>
    <text x="120" y="23" text-anchor="middle" font-family="Inter, Arial, sans-serif" font-size="16" font-weight="900" fill="#6b4a30">qa screens</text>
  </g>
</svg>
