<svg xmlns="http://www.w3.org/2000/svg" width="320" height="320" viewBox="0 0 320 320" role="img" aria-label="splash draft">
  <defs>
    <linearGradient id="bg-splash-draft" x1="36" y1="18" x2="284" y2="302" gradientUnits="userSpaceOnUse">
      <stop offset="0" stop-color="#fff3dc"/>
      <stop offset="0.42" stop-color="#b88656"/>
      <stop offset="1" stop-color="#d3843f"/>
    </linearGradient>
    <linearGradient id="ink-splash-draft" x1="88" y1="66" x2="232" y2="248" gradientUnits="userSpaceOnUse">
      <stop offset="0" stop-color="#d3843f"/>
      <stop offset="1" stop-color="#6b4a30"/>
    </linearGradient>
    <filter id="shadow-splash-draft" x="-20%" y="-20%" width="140%" height="140%">
      <feDropShadow dx="0" dy="12" stdDeviation="10" flood-color="#28322d" flood-opacity="0.18"/>
    </filter>
    <pattern id="grain-splash-draft" width="28" height="28" patternUnits="userSpaceOnUse">
      <path d="M0 20 C 9 12, 18 28, 28 16" fill="none" stroke="#6b4a30" stroke-width="1" opacity="0.08"/>
      <circle cx="8" cy="8" r="1.5" fill="#d3843f" opacity="0.12"/>
      <circle cx="22" cy="21" r="1.2" fill="#ffdf9a" opacity="0.12"/>
    </pattern>
  </defs>
  <rect x="16" y="16" width="288" height="288" rx="54" fill="url(#bg-splash-draft)" filter="url(#shadow-splash-draft)"/>
  <rect x="28" y="28" width="264" height="264" rx="44" fill="url(#grain-splash-draft)" opacity="0.9"/>
  <path d="M58 232 C 92 210, 130 220, 160 199 C 194 176, 238 178, 264 148 L264 262 L58 262 Z" fill="#ffdf9a" opacity="0.16"/>
  <path d="M52 92 C 89 62, 137 68, 160 96 C 186 65, 237 62, 268 96" fill="none" stroke="#fff3dc" stroke-width="10" stroke-linecap="round" opacity="0.62"/>
  <g opacity="0.98">
    <ellipse cx="160" cy="168" rx="78" ry="58" fill="#6b4a30" opacity="0.22"/>
    <ellipse cx="160" cy="156" rx="70" ry="52" fill="url(#ink-splash-draft)"/>
    <circle cx="122" cy="122" r="23" fill="#6b4a30" opacity="0.28"/>
    <circle cx="198" cy="122" r="23" fill="#6b4a30" opacity="0.28"/>
    <ellipse cx="160" cy="166" rx="44" ry="30" fill="#fff3dc" opacity="0.32"/>
    <circle cx="136" cy="152" r="7" fill="#28322d"/>
    <circle cx="184" cy="152" r="7" fill="#28322d"/>
    <ellipse cx="160" cy="174" rx="12" ry="8" fill="#28322d"/>
    <path d="M146 188 C 154 196, 166 196, 174 188" fill="none" stroke="#28322d" stroke-width="5" stroke-linecap="round"/>
  </g>
  <g transform="translate(214 200)">
    <circle cx="0" cy="0" r="34" fill="#d3843f"/>
    <path d="M-10 -25 C 0 -42, 22 -38, 22 -19 C 9 -22, -2 -15, -10 -25 Z" fill="#ffdf9a"/>
    <circle cx="-8" cy="-6" r="4" fill="#fffaf0" opacity="0.72"/>
    <path d="M-20 8 C -2 18, 16 14, 24 -4" fill="none" stroke="#6b4a30" stroke-width="4" stroke-linecap="round" opacity="0.24"/>
  </g>
  <g transform="translate(64 204)">
    <path d="M0 24 L32 0 L64 24 L52 24 L52 56 L12 56 L12 24 Z" fill="#fff3dc" opacity="0.86"/>
    <rect x="24" y="30" width="16" height="26" rx="5" fill="#6b4a30" opacity="0.34"/>
  </g>
  <g transform="translate(58 54)">
    <rect x="0" y="0" width="204" height="42" rx="21" fill="#fffaf0" opacity="0.78"/>
    <circle cx="24" cy="21" r="11" fill="#d3843f" opacity="0.82"/>
    <path d="M42 18 L178 18" stroke="#6b4a30" stroke-width="4" stroke-linecap="round" opacity="0.24"/>
    <path d="M42 28 L132 28" stroke="#6b4a30" stroke-width="3" stroke-linecap="round" opacity="0.16"/>
  </g>
  <g transform="translate(252 48)">
    <circle cx="0" cy="0" r="26" fill="#fff3dc" opacity="0.9"/>
    <text x="0" y="8" text-anchor="middle" font-family="Inter, Arial, sans-serif" font-size="22" font-weight="900" fill="#6b4a30">1</text>
  </g>
  <circle cx="150" cy="190" r="1.8" fill="#d3843f" opacity="0.12"/>
  <circle cx="263" cy="157" r="2.9" fill="#b88656" opacity="0.15"/>
  <circle cx="54" cy="167" r="2.2" fill="#ffdf9a" opacity="0.19"/>
  <circle cx="252" cy="198" r="3.3" fill="#fff3dc" opacity="0.23"/>
  <circle cx="227" cy="240" r="2.6" fill="#d3843f" opacity="0.26"/>
  <circle cx="91" cy="288" r="1.9" fill="#b88656" opacity="0.12"/>
  <circle cx="42" cy="196" r="3.0" fill="#ffdf9a" opacity="0.15"/>
  <circle cx="36" cy="35" r="2.3" fill="#fff3dc" opacity="0.19"/>
  <circle cx="51" cy="265" r="3.4" fill="#d3843f" opacity="0.23"/>
  <circle cx="77" cy="59" r="2.7" fill="#b88656" opacity="0.26"/>
  <circle cx="109" cy="188" r="2.0" fill="#ffdf9a" opacity="0.12"/>
  <circle cx="285" cy="279" r="3.1" fill="#fff3dc" opacity="0.15"/>
  <circle cx="108" cy="209" r="2.4" fill="#d3843f" opacity="0.19"/>
  <circle cx="38" cy="200" r="3.5" fill="#b88656" opacity="0.23"/>
  <circle cx="100" cy="80" r="2.8" fill="#ffdf9a" opacity="0.26"/>
  <circle cx="213" cy="47" r="2.1" fill="#fff3dc" opacity="0.12"/>
  <circle cx="288" cy="57" r="3.2" fill="#d3843f" opacity="0.15"/>
  <circle cx="202" cy="88" r="2.5" fill="#b88656" opacity="0.19"/>
  <circle cx="177" cy="130" r="1.8" fill="#ffdf9a" opacity="0.23"/>
  <circle cx="41" cy="178" r="2.9" fill="#fff3dc" opacity="0.26"/>
  <circle cx="276" cy="86" r="2.2" fill="#d3843f" opacity="0.12"/>
  <circle cx="270" cy="209" r="3.3" fill="#b88656" opacity="0.15"/>
  <circle cx="285" cy="155" r="2.6" fill="#ffdf9a" opacity="0.19"/>
  <circle cx="27" cy="233" r="1.9" fill="#fff3dc" opacity="0.23"/>
  <circle cx="59" cy="78" r="3.0" fill="#d3843f" opacity="0.26"/>
  <circle cx="235" cy="169" r="2.3" fill="#b88656" opacity="0.12"/>
  <circle cx="58" cy="99" r="3.4" fill="#ffdf9a" opacity="0.15"/>
  <circle cx="272" cy="90" r="2.7" fill="#fff3dc" opacity="0.19"/>
  <circle cx="50" cy="254" r="2.0" fill="#d3843f" opacity="0.23"/>
  <circle cx="163" cy="221" r="3.1" fill="#b88656" opacity="0.26"/>
  <circle cx="238" cy="231" r="2.4" fill="#ffdf9a" opacity="0.12"/>
  <circle cx="152" cy="262" r="3.5" fill="#fff3dc" opacity="0.15"/>
  <circle cx="127" cy="20" r="2.8" fill="#d3843f" opacity="0.19"/>
  <circle cx="275" cy="68" r="2.1" fill="#b88656" opacity="0.23"/>
  <circle cx="226" cy="260" r="3.2" fill="#ffdf9a" opacity="0.26"/>
  <circle cx="220" cy="99" r="2.5" fill="#fff3dc" opacity="0.12"/>
  <circle cx="235" cy="45" r="1.8" fill="#d3843f" opacity="0.15"/>
  <circle cx="261" cy="123" r="2.9" fill="#b88656" opacity="0.19"/>
  <circle cx="293" cy="252" r="2.2" fill="#ffdf9a" opacity="0.23"/>
  <circle cx="185" cy="59" r="3.3" fill="#fff3dc" opacity="0.26"/>
  <circle cx="292" cy="273" r="2.6" fill="#d3843f" opacity="0.12"/>
  <circle cx="222" cy="264" r="1.9" fill="#b88656" opacity="0.15"/>
  <circle cx="284" cy="144" r="3.0" fill="#ffdf9a" opacity="0.19"/>
  <circle cx="113" cy="111" r="2.3" fill="#fff3dc" opacity="0.23"/>
  <circle cx="188" cy="121" r="3.4" fill="#d3843f" opacity="0.26"/>
  <circle cx="102" cy="152" r="2.7" fill="#b88656" opacity="0.12"/>
  <circle cx="77" cy="194" r="2.0" fill="#ffdf9a" opacity="0.15"/>
  <circle cx="225" cy="242" r="3.1" fill="#fff3dc" opacity="0.19"/>
  <circle cx="176" cy="150" r="2.4" fill="#d3843f" opacity="0.23"/>
  <circle cx="170" cy="273" r="3.5" fill="#b88656" opacity="0.26"/>
  <circle cx="185" cy="219" r="2.8" fill="#ffdf9a" opacity="0.12"/>
  <circle cx="211" cy="297" r="2.1" fill="#fff3dc" opacity="0.15"/>
  <circle cx="243" cy="142" r="3.2" fill="#d3843f" opacity="0.19"/>
  <circle cx="135" cy="233" r="2.5" fill="#b88656" opacity="0.23"/>
  <circle cx="242" cy="163" r="1.8" fill="#ffdf9a" opacity="0.26"/>
  <circle cx="172" cy="154" r="2.9" fill="#fff3dc" opacity="0.12"/>
  <circle cx="234" cy="34" r="2.2" fill="#d3843f" opacity="0.15"/>
  <circle cx="63" cy="285" r="3.3" fill="#b88656" opacity="0.19"/>
  <circle cx="138" cy="295" r="2.6" fill="#ffdf9a" opacity="0.23"/>
  <circle cx="52" cy="42" r="1.9" fill="#fff3dc" opacity="0.26"/>
  <circle cx="27" cy="84" r="3.0" fill="#d3843f" opacity="0.12"/>
  <circle cx="175" cy="132" r="2.3" fill="#b88656" opacity="0.15"/>
  <circle cx="126" cy="40" r="3.4" fill="#ffdf9a" opacity="0.19"/>
  <circle cx="120" cy="163" r="2.7" fill="#fff3dc" opacity="0.23"/>
  <circle cx="135" cy="109" r="2.0" fill="#d3843f" opacity="0.26"/>
  <circle cx="161" cy="187" r="3.1" fill="#b88656" opacity="0.12"/>
  <circle cx="193" cy="32" r="2.4" fill="#ffdf9a" opacity="0.15"/>
  <circle cx="85" cy="123" r="3.5" fill="#fff3dc" opacity="0.19"/>
  <circle cx="192" cy="53" r="2.8" fill="#d3843f" opacity="0.23"/>
  <circle cx="122" cy="44" r="2.1" fill="#b88656" opacity="0.26"/>
  <circle cx="184" cy="208" r="3.2" fill="#ffdf9a" opacity="0.12"/>
  <circle cx="297" cy="175" r="2.5" fill="#fff3dc" opacity="0.15"/>
  <circle cx="88" cy="185" r="1.8" fill="#d3843f" opacity="0.19"/>
  <circle cx="286" cy="216" r="2.9" fill="#b88656" opacity="0.23"/>
  <circle cx="261" cy="258" r="2.2" fill="#ffdf9a" opacity="0.26"/>
  <circle cx="125" cy="22" r="3.3" fill="#fff3dc" opacity="0.12"/>
  <path d="M28 42 C 90 24, 190 60, 292 42" fill="none" stroke="#6b4a30" stroke-width="1.4" stroke-linecap="round" opacity="0.11"/>
  <path d="M45 50 C 107 32, 173 68, 275 50" fill="none" stroke="#ffdf9a" stroke-width="1.4" stroke-linecap="round" opacity="0.11"/>
  <path d="M34 58 C 96 40, 184 76, 286 58" fill="none" stroke="#6b4a30" stroke-width="1.4" stroke-linecap="round" opacity="0.11"/>
  <path d="M51 66 C 113 48, 167 84, 269 66" fill="none" stroke="#ffdf9a" stroke-width="1.4" stroke-linecap="round" opacity="0.11"/>
  <path d="M40 74 C 102 56, 178 92, 280 74" fill="none" stroke="#6b4a30" stroke-width="1.4" stroke-linecap="round" opacity="0.11"/>
  <path d="M29 82 C 91 64, 189 100, 291 82" fill="none" stroke="#ffdf9a" stroke-width="1.4" stroke-linecap="round" opacity="0.11"/>
  <path d="M46 90 C 108 72, 172 108, 274 90" fill="none" stroke="#6b4a30" stroke-width="1.4" stroke-linecap="round" opacity="0.11"/>
  <path d="M35 98 C 97 80, 183 116, 285 98" fill="none" stroke="#ffdf9a" stroke-width="1.4" stroke-linecap="round" opacity="0.11"/>
  <path d="M52 106 C 114 88, 166 124, 268 106" fill="none" stroke="#6b4a30" stroke-width="1.4" stroke-linecap="round" opacity="0.11"/>
  <path d="M41 114 C 103 96, 177 132, 279 114" fill="none" stroke="#ffdf9a" stroke-width="1.4" stroke-linecap="round" opacity="0.11"/>
  <path d="M30 122 C 92 104, 188 140, 290 122" fill="none" stroke="#6b4a30" stroke-width="1.4" stroke-linecap="round" opacity="0.11"/>
  <path d="M47 130 C 109 112, 171 148, 273 130" fill="none" stroke="#ffdf9a" stroke-width="1.4" stroke-linecap="round" opacity="0.11"/>
  <path d="M36 138 C 98 120, 182 156, 284 138" fill="none" stroke="#6b4a30" stroke-width="1.4" stroke-linecap="round" opacity="0.11"/>
  <path d="M53 146 C 115 128, 165 164, 267 146" fill="none" stroke="#ffdf9a" stroke-width="1.4" stroke-linecap="round" opacity="0.11"/>
  <path d="M42 154 C 104 136, 176 172, 278 154" fill="none" stroke="#6b4a30" stroke-width="1.4" stroke-linecap="round" opacity="0.11"/>
  <path d="M31 162 C 93 144, 187 180, 289 162" fill="none" stroke="#ffdf9a" stroke-width="1.4" stroke-linecap="round" opacity="0.11"/>
  <path d="M48 170 C 110 152, 170 188, 272 170" fill="none" stroke="#6b4a30" stroke-width="1.4" stroke-linecap="round" opacity="0.11"/>
  <path d="M37 178 C 99 160, 181 196, 283 178" fill="none" stroke="#ffdf9a" stroke-width="1.4" stroke-linecap="round" opacity="0.11"/>
  <path d="M54 186 C 116 168, 164 204, 266 186" fill="none" stroke="#6b4a30" stroke-width="1.4" stroke-linecap="round" opacity="0.11"/>
  <path d="M43 194 C 105 176, 175 212, 277 194" fill="none" stroke="#ffdf9a" stroke-width="1.4" stroke-linecap="round" opacity="0.11"/>
  <path d="M32 202 C 94 184, 186 220, 288 202" fill="none" stroke="#6b4a30" stroke-width="1.4" stroke-linecap="round" opacity="0.11"/>
  <path d="M49 210 C 111 192, 169 228, 271 210" fill="none" stroke="#ffdf9a" stroke-width="1.4" stroke-linecap="round" opacity="0.11"/>
  <path d="M38 218 C 100 200, 180 236, 282 218" fill="none" stroke="#6b4a30" stroke-width="1.4" stroke-linecap="round" opacity="0.11"/>
  <path d="M55 226 C 117 208, 163 244, 265 226" fill="none" stroke="#ffdf9a" stroke-width="1.4" stroke-linecap="round" opacity="0.11"/>
  <path d="M44 234 C 106 216, 174 252, 276 234" fill="none" stroke="#6b4a30" stroke-width="1.4" stroke-linecap="round" opacity="0.11"/>
  <path d="M33 242 C 95 224, 185 260, 287 242" fill="none" stroke="#ffdf9a" stroke-width="1.4" stroke-linecap="round" opacity="0.11"/>
  <path d="M50 250 C 112 232, 168 268, 270 250" fill="none" stroke="#6b4a30" stroke-width="1.4" stroke-linecap="round" opacity="0.11"/>
  <path d="M39 258 C 101 240, 179 276, 281 258" fill="none" stroke="#ffdf9a" stroke-width="1.4" stroke-linecap="round" opacity="0.11"/>
  <path d="M28 266 C 90 248, 190 284, 292 266" fill="none" stroke="#6b4a30" stroke-width="1.4" stroke-linecap="round" opacity="0.11"/>
  <path d="M45 274 C 107 256, 173 292, 275 274" fill="none" stroke="#ffdf9a" stroke-width="1.4" stroke-linecap="round" opacity="0.11"/>
  <path d="M34 282 C 96 264, 184 300, 286 282" fill="none" stroke="#6b4a30" stroke-width="1.4" stroke-linecap="round" opacity="0.11"/>
  <path d="M51 290 C 113 272, 167 308, 269 290" fill="none" stroke="#ffdf9a" stroke-width="1.4" stroke-linecap="round" opacity="0.11"/>
  <path d="M40 298 C 102 280, 178 316, 280 298" fill="none" stroke="#6b4a30" stroke-width="1.4" stroke-linecap="round" opacity="0.11"/>
  <path d="M29 306 C 91 288, 189 324, 291 306" fill="none" stroke="#ffdf9a" stroke-width="1.4" stroke-linecap="round" opacity="0.11"/>
  <path d="M46 314 C 108 296, 172 332, 274 314" fill="none" stroke="#6b4a30" stroke-width="1.4" stroke-linecap="round" opacity="0.11"/>
  <path d="M35 322 C 97 304, 183 340, 285 322" fill="none" stroke="#ffdf9a" stroke-width="1.4" stroke-linecap="round" opacity="0.11"/>
  <path d="M52 330 C 114 312, 166 348, 268 330" fill="none" stroke="#6b4a30" stroke-width="1.4" stroke-linecap="round" opacity="0.11"/>
  <path d="M41 338 C 103 320, 177 356, 279 338" fill="none" stroke="#ffdf9a" stroke-width="1.4" stroke-linecap="round" opacity="0.11"/>
  <g transform="translate(40 258)">
    <rect x="0" y="0" width="240" height="34" rx="17" fill="#fffaf0" opacity="0.78"/>
    <text x="120" y="23" text-anchor="middle" font-family="Inter, Arial, sans-serif" font-size="16" font-weight="900" fill="#6b4a30">splash dra</text>
  </g>
</svg>
