<svg xmlns="http://www.w3.org/2000/svg" width="320" height="320" viewBox="0 0 320 320" role="img" aria-label="narin">
  <defs>
    <linearGradient id="bg-capybara-narin" x1="36" y1="18" x2="284" y2="302" gradientUnits="userSpaceOnUse">
      <stop offset="0" stop-color="#f6edf9"/>
      <stop offset="0.42" stop-color="#ffd166"/>
      <stop offset="1" stop-color="#9a5bb4"/>
    </linearGradient>
    <linearGradient id="ink-capybara-narin" x1="88" y1="66" x2="232" y2="248" gradientUnits="userSpaceOnUse">
      <stop offset="0" stop-color="#9a5bb4"/>
      <stop offset="1" stop-color="#704098"/>
    </linearGradient>
    <filter id="shadow-capybara-narin" x="-20%" y="-20%" width="140%" height="140%">
      <feDropShadow dx="0" dy="12" stdDeviation="10" flood-color="#28322d" flood-opacity="0.18"/>
    </filter>
    <pattern id="grain-capybara-narin" width="28" height="28" patternUnits="userSpaceOnUse">
      <path d="M0 20 C 9 12, 18 28, 28 16" fill="none" stroke="#704098" stroke-width="1" opacity="0.08"/>
      <circle cx="8" cy="8" r="1.5" fill="#9a5bb4" opacity="0.12"/>
      <circle cx="22" cy="21" r="1.2" fill="#ff8a2a" opacity="0.12"/>
    </pattern>
  </defs>
  <rect x="16" y="16" width="288" height="288" rx="54" fill="url(#bg-capybara-narin)" filter="url(#shadow-capybara-narin)"/>
  <rect x="28" y="28" width="264" height="264" rx="44" fill="url(#grain-capybara-narin)" opacity="0.9"/>
  <path d="M58 232 C 92 210, 130 220, 160 199 C 194 176, 238 178, 264 148 L264 262 L58 262 Z" fill="#ff8a2a" opacity="0.16"/>
  <path d="M52 92 C 89 62, 137 68, 160 96 C 186 65, 237 62, 268 96" fill="none" stroke="#f6edf9" stroke-width="10" stroke-linecap="round" opacity="0.62"/>
  <g opacity="0.98">
    <ellipse cx="160" cy="168" rx="78" ry="58" fill="#704098" opacity="0.22"/>
    <ellipse cx="160" cy="156" rx="70" ry="52" fill="url(#ink-capybara-narin)"/>
    <circle cx="122" cy="122" r="23" fill="#704098" opacity="0.28"/>
    <circle cx="198" cy="122" r="23" fill="#704098" opacity="0.28"/>
    <ellipse cx="160" cy="166" rx="44" ry="30" fill="#f6edf9" opacity="0.32"/>
    <circle cx="136" cy="152" r="7" fill="#28322d"/>
    <circle cx="184" cy="152" r="7" fill="#28322d"/>
    <ellipse cx="160" cy="174" rx="12" ry="8" fill="#28322d"/>
    <path d="M146 188 C 154 196, 166 196, 174 188" fill="none" stroke="#28322d" stroke-width="5" stroke-linecap="round"/>
  </g>
  <g filter="drop-shadow(0 4px 4px rgba(40,50,45,0.16))">
    <path d="M205 112 C 232 103, 244 121, 226 142 C 217 132, 205 128, 193 131 Z" fill="#9a5bb4"/>
    <path d="M195 113 C 168 101, 145 105, 126 120" fill="none" stroke="#9a5bb4" stroke-width="7" stroke-linecap="round"/>
  </g>
  <g transform="translate(214 200)">
    <circle cx="0" cy="0" r="34" fill="#9a5bb4"/>
    <path d="M-10 -25 C 0 -42, 22 -38, 22 -19 C 9 -22, -2 -15, -10 -25 Z" fill="#ff8a2a"/>
    <circle cx="-8" cy="-6" r="4" fill="#fffaf0" opacity="0.72"/>
    <path d="M-20 8 C -2 18, 16 14, 24 -4" fill="none" stroke="#704098" stroke-width="4" stroke-linecap="round" opacity="0.24"/>
  </g>
  <g transform="translate(64 204)">
    <path d="M0 24 L32 0 L64 24 L52 24 L52 56 L12 56 L12 24 Z" fill="#f6edf9" opacity="0.86"/>
    <rect x="24" y="30" width="16" height="26" rx="5" fill="#704098" opacity="0.34"/>
  </g>
  <g transform="translate(58 54)">
    <rect x="0" y="0" width="204" height="42" rx="21" fill="#fffaf0" opacity="0.78"/>
    <circle cx="24" cy="21" r="11" fill="#9a5bb4" opacity="0.82"/>
    <path d="M42 18 L178 18" stroke="#704098" stroke-width="4" stroke-linecap="round" opacity="0.24"/>
    <path d="M42 28 L132 28" stroke="#704098" stroke-width="3" stroke-linecap="round" opacity="0.16"/>
  </g>
  <g transform="translate(252 48)">
    <circle cx="0" cy="0" r="26" fill="#f6edf9" opacity="0.9"/>
    <text x="0" y="8" text-anchor="middle" font-family="Inter, Arial, sans-serif" font-size="22" font-weight="900" fill="#704098">7</text>
  </g>
  <circle cx="255" cy="211" r="3.3" fill="#9a5bb4" opacity="0.12"/>
  <circle cx="31" cy="167" r="2.6" fill="#ffd166" opacity="0.15"/>
  <circle cx="222" cy="30" r="1.9" fill="#ff8a2a" opacity="0.19"/>
  <circle cx="52" cy="272" r="3.0" fill="#f6edf9" opacity="0.23"/>
  <circle cx="269" cy="135" r="2.3" fill="#9a5bb4" opacity="0.26"/>
  <circle cx="112" cy="235" r="3.4" fill="#ffd166" opacity="0.12"/>
  <circle cx="52" cy="28" r="2.7" fill="#ff8a2a" opacity="0.15"/>
  <circle cx="183" cy="235" r="2.0" fill="#f6edf9" opacity="0.19"/>
  <circle cx="125" cy="223" r="3.1" fill="#9a5bb4" opacity="0.23"/>
  <circle cx="256" cy="164" r="2.4" fill="#ffd166" opacity="0.26"/>
  <circle cx="56" cy="240" r="3.5" fill="#ff8a2a" opacity="0.12"/>
  <circle cx="117" cy="163" r="2.8" fill="#f6edf9" opacity="0.15"/>
  <circle cx="24" cy="293" r="2.1" fill="#9a5bb4" opacity="0.19"/>
  <circle cx="280" cy="242" r="3.2" fill="#ffd166" opacity="0.23"/>
  <circle cx="205" cy="101" r="2.5" fill="#ff8a2a" opacity="0.26"/>
  <circle cx="265" cy="57" r="1.8" fill="#f6edf9" opacity="0.12"/>
  <circle cx="172" cy="204" r="2.9" fill="#9a5bb4" opacity="0.15"/>
  <circle cx="286" cy="162" r="2.2" fill="#ffd166" opacity="0.19"/>
  <circle cx="219" cy="25" r="3.3" fill="#ff8a2a" opacity="0.23"/>
  <circle cx="62" cy="125" r="2.6" fill="#f6edf9" opacity="0.26"/>
  <circle cx="286" cy="202" r="1.9" fill="#9a5bb4" opacity="0.12"/>
  <circle cx="133" cy="125" r="3.0" fill="#ffd166" opacity="0.15"/>
  <circle cx="75" cy="113" r="2.3" fill="#ff8a2a" opacity="0.19"/>
  <circle cx="206" cy="54" r="3.4" fill="#f6edf9" opacity="0.23"/>
  <circle cx="290" cy="130" r="2.7" fill="#9a5bb4" opacity="0.26"/>
  <circle cx="67" cy="53" r="2.0" fill="#ffd166" opacity="0.12"/>
  <circle cx="258" cy="183" r="3.1" fill="#ff8a2a" opacity="0.15"/>
  <circle cx="230" cy="132" r="2.4" fill="#f6edf9" opacity="0.19"/>
  <circle cx="155" cy="275" r="3.5" fill="#9a5bb4" opacity="0.23"/>
  <circle cx="215" cy="231" r="2.8" fill="#ffd166" opacity="0.26"/>
  <circle cx="122" cy="94" r="2.1" fill="#ff8a2a" opacity="0.12"/>
  <circle cx="236" cy="52" r="3.2" fill="#f6edf9" opacity="0.15"/>
  <circle cx="169" cy="199" r="2.5" fill="#9a5bb4" opacity="0.19"/>
  <circle cx="296" cy="299" r="1.8" fill="#ffd166" opacity="0.23"/>
  <circle cx="236" cy="92" r="2.9" fill="#ff8a2a" opacity="0.26"/>
  <circle cx="83" cy="299" r="2.2" fill="#f6edf9" opacity="0.12"/>
  <circle cx="25" cy="287" r="3.3" fill="#9a5bb4" opacity="0.15"/>
  <circle cx="156" cy="228" r="2.6" fill="#ffd166" opacity="0.19"/>
  <circle cx="240" cy="20" r="1.9" fill="#ff8a2a" opacity="0.23"/>
  <circle cx="301" cy="227" r="3.0" fill="#f6edf9" opacity="0.26"/>
  <circle cx="208" cy="73" r="2.3" fill="#9a5bb4" opacity="0.12"/>
  <circle cx="180" cy="22" r="3.4" fill="#ffd166" opacity="0.15"/>
  <circle cx="105" cy="165" r="2.7" fill="#ff8a2a" opacity="0.19"/>
  <circle cx="165" cy="121" r="2.0" fill="#f6edf9" opacity="0.23"/>
  <circle cx="72" cy="268" r="3.1" fill="#9a5bb4" opacity="0.26"/>
  <circle cx="186" cy="226" r="2.4" fill="#ffd166" opacity="0.12"/>
  <circle cx="119" cy="89" r="3.5" fill="#ff8a2a" opacity="0.15"/>
  <circle cx="246" cy="189" r="2.8" fill="#f6edf9" opacity="0.19"/>
  <circle cx="186" cy="266" r="2.1" fill="#9a5bb4" opacity="0.23"/>
  <circle cx="33" cy="189" r="3.2" fill="#ffd166" opacity="0.26"/>
  <circle cx="259" cy="177" r="2.5" fill="#ff8a2a" opacity="0.12"/>
  <circle cx="106" cy="118" r="1.8" fill="#f6edf9" opacity="0.15"/>
  <circle cx="190" cy="194" r="2.9" fill="#9a5bb4" opacity="0.19"/>
  <circle cx="251" cy="117" r="2.2" fill="#ffd166" opacity="0.23"/>
  <circle cx="158" cy="247" r="3.3" fill="#ff8a2a" opacity="0.26"/>
  <circle cx="130" cy="196" r="2.6" fill="#f6edf9" opacity="0.12"/>
  <circle cx="55" cy="55" r="1.9" fill="#9a5bb4" opacity="0.15"/>
  <circle cx="115" cy="295" r="3.0" fill="#ffd166" opacity="0.19"/>
  <circle cx="22" cy="158" r="2.3" fill="#ff8a2a" opacity="0.23"/>
  <circle cx="136" cy="116" r="3.4" fill="#f6edf9" opacity="0.26"/>
  <circle cx="69" cy="263" r="2.7" fill="#9a5bb4" opacity="0.12"/>
  <circle cx="196" cy="79" r="2.0" fill="#ffd166" opacity="0.15"/>
  <circle cx="136" cy="156" r="3.1" fill="#ff8a2a" opacity="0.19"/>
  <circle cx="267" cy="79" r="2.4" fill="#f6edf9" opacity="0.23"/>
  <circle cx="209" cy="67" r="3.5" fill="#9a5bb4" opacity="0.26"/>
  <circle cx="56" cy="292" r="2.8" fill="#ffd166" opacity="0.12"/>
  <circle cx="140" cy="84" r="2.1" fill="#ff8a2a" opacity="0.15"/>
  <circle cx="201" cy="291" r="3.2" fill="#f6edf9" opacity="0.19"/>
  <circle cx="108" cy="137" r="2.5" fill="#9a5bb4" opacity="0.23"/>
  <circle cx="80" cy="86" r="1.8" fill="#ffd166" opacity="0.26"/>
  <circle cx="289" cy="229" r="2.9" fill="#ff8a2a" opacity="0.12"/>
  <circle cx="65" cy="185" r="2.2" fill="#f6edf9" opacity="0.15"/>
  <circle cx="256" cy="48" r="3.3" fill="#9a5bb4" opacity="0.19"/>
  <circle cx="86" cy="290" r="2.6" fill="#ffd166" opacity="0.23"/>
  <circle cx="19" cy="153" r="1.9" fill="#ff8a2a" opacity="0.26"/>
  <circle cx="146" cy="253" r="3.0" fill="#f6edf9" opacity="0.12"/>
  <path d="M37 42 C 99 24, 181 60, 283 42" fill="none" stroke="#704098" stroke-width="1.4" stroke-linecap="round" opacity="0.11"/>
  <path d="M54 50 C 116 32, 164 68, 266 50" fill="none" stroke="#ff8a2a" stroke-width="1.4" stroke-linecap="round" opacity="0.11"/>
  <path d="M43 58 C 105 40, 175 76, 277 58" fill="none" stroke="#704098" stroke-width="1.4" stroke-linecap="round" opacity="0.11"/>
  <path d="M32 66 C 94 48, 186 84, 288 66" fill="none" stroke="#ff8a2a" stroke-width="1.4" stroke-linecap="round" opacity="0.11"/>
  <path d="M49 74 C 111 56, 169 92, 271 74" fill="none" stroke="#704098" stroke-width="1.4" stroke-linecap="round" opacity="0.11"/>
  <path d="M38 82 C 100 64, 180 100, 282 82" fill="none" stroke="#ff8a2a" stroke-width="1.4" stroke-linecap="round" opacity="0.11"/>
  <path d="M55 90 C 117 72, 163 108, 265 90" fill="none" stroke="#704098" stroke-width="1.4" stroke-linecap="round" opacity="0.11"/>
  <path d="M44 98 C 106 80, 174 116, 276 98" fill="none" stroke="#ff8a2a" stroke-width="1.4" stroke-linecap="round" opacity="0.11"/>
  <path d="M33 106 C 95 88, 185 124, 287 106" fill="none" stroke="#704098" stroke-width="1.4" stroke-linecap="round" opacity="0.11"/>
  <path d="M50 114 C 112 96, 168 132, 270 114" fill="none" stroke="#ff8a2a" stroke-width="1.4" stroke-linecap="round" opacity="0.11"/>
  <path d="M39 122 C 101 104, 179 140, 281 122" fill="none" stroke="#704098" stroke-width="1.4" stroke-linecap="round" opacity="0.11"/>
  <path d="M28 130 C 90 112, 190 148, 292 130" fill="none" stroke="#ff8a2a" stroke-width="1.4" stroke-linecap="round" opacity="0.11"/>
  <path d="M45 138 C 107 120, 173 156, 275 138" fill="none" stroke="#704098" stroke-width="1.4" stroke-linecap="round" opacity="0.11"/>
  <path d="M34 146 C 96 128, 184 164, 286 146" fill="none" stroke="#ff8a2a" stroke-width="1.4" stroke-linecap="round" opacity="0.11"/>
  <path d="M51 154 C 113 136, 167 172, 269 154" fill="none" stroke="#704098" stroke-width="1.4" stroke-linecap="round" opacity="0.11"/>
  <path d="M40 162 C 102 144, 178 180, 280 162" fill="none" stroke="#ff8a2a" stroke-width="1.4" stroke-linecap="round" opacity="0.11"/>
  <path d="M29 170 C 91 152, 189 188, 291 170" fill="none" stroke="#704098" stroke-width="1.4" stroke-linecap="round" opacity="0.11"/>
  <path d="M46 178 C 108 160, 172 196, 274 178" fill="none" stroke="#ff8a2a" stroke-width="1.4" stroke-linecap="round" opacity="0.11"/>
  <path d="M35 186 C 97 168, 183 204, 285 186" fill="none" stroke="#704098" stroke-width="1.4" stroke-linecap="round" opacity="0.11"/>
  <path d="M52 194 C 114 176, 166 212, 268 194" fill="none" stroke="#ff8a2a" stroke-width="1.4" stroke-linecap="round" opacity="0.11"/>
  <path d="M41 202 C 103 184, 177 220, 279 202" fill="none" stroke="#704098" stroke-width="1.4" stroke-linecap="round" opacity="0.11"/>
  <path d="M30 210 C 92 192, 188 228, 290 210" fill="none" stroke="#ff8a2a" stroke-width="1.4" stroke-linecap="round" opacity="0.11"/>
  <path d="M47 218 C 109 200, 171 236, 273 218" fill="none" stroke="#704098" stroke-width="1.4" stroke-linecap="round" opacity="0.11"/>
  <path d="M36 226 C 98 208, 182 244, 284 226" fill="none" stroke="#ff8a2a" stroke-width="1.4" stroke-linecap="round" opacity="0.11"/>
  <path d="M53 234 C 115 216, 165 252, 267 234" fill="none" stroke="#704098" stroke-width="1.4" stroke-linecap="round" opacity="0.11"/>
  <path d="M42 242 C 104 224, 176 260, 278 242" fill="none" stroke="#ff8a2a" stroke-width="1.4" stroke-linecap="round" opacity="0.11"/>
  <path d="M31 250 C 93 232, 187 268, 289 250" fill="none" stroke="#704098" stroke-width="1.4" stroke-linecap="round" opacity="0.11"/>
  <path d="M48 258 C 110 240, 170 276, 272 258" fill="none" stroke="#ff8a2a" stroke-width="1.4" stroke-linecap="round" opacity="0.11"/>
  <path d="M37 266 C 99 248, 181 284, 283 266" fill="none" stroke="#704098" stroke-width="1.4" stroke-linecap="round" opacity="0.11"/>
  <path d="M54 274 C 116 256, 164 292, 266 274" fill="none" stroke="#ff8a2a" stroke-width="1.4" stroke-linecap="round" opacity="0.11"/>
  <path d="M43 282 C 105 264, 175 300, 277 282" fill="none" stroke="#704098" stroke-width="1.4" stroke-linecap="round" opacity="0.11"/>
  <path d="M32 290 C 94 272, 186 308, 288 290" fill="none" stroke="#ff8a2a" stroke-width="1.4" stroke-linecap="round" opacity="0.11"/>
  <path d="M49 298 C 111 280, 169 316, 271 298" fill="none" stroke="#704098" stroke-width="1.4" stroke-linecap="round" opacity="0.11"/>
  <path d="M38 306 C 100 288, 180 324, 282 306" fill="none" stroke="#ff8a2a" stroke-width="1.4" stroke-linecap="round" opacity="0.11"/>
  <path d="M55 314 C 117 296, 163 332, 265 314" fill="none" stroke="#704098" stroke-width="1.4" stroke-linecap="round" opacity="0.11"/>
  <path d="M44 322 C 106 304, 174 340, 276 322" fill="none" stroke="#ff8a2a" stroke-width="1.4" stroke-linecap="round" opacity="0.11"/>
  <path d="M33 330 C 95 312, 185 348, 287 330" fill="none" stroke="#704098" stroke-width="1.4" stroke-linecap="round" opacity="0.11"/>
  <path d="M50 338 C 112 320, 168 356, 270 338" fill="none" stroke="#ff8a2a" stroke-width="1.4" stroke-linecap="round" opacity="0.11"/>
  <g transform="translate(40 258)">
    <rect x="0" y="0" width="240" height="34" rx="17" fill="#fffaf0" opacity="0.78"/>
    <text x="120" y="23" text-anchor="middle" font-family="Inter, Arial, sans-serif" font-size="16" font-weight="900" fill="#704098">narin</text>
  </g>
</svg>
