<svg xmlns="http://www.w3.org/2000/svg" width="320" height="320" viewBox="0 0 320 320" role="img" aria-label="festival">
  <defs>
    <linearGradient id="bg-festival" x1="36" y1="18" x2="284" y2="302" gradientUnits="userSpaceOnUse">
      <stop offset="0" stop-color="#fffaf0"/>
      <stop offset="0.42" stop-color="#bfe5d9"/>
      <stop offset="1" stop-color="#4b8aa8"/>
    </linearGradient>
    <linearGradient id="ink-festival" x1="88" y1="66" x2="232" y2="248" gradientUnits="userSpaceOnUse">
      <stop offset="0" stop-color="#4b8aa8"/>
      <stop offset="1" stop-color="#2f6f88"/>
    </linearGradient>
    <filter id="shadow-festival" x="-20%" y="-20%" width="140%" height="140%">
      <feDropShadow dx="0" dy="12" stdDeviation="10" flood-color="#28322d" flood-opacity="0.18"/>
    </filter>
    <pattern id="grain-festival" width="28" height="28" patternUnits="userSpaceOnUse">
      <path d="M0 20 C 9 12, 18 28, 28 16" fill="none" stroke="#2f6f88" stroke-width="1" opacity="0.08"/>
      <circle cx="8" cy="8" r="1.5" fill="#4b8aa8" opacity="0.12"/>
      <circle cx="22" cy="21" r="1.2" fill="#ffb23f" opacity="0.12"/>
    </pattern>
  </defs>
  <rect x="16" y="16" width="288" height="288" rx="54" fill="url(#bg-festival)" filter="url(#shadow-festival)"/>
  <rect x="28" y="28" width="264" height="264" rx="44" fill="url(#grain-festival)" opacity="0.9"/>
  <path d="M58 232 C 92 210, 130 220, 160 199 C 194 176, 238 178, 264 148 L264 262 L58 262 Z" fill="#ffb23f" opacity="0.16"/>
  <path d="M52 92 C 89 62, 137 68, 160 96 C 186 65, 237 62, 268 96" fill="none" stroke="#fffaf0" stroke-width="10" stroke-linecap="round" opacity="0.62"/>
  <g opacity="0.98">
    <ellipse cx="160" cy="168" rx="78" ry="58" fill="#2f6f88" opacity="0.22"/>
    <ellipse cx="160" cy="156" rx="70" ry="52" fill="url(#ink-festival)"/>
    <circle cx="122" cy="122" r="23" fill="#2f6f88" opacity="0.28"/>
    <circle cx="198" cy="122" r="23" fill="#2f6f88" opacity="0.28"/>
    <ellipse cx="160" cy="166" rx="44" ry="30" fill="#fffaf0" opacity="0.32"/>
    <circle cx="136" cy="152" r="7" fill="#28322d"/>
    <circle cx="184" cy="152" r="7" fill="#28322d"/>
    <ellipse cx="160" cy="174" rx="12" ry="8" fill="#28322d"/>
    <path d="M146 188 C 154 196, 166 196, 174 188" fill="none" stroke="#28322d" stroke-width="5" stroke-linecap="round"/>
  </g>
  <g transform="translate(214 200)">
    <circle cx="0" cy="0" r="34" fill="#4b8aa8"/>
    <path d="M-10 -25 C 0 -42, 22 -38, 22 -19 C 9 -22, -2 -15, -10 -25 Z" fill="#ffb23f"/>
    <circle cx="-8" cy="-6" r="4" fill="#fffaf0" opacity="0.72"/>
    <path d="M-20 8 C -2 18, 16 14, 24 -4" fill="none" stroke="#2f6f88" stroke-width="4" stroke-linecap="round" opacity="0.24"/>
  </g>
  <g transform="translate(64 204)">
    <path d="M0 24 L32 0 L64 24 L52 24 L52 56 L12 56 L12 24 Z" fill="#fffaf0" opacity="0.86"/>
    <rect x="24" y="30" width="16" height="26" rx="5" fill="#2f6f88" opacity="0.34"/>
  </g>
  <g transform="translate(58 54)">
    <rect x="0" y="0" width="204" height="42" rx="21" fill="#fffaf0" opacity="0.78"/>
    <circle cx="24" cy="21" r="11" fill="#4b8aa8" opacity="0.82"/>
    <path d="M42 18 L178 18" stroke="#2f6f88" stroke-width="4" stroke-linecap="round" opacity="0.24"/>
    <path d="M42 28 L132 28" stroke="#2f6f88" stroke-width="3" stroke-linecap="round" opacity="0.16"/>
  </g>
  <g transform="translate(252 48)">
    <circle cx="0" cy="0" r="26" fill="#fffaf0" opacity="0.9"/>
    <text x="0" y="8" text-anchor="middle" font-family="Inter, Arial, sans-serif" font-size="22" font-weight="900" fill="#2f6f88">9</text>
  </g>
  <circle cx="31" cy="71" r="3.5" fill="#4b8aa8" opacity="0.12"/>
  <circle cx="61" cy="97" r="2.8" fill="#bfe5d9" opacity="0.15"/>
  <circle cx="237" cy="279" r="2.1" fill="#ffb23f" opacity="0.19"/>
  <circle cx="59" cy="112" r="3.2" fill="#fffaf0" opacity="0.23"/>
  <circle cx="273" cy="55" r="2.5" fill="#4b8aa8" opacity="0.26"/>
  <circle cx="256" cy="53" r="1.8" fill="#bfe5d9" opacity="0.12"/>
  <circle cx="266" cy="221" r="2.9" fill="#ffb23f" opacity="0.15"/>
  <circle cx="148" cy="189" r="2.2" fill="#fffaf0" opacity="0.19"/>
  <circle cx="249" cy="200" r="3.3" fill="#4b8aa8" opacity="0.23"/>
  <circle cx="176" cy="224" r="2.6" fill="#bfe5d9" opacity="0.26"/>
  <circle cx="158" cy="270" r="1.9" fill="#ffb23f" opacity="0.12"/>
  <circle cx="26" cy="178" r="3.0" fill="#fffaf0" opacity="0.15"/>
  <circle cx="262" cy="300" r="2.3" fill="#4b8aa8" opacity="0.19"/>
  <circle cx="257" cy="246" r="3.4" fill="#bfe5d9" opacity="0.23"/>
  <circle cx="265" cy="245" r="2.7" fill="#ffb23f" opacity="0.26"/>
  <circle cx="295" cy="271" r="2.0" fill="#fffaf0" opacity="0.12"/>
  <circle cx="187" cy="169" r="3.1" fill="#4b8aa8" opacity="0.15"/>
  <circle cx="293" cy="286" r="2.4" fill="#bfe5d9" opacity="0.19"/>
  <circle cx="223" cy="229" r="3.5" fill="#ffb23f" opacity="0.23"/>
  <circle cx="206" cy="227" r="2.8" fill="#fffaf0" opacity="0.26"/>
  <circle cx="216" cy="111" r="2.1" fill="#4b8aa8" opacity="0.12"/>
  <circle cx="98" cy="79" r="3.2" fill="#bfe5d9" opacity="0.15"/>
  <circle cx="199" cy="90" r="2.5" fill="#ffb23f" opacity="0.19"/>
  <circle cx="126" cy="114" r="1.8" fill="#fffaf0" opacity="0.23"/>
  <circle cx="108" cy="160" r="2.9" fill="#4b8aa8" opacity="0.26"/>
  <circle cx="260" cy="68" r="2.2" fill="#bfe5d9" opacity="0.12"/>
  <circle cx="212" cy="190" r="3.3" fill="#ffb23f" opacity="0.15"/>
  <circle cx="207" cy="136" r="2.6" fill="#fffaf0" opacity="0.19"/>
  <circle cx="215" cy="135" r="1.9" fill="#4b8aa8" opacity="0.23"/>
  <circle cx="245" cy="161" r="3.0" fill="#bfe5d9" opacity="0.26"/>
  <circle cx="137" cy="59" r="2.3" fill="#ffb23f" opacity="0.12"/>
  <circle cx="243" cy="176" r="3.4" fill="#fffaf0" opacity="0.15"/>
  <circle cx="173" cy="119" r="2.7" fill="#4b8aa8" opacity="0.19"/>
  <circle cx="156" cy="117" r="2.0" fill="#bfe5d9" opacity="0.23"/>
  <circle cx="166" cy="285" r="3.1" fill="#ffb23f" opacity="0.26"/>
  <circle cx="48" cy="253" r="2.4" fill="#fffaf0" opacity="0.12"/>
  <circle cx="149" cy="264" r="3.5" fill="#4b8aa8" opacity="0.15"/>
  <circle cx="76" cy="288" r="2.8" fill="#bfe5d9" opacity="0.19"/>
  <circle cx="58" cy="50" r="2.1" fill="#ffb23f" opacity="0.23"/>
  <circle cx="210" cy="242" r="3.2" fill="#fffaf0" opacity="0.26"/>
  <circle cx="162" cy="80" r="2.5" fill="#4b8aa8" opacity="0.12"/>
  <circle cx="157" cy="26" r="1.8" fill="#bfe5d9" opacity="0.15"/>
  <circle cx="165" cy="25" r="2.9" fill="#ffb23f" opacity="0.19"/>
  <circle cx="195" cy="51" r="2.2" fill="#fffaf0" opacity="0.23"/>
  <circle cx="87" cy="233" r="3.3" fill="#4b8aa8" opacity="0.26"/>
  <circle cx="193" cy="66" r="2.6" fill="#bfe5d9" opacity="0.12"/>
  <circle cx="123" cy="293" r="1.9" fill="#ffb23f" opacity="0.15"/>
  <circle cx="106" cy="291" r="3.0" fill="#fffaf0" opacity="0.19"/>
  <circle cx="116" cy="175" r="2.3" fill="#4b8aa8" opacity="0.23"/>
  <circle cx="282" cy="143" r="3.4" fill="#bfe5d9" opacity="0.26"/>
  <circle cx="99" cy="154" r="2.7" fill="#ffb23f" opacity="0.12"/>
  <circle cx="26" cy="178" r="2.0" fill="#fffaf0" opacity="0.15"/>
  <circle cx="292" cy="224" r="3.1" fill="#4b8aa8" opacity="0.19"/>
  <circle cx="160" cy="132" r="2.4" fill="#bfe5d9" opacity="0.23"/>
  <circle cx="112" cy="254" r="3.5" fill="#ffb23f" opacity="0.26"/>
  <circle cx="107" cy="200" r="2.8" fill="#fffaf0" opacity="0.12"/>
  <circle cx="115" cy="199" r="2.1" fill="#4b8aa8" opacity="0.15"/>
  <circle cx="145" cy="225" r="3.2" fill="#bfe5d9" opacity="0.19"/>
  <circle cx="37" cy="123" r="2.5" fill="#ffb23f" opacity="0.23"/>
  <circle cx="143" cy="240" r="1.8" fill="#fffaf0" opacity="0.26"/>
  <circle cx="73" cy="183" r="2.9" fill="#4b8aa8" opacity="0.12"/>
  <circle cx="56" cy="181" r="2.2" fill="#bfe5d9" opacity="0.15"/>
  <circle cx="66" cy="65" r="3.3" fill="#ffb23f" opacity="0.19"/>
  <circle cx="232" cy="33" r="2.6" fill="#fffaf0" opacity="0.23"/>
  <circle cx="49" cy="44" r="1.9" fill="#4b8aa8" opacity="0.26"/>
  <circle cx="260" cy="68" r="3.0" fill="#bfe5d9" opacity="0.12"/>
  <circle cx="242" cy="114" r="2.3" fill="#ffb23f" opacity="0.15"/>
  <circle cx="110" cy="22" r="3.4" fill="#fffaf0" opacity="0.19"/>
  <circle cx="62" cy="144" r="2.7" fill="#4b8aa8" opacity="0.23"/>
  <circle cx="57" cy="90" r="2.0" fill="#bfe5d9" opacity="0.26"/>
  <circle cx="65" cy="89" r="3.1" fill="#ffb23f" opacity="0.12"/>
  <circle cx="95" cy="115" r="2.4" fill="#fffaf0" opacity="0.15"/>
  <circle cx="271" cy="297" r="3.5" fill="#4b8aa8" opacity="0.19"/>
  <circle cx="93" cy="130" r="2.8" fill="#bfe5d9" opacity="0.23"/>
  <circle cx="23" cy="73" r="2.1" fill="#ffb23f" opacity="0.26"/>
  <circle cx="290" cy="71" r="3.2" fill="#fffaf0" opacity="0.12"/>
  <path d="M53 42 C 115 24, 165 60, 267 42" fill="none" stroke="#2f6f88" stroke-width="1.4" stroke-linecap="round" opacity="0.11"/>
  <path d="M42 50 C 104 32, 176 68, 278 50" fill="none" stroke="#ffb23f" stroke-width="1.4" stroke-linecap="round" opacity="0.11"/>
  <path d="M31 58 C 93 40, 187 76, 289 58" fill="none" stroke="#2f6f88" stroke-width="1.4" stroke-linecap="round" opacity="0.11"/>
  <path d="M48 66 C 110 48, 170 84, 272 66" fill="none" stroke="#ffb23f" stroke-width="1.4" stroke-linecap="round" opacity="0.11"/>
  <path d="M37 74 C 99 56, 181 92, 283 74" fill="none" stroke="#2f6f88" stroke-width="1.4" stroke-linecap="round" opacity="0.11"/>
  <path d="M54 82 C 116 64, 164 100, 266 82" fill="none" stroke="#ffb23f" stroke-width="1.4" stroke-linecap="round" opacity="0.11"/>
  <path d="M43 90 C 105 72, 175 108, 277 90" fill="none" stroke="#2f6f88" stroke-width="1.4" stroke-linecap="round" opacity="0.11"/>
  <path d="M32 98 C 94 80, 186 116, 288 98" fill="none" stroke="#ffb23f" stroke-width="1.4" stroke-linecap="round" opacity="0.11"/>
  <path d="M49 106 C 111 88, 169 124, 271 106" fill="none" stroke="#2f6f88" stroke-width="1.4" stroke-linecap="round" opacity="0.11"/>
  <path d="M38 114 C 100 96, 180 132, 282 114" fill="none" stroke="#ffb23f" stroke-width="1.4" stroke-linecap="round" opacity="0.11"/>
  <path d="M55 122 C 117 104, 163 140, 265 122" fill="none" stroke="#2f6f88" stroke-width="1.4" stroke-linecap="round" opacity="0.11"/>
  <path d="M44 130 C 106 112, 174 148, 276 130" fill="none" stroke="#ffb23f" stroke-width="1.4" stroke-linecap="round" opacity="0.11"/>
  <path d="M33 138 C 95 120, 185 156, 287 138" fill="none" stroke="#2f6f88" stroke-width="1.4" stroke-linecap="round" opacity="0.11"/>
  <path d="M50 146 C 112 128, 168 164, 270 146" fill="none" stroke="#ffb23f" stroke-width="1.4" stroke-linecap="round" opacity="0.11"/>
  <path d="M39 154 C 101 136, 179 172, 281 154" fill="none" stroke="#2f6f88" stroke-width="1.4" stroke-linecap="round" opacity="0.11"/>
  <path d="M28 162 C 90 144, 190 180, 292 162" fill="none" stroke="#ffb23f" stroke-width="1.4" stroke-linecap="round" opacity="0.11"/>
  <path d="M45 170 C 107 152, 173 188, 275 170" fill="none" stroke="#2f6f88" stroke-width="1.4" stroke-linecap="round" opacity="0.11"/>
  <path d="M34 178 C 96 160, 184 196, 286 178" fill="none" stroke="#ffb23f" stroke-width="1.4" stroke-linecap="round" opacity="0.11"/>
  <path d="M51 186 C 113 168, 167 204, 269 186" fill="none" stroke="#2f6f88" stroke-width="1.4" stroke-linecap="round" opacity="0.11"/>
  <path d="M40 194 C 102 176, 178 212, 280 194" fill="none" stroke="#ffb23f" stroke-width="1.4" stroke-linecap="round" opacity="0.11"/>
  <path d="M29 202 C 91 184, 189 220, 291 202" fill="none" stroke="#2f6f88" stroke-width="1.4" stroke-linecap="round" opacity="0.11"/>
  <path d="M46 210 C 108 192, 172 228, 274 210" fill="none" stroke="#ffb23f" stroke-width="1.4" stroke-linecap="round" opacity="0.11"/>
  <path d="M35 218 C 97 200, 183 236, 285 218" fill="none" stroke="#2f6f88" stroke-width="1.4" stroke-linecap="round" opacity="0.11"/>
  <path d="M52 226 C 114 208, 166 244, 268 226" fill="none" stroke="#ffb23f" stroke-width="1.4" stroke-linecap="round" opacity="0.11"/>
  <path d="M41 234 C 103 216, 177 252, 279 234" fill="none" stroke="#2f6f88" stroke-width="1.4" stroke-linecap="round" opacity="0.11"/>
  <path d="M30 242 C 92 224, 188 260, 290 242" fill="none" stroke="#ffb23f" stroke-width="1.4" stroke-linecap="round" opacity="0.11"/>
  <path d="M47 250 C 109 232, 171 268, 273 250" fill="none" stroke="#2f6f88" stroke-width="1.4" stroke-linecap="round" opacity="0.11"/>
  <path d="M36 258 C 98 240, 182 276, 284 258" fill="none" stroke="#ffb23f" stroke-width="1.4" stroke-linecap="round" opacity="0.11"/>
  <path d="M53 266 C 115 248, 165 284, 267 266" fill="none" stroke="#2f6f88" stroke-width="1.4" stroke-linecap="round" opacity="0.11"/>
  <path d="M42 274 C 104 256, 176 292, 278 274" fill="none" stroke="#ffb23f" stroke-width="1.4" stroke-linecap="round" opacity="0.11"/>
  <path d="M31 282 C 93 264, 187 300, 289 282" fill="none" stroke="#2f6f88" stroke-width="1.4" stroke-linecap="round" opacity="0.11"/>
  <path d="M48 290 C 110 272, 170 308, 272 290" fill="none" stroke="#ffb23f" stroke-width="1.4" stroke-linecap="round" opacity="0.11"/>
  <path d="M37 298 C 99 280, 181 316, 283 298" fill="none" stroke="#2f6f88" stroke-width="1.4" stroke-linecap="round" opacity="0.11"/>
  <path d="M54 306 C 116 288, 164 324, 266 306" fill="none" stroke="#ffb23f" stroke-width="1.4" stroke-linecap="round" opacity="0.11"/>
  <path d="M43 314 C 105 296, 175 332, 277 314" fill="none" stroke="#2f6f88" stroke-width="1.4" stroke-linecap="round" opacity="0.11"/>
  <path d="M32 322 C 94 304, 186 340, 288 322" fill="none" stroke="#ffb23f" stroke-width="1.4" stroke-linecap="round" opacity="0.11"/>
  <path d="M49 330 C 111 312, 169 348, 271 330" fill="none" stroke="#2f6f88" stroke-width="1.4" stroke-linecap="round" opacity="0.11"/>
  <path d="M38 338 C 100 320, 180 356, 282 338" fill="none" stroke="#ffb23f" stroke-width="1.4" stroke-linecap="round" opacity="0.11"/>
  <g transform="translate(40 258)">
    <rect x="0" y="0" width="240" height="34" rx="17" fill="#fffaf0" opacity="0.78"/>
    <text x="120" y="23" text-anchor="middle" font-family="Inter, Arial, sans-serif" font-size="16" font-weight="900" fill="#2f6f88">festival</text>
  </g>
</svg>
