<svg xmlns="http://www.w3.org/2000/svg" width="320" height="320" viewBox="0 0 320 320" role="img" aria-label="parasol">
  <defs>
    <linearGradient id="bg-parasol" x1="32" y1="18" x2="288" y2="304" gradientUnits="userSpaceOnUse">
      <stop offset="0" stop-color="#fff1bd"/>
      <stop offset="0.56" stop-color="#d8f1dc"/>
      <stop offset="1" stop-color="#ffd568"/>
    </linearGradient>
    <linearGradient id="grass-parasol" x1="0" y1="168" x2="320" y2="304" gradientUnits="userSpaceOnUse">
      <stop offset="0" stop-color="#54a86f"/>
      <stop offset="1" stop-color="#2f865d"/>
    </linearGradient>
    <filter id="shadow-parasol" x="-25%" y="-25%" width="150%" height="150%">
      <feDropShadow dx="0" dy="12" stdDeviation="9" flood-color="#1f2c24" flood-opacity="0.18"/>
    </filter>
    <filter id="soft-parasol" x="-25%" y="-25%" width="150%" height="150%">
      <feDropShadow dx="0" dy="5" stdDeviation="4" flood-color="#1f2c24" flood-opacity="0.14"/>
    </filter>
  </defs>
  <rect x="18" y="18" width="284" height="284" rx="64" fill="url(#bg-parasol)"/>
  <path d="M18 221 C 62 198, 94 225, 134 202 C 178 176, 214 207, 302 154 L302 302 L18 302 Z" fill="url(#grass-parasol)" opacity="0.34"/>
  <path d="M44 66 C 79 39, 124 48, 148 75 C 181 43, 236 45, 276 86" fill="none" stroke="#fffdf2" stroke-width="10" stroke-linecap="round" opacity="0.56"/>
  <circle cx="140" cy="49" r="8" fill="#fffdf2" opacity="0.26"/>
    <circle cx="122" cy="187" r="3" fill="#ff982a" opacity="0.18"/>
    <circle cx="246" cy="65" r="4" fill="#fffdf2" opacity="0.26"/>
    <circle cx="206" cy="232" r="5" fill="#ff982a" opacity="0.18"/>
    <circle cx="83" cy="229" r="6" fill="#fffdf2" opacity="0.26"/>
    <circle cx="155" cy="246" r="7" fill="#ff982a" opacity="0.18"/>
    <circle cx="207" cy="168" r="8" fill="#fffdf2" opacity="0.26"/>
  <g filter="url(#shadow-parasol)">
    <g transform="translate(160 164)">
    <path d="M-98 -18 C -40 -88, 50 -88, 100 -18 Z" fill="#ff982a"/>
    <path d="M-98 -18 C -63 5, -38 5, -7 -18 C 22 6, 58 7, 100 -18" fill="#d95618" opacity="0.36"/>
    <path d="M0 -18 L0 90" stroke="#8d5d39" stroke-width="14" stroke-linecap="round"/>
    <path d="M0 -18 L-42 -55 M0 -18 L42 -55" stroke="#fffdf2" stroke-width="5" stroke-linecap="round" opacity="0.5"/>
    <ellipse cx="0" cy="94" rx="56" ry="14" fill="#1f2c24" opacity="0.1"/>
  </g>
  </g>
  <path d="M65 273 C 106 286, 213 287, 255 270" fill="none" stroke="#1f2c24" stroke-width="8" stroke-linecap="round" opacity="0.08"/>
</svg>
